<?xml version="1.0" standalone="no"?>
<!DOCTYPE svg PUBLIC "-//W3C//DTD SVG 20010904//EN"
 "http://www.w3.org/TR/2001/REC-SVG-20010904/DTD/svg10.dtd">
<svg version="1.0" xmlns="http://www.w3.org/2000/svg"
 width="3865.000000pt" height="3863.000000pt" viewBox="0 0 3865.000000 3863.000000"
 preserveAspectRatio="xMidYMid meet">

<g transform="translate(0.000000,3863.000000) scale(0.100000,-0.100000)"
fill="#000000" stroke="none">
<path d="M2460 38150 c-58 -4 -342 -8 -632 -9 -578 -1 -625 -5 -804 -66 -374
-129 -678 -443 -798 -823 -52 -166 -66 -303 -55 -528 4 -87 10 -217 14 -289 3
-71 8 -164 10 -205 2 -41 7 -136 10 -210 3 -74 8 -173 10 -220 5 -92 12 -234
20 -430 3 -69 8 -159 10 -200 5 -87 13 -245 20 -415 8 -190 23 -495 30 -625 3
-47 7 -141 10 -210 3 -69 7 -163 10 -210 2 -47 7 -143 10 -215 3 -71 7 -168
10 -215 5 -100 12 -248 20 -415 3 -66 7 -160 10 -210 2 -49 7 -148 10 -220 3
-71 8 -166 10 -210 3 -44 10 -183 15 -310 6 -126 12 -266 15 -310 2 -44 7
-143 10 -220 3 -77 8 -174 10 -215 2 -41 7 -133 10 -205 3 -71 7 -164 10 -205
2 -41 7 -138 10 -215 3 -77 8 -171 10 -210 2 -38 7 -128 10 -200 3 -71 7 -168
10 -215 2 -47 7 -143 10 -215 3 -71 7 -164 10 -205 2 -41 7 -133 10 -205 3
-71 7 -170 10 -220 2 -49 7 -144 10 -210 6 -138 13 -273 20 -412 5 -89 16
-344 30 -658 3 -66 7 -158 10 -205 3 -47 7 -137 10 -200 6 -124 12 -257 20
-415 3 -55 9 -197 15 -315 5 -118 12 -262 15 -320 3 -58 7 -157 10 -220 3 -63
7 -149 10 -190 3 -41 7 -136 10 -210 3 -74 10 -223 15 -330 6 -107 12 -247 15
-310 9 -195 15 -331 20 -425 7 -128 16 -323 30 -635 10 -214 16 -335 20 -410
3 -41 7 -140 10 -220 3 -80 8 -174 10 -210 2 -36 7 -132 10 -215 3 -82 8 -175
10 -205 2 -30 7 -122 10 -205 3 -82 8 -181 10 -220 2 -38 7 -133 10 -210 3
-77 8 -171 10 -210 3 -38 7 -137 10 -220 3 -82 8 -170 10 -195 2 -25 7 -117
10 -205 3 -88 8 -191 10 -230 2 -38 7 -133 10 -210 3 -77 8 -169 10 -205 2
-36 7 -128 10 -205 3 -77 8 -174 10 -215 2 -41 7 -131 10 -200 6 -137 13 -274
20 -420 3 -52 10 -198 15 -325 6 -126 12 -268 15 -315 2 -47 7 -143 10 -215 3
-71 8 -166 10 -210 3 -44 7 -134 10 -200 3 -66 8 -165 10 -220 3 -55 10 -199
15 -320 9 -205 13 -273 25 -510 3 -49 9 -193 15 -320 5 -126 12 -268 15 -315
2 -47 7 -146 10 -220 3 -74 8 -166 10 -205 2 -38 7 -137 10 -220 3 -82 8 -179
10 -215 3 -36 7 -121 10 -190 3 -69 7 -168 10 -220 2 -52 7 -151 10 -220 3
-69 8 -159 10 -200 3 -41 7 -131 10 -200 6 -140 13 -303 20 -430 2 -47 7 -141
10 -210 3 -69 7 -168 10 -220 21 -428 24 -483 40 -840 8 -179 17 -365 20 -415
2 -49 7 -144 10 -210 3 -66 8 -160 10 -210 3 -49 7 -144 10 -210 3 -66 7 -156
10 -200 3 -44 7 -145 10 -225 3 -80 8 -172 10 -205 2 -33 7 -127 10 -210 3
-82 8 -181 10 -220 3 -38 7 -123 10 -187 13 -302 16 -359 20 -443 3 -49 7
-144 10 -210 3 -66 8 -156 10 -200 2 -44 7 -147 10 -230 3 -82 8 -175 10 -205
3 -30 7 -118 10 -195 3 -77 7 -178 10 -225 3 -47 7 -139 10 -205 5 -124 12
-263 20 -420 3 -49 7 -146 10 -215 3 -69 8 -163 10 -210 11 -201 15 -292 20
-410 3 -69 8 -163 10 -210 3 -47 7 -146 10 -220 3 -74 8 -169 10 -210 2 -41 7
-129 10 -195 3 -66 8 -165 10 -220 3 -55 7 -152 10 -215 3 -63 9 -203 15 -310
5 -107 12 -253 15 -325 3 -71 8 -164 10 -205 3 -41 12 -228 20 -415 8 -187 17
-383 20 -435 3 -52 10 -194 15 -315 6 -121 12 -254 15 -295 2 -41 7 -136 10
-210 3 -74 8 -173 10 -220 3 -47 7 -143 10 -215 16 -374 26 -461 76 -608 82
-246 244 -471 453 -629 93 -70 291 -169 396 -198 207 -57 -225 -53 5681 -57
5033 -4 5417 -4 5432 12 22 21 22 49 0 66 -13 12 -785 15 -4927 19 -4693 5
-4914 6 -4986 24 -208 50 -403 155 -558 301 -113 106 -191 208 -255 332 -91
177 -131 336 -141 573 -4 74 -8 169 -11 210 -2 41 -7 127 -10 190 -3 63 -8
144 -10 180 -3 36 -7 117 -10 180 -3 63 -8 149 -10 190 -3 41 -7 129 -10 195
-3 66 -8 149 -10 185 -3 36 -7 115 -10 175 -5 114 -21 417 -30 565 -2 47 -7
132 -10 190 -3 58 -8 139 -10 180 -2 41 -7 127 -10 190 -3 63 -8 149 -10 190
-9 159 -15 259 -20 365 -3 61 -8 146 -10 190 -3 44 -7 127 -10 185 -3 58 -7
143 -10 190 -3 47 -7 135 -10 195 -3 61 -10 182 -15 270 -5 88 -12 219 -15
290 -3 72 -8 155 -10 185 -3 30 -9 152 -15 270 -6 118 -12 249 -15 290 -8 139
-15 254 -20 375 -3 66 -8 147 -10 180 -2 33 -7 119 -10 190 -3 72 -8 157 -10
190 -3 33 -9 150 -15 260 -18 354 -20 399 -25 465 -2 36 -7 124 -10 195 -3 72
-8 162 -10 200 -3 39 -7 117 -10 175 -12 233 -15 289 -20 380 -12 229 -46 899
-65 1280 -11 228 -22 453 -25 500 -2 47 -7 148 -10 225 -3 77 -8 169 -10 205
-2 36 -7 130 -10 210 -3 80 -8 174 -10 210 -2 36 -7 126 -10 200 -3 74 -7 169
-10 210 -2 41 -7 143 -10 225 -3 83 -7 175 -10 205 -2 30 -7 123 -10 205 -3
83 -8 179 -10 215 -2 36 -7 130 -10 210 -3 80 -8 174 -10 210 -2 36 -7 126
-10 200 -3 74 -7 169 -10 210 -2 41 -7 143 -10 225 -3 83 -8 177 -10 210 -3
33 -7 123 -10 200 -3 77 -8 176 -10 220 -3 44 -7 134 -10 200 -6 141 -14 298
-20 410 -2 44 -7 145 -10 225 -3 80 -8 174 -10 210 -9 141 -17 380 -13 380 2
0 47 -55 99 -122 174 -227 431 -467 671 -628 112 -76 104 -54 113 -290 3 -85
8 -177 10 -205 2 -27 7 -113 10 -190 3 -77 8 -174 10 -215 2 -41 7 -131 10
-200 3 -69 7 -159 10 -200 2 -41 7 -131 10 -200 3 -69 8 -159 10 -200 2 -41 7
-131 10 -200 3 -69 8 -163 10 -210 3 -47 10 -177 15 -290 5 -113 12 -248 15
-300 2 -52 7 -147 10 -210 3 -63 8 -153 10 -200 3 -47 7 -139 10 -205 3 -66 8
-158 10 -205 3 -47 7 -134 10 -195 3 -60 7 -154 10 -207 3 -54 7 -143 10 -198
3 -55 7 -145 10 -200 3 -55 7 -146 10 -202 10 -202 15 -295 20 -408 3 -63 8
-151 10 -195 3 -44 9 -181 15 -305 6 -124 12 -259 15 -300 2 -41 7 -136 10
-210 3 -74 8 -166 10 -205 2 -38 7 -124 10 -190 7 -159 15 -312 20 -410 5 -86
11 -217 20 -410 3 -66 8 -154 10 -195 2 -41 7 -127 10 -190 3 -63 7 -158 10
-210 7 -147 14 -284 20 -410 5 -108 9 -172 20 -380 2 -47 7 -139 10 -205 10
-230 35 -731 40 -815 2 -47 7 -141 10 -210 3 -69 8 -159 10 -200 3 -41 7 -133
10 -205 3 -71 8 -168 10 -215 11 -191 15 -270 20 -380 5 -118 11 -234 20 -400
2 -52 7 -147 10 -210 3 -63 7 -153 10 -200 6 -113 13 -257 20 -410 3 -69 8
-154 10 -190 2 -36 7 -126 10 -200 3 -74 8 -169 10 -210 3 -41 7 -129 10 -195
3 -66 8 -156 10 -200 2 -44 7 -138 10 -210 15 -341 40 -464 134 -655 160 -322
436 -543 805 -643 l81 -22 7299 -5 7299 -5 23 -105 c193 -862 860 -1562 1714
-1796 261 -72 329 -79 765 -79 429 0 454 3 720 70 465 117 904 390 1221 758
269 313 458 696 538 1090 51 252 51 255 51 1595 0 1229 0 1254 -19 1268 -16
11 -76 14 -313 14 -161 0 -293 3 -293 6 0 3 47 88 104 187 230 403 495 905
606 1147 186 406 330 843 424 1285 53 247 80 436 121 835 3 30 8 220 12 422 5
323 -4 631 -22 798 -3 19 -9 85 -15 145 -58 595 -178 1218 -445 2315 -173 709
-242 1022 -285 1296 -26 165 -41 204 -97 253 -90 80 -232 75 -309 -11 -38 -40
-59 -94 -188 -478 -276 -816 -471 -1483 -625 -2141 -67 -285 -151 -696 -176
-867 -10 -61 -20 -112 -24 -112 -4 0 -31 73 -60 163 -79 239 -179 490 -313
782 -140 305 -246 567 -322 796 -401 1213 -454 2496 -155 3739 101 421 158
583 569 1610 186 465 341 862 345 883 11 57 -11 130 -56 180 -73 84 -182 108
-275 60 -27 -13 -191 -186 -517 -544 -263 -288 -529 -585 -592 -659 -336 -397
-639 -834 -883 -1274 l-60 -108 -6 83 c-5 74 -26 480 -41 804 -3 61 -7 148
-10 195 -3 47 -7 137 -10 200 -3 63 -7 153 -10 200 -3 47 -7 137 -10 200 -14
293 -16 340 -20 410 -3 41 -7 136 -10 210 -3 74 -8 160 -10 190 -2 30 -7 120
-10 200 -3 80 -8 170 -10 200 -2 30 -7 120 -10 200 -3 80 -8 174 -10 210 -3
36 -7 121 -10 190 -6 147 -13 292 -20 410 -2 47 -7 137 -10 200 -6 124 -13
265 -20 400 -3 47 -7 137 -10 200 -21 438 -25 531 -30 605 -2 39 -7 133 -10
210 -3 77 -8 165 -10 195 -2 30 -7 129 -11 220 -3 91 -8 172 -9 180 -2 8 -6
103 -9 210 -4 107 -9 206 -12 220 -4 22 8 34 106 103 61 43 177 131 259 197
1321 1060 2166 2566 2375 4230 14 107 28 238 31 290 4 52 9 106 11 120 9 47
12 645 4 773 -9 145 -18 265 -25 317 -2 19 -7 58 -10 85 -67 574 -212 1145
-410 1620 -136 324 -138 332 -138 420 0 65 9 109 46 235 25 85 52 189 61 230
28 139 65 364 81 485 16 128 37 466 31 487 -3 7 -7 86 -10 175 -14 377 -77
633 -217 879 -59 102 -152 202 -227 242 -89 47 -183 60 -292 38 -218 -44 -395
-184 -504 -395 -126 -245 -157 -542 -102 -965 38 -292 34 -451 -16 -549 -47
-93 -100 -64 -242 131 -68 95 -215 240 -301 299 -129 87 -276 145 -350 137
-41 -4 -79 -49 -70 -82 3 -14 29 -50 56 -80 101 -110 189 -253 445 -716 87
-159 176 -308 197 -331 39 -46 129 -109 235 -166 l64 -34 -6 -170 c-43 -1135
-484 -2193 -1251 -2996 l-73 -76 -6 106 c-4 58 -9 138 -11 176 -2 39 -7 133
-10 210 -3 77 -8 167 -10 200 -2 33 -7 121 -10 195 -3 74 -8 167 -10 205 -2
39 -7 124 -10 190 -3 66 -7 161 -10 210 -6 113 -13 268 -20 410 -3 61 -7 146
-10 190 -3 44 -7 139 -10 210 -3 72 -7 166 -10 210 -3 44 -7 130 -10 190 -3
61 -7 151 -10 200 -2 50 -7 149 -10 220 -3 72 -8 153 -10 180 -2 28 -7 122
-10 210 -3 88 -8 185 -10 215 -3 30 -7 114 -10 185 -3 72 -8 164 -10 205 -3
41 -7 127 -10 190 -3 63 -12 250 -20 415 -8 165 -17 350 -20 410 -3 61 -8 148
-10 195 -2 47 -7 141 -10 210 -3 69 -8 154 -10 190 -2 36 -7 121 -10 190 -3
69 -8 163 -10 210 -3 47 -7 139 -10 205 -3 66 -8 158 -10 205 -3 47 -7 137
-10 200 -6 130 -13 265 -20 390 -2 47 -7 139 -10 205 -3 66 -7 158 -10 205 -2
47 -7 139 -10 205 -16 336 -26 478 -40 544 -91 434 -405 783 -823 915 -187 59
-27 56 -3148 56 l-2859 0 76 34 c152 66 295 179 398 316 33 44 135 205 228
360 l168 280 2755 -1 c2904 0 2830 1 2987 -44 333 -94 605 -317 761 -623 108
-211 134 -344 147 -757 3 -93 7 -199 10 -235 2 -36 7 -150 10 -255 3 -104 8
-217 10 -250 2 -33 7 -141 10 -240 3 -99 8 -216 10 -260 2 -44 7 -152 10 -240
3 -88 8 -200 10 -250 3 -49 7 -157 10 -240 3 -82 7 -197 10 -255 2 -58 7 -168
10 -245 14 -370 17 -410 33 -427 20 -23 37 -23 62 2 17 17 20 30 16 68 -3 26
-8 133 -11 237 -3 105 -8 224 -10 265 -2 41 -7 152 -10 245 -3 94 -7 208 -10
255 -3 47 -7 150 -10 230 -5 137 -8 217 -20 497 -3 65 -7 177 -10 248 -3 72
-7 180 -10 240 -3 61 -7 173 -10 250 -3 77 -7 185 -10 240 -3 55 -7 172 -10
260 -12 326 -55 499 -177 712 -224 390 -599 626 -1052 663 -148 12 -16400 11
-16576 0z m5666 -342 c230 -368 248 -394 348 -493 102 -101 187 -160 303 -211
l78 -34 -2800 -1 c-1540 0 -2807 -2 -2815 -3 -8 -2 -42 -6 -76 -10 -104 -11
-244 -54 -359 -110 -341 -164 -588 -485 -660 -858 -20 -101 -25 -252 -15 -413
4 -66 11 -194 14 -285 4 -91 9 -185 11 -210 2 -25 7 -115 10 -200 3 -85 8
-175 10 -200 2 -25 7 -110 10 -190 3 -80 7 -179 10 -220 3 -41 7 -127 10 -190
5 -111 10 -214 20 -405 4 -86 8 -170 20 -410 3 -60 7 -148 10 -195 5 -88 11
-216 20 -405 3 -60 7 -148 10 -195 2 -47 7 -137 10 -200 5 -112 10 -207 20
-407 3 -54 7 -150 10 -213 3 -63 7 -149 10 -190 2 -41 7 -133 10 -205 3 -71 8
-164 10 -205 3 -41 7 -127 10 -190 13 -287 16 -339 20 -400 2 -36 7 -130 10
-210 3 -80 8 -174 10 -210 3 -36 7 -126 10 -200 3 -74 8 -160 10 -190 2 -30 7
-120 10 -200 3 -80 8 -170 10 -200 2 -30 7 -127 10 -215 3 -88 8 -180 10 -205
2 -25 7 -112 10 -195 3 -82 8 -175 10 -205 2 -30 7 -122 10 -205 3 -82 8 -175
10 -205 3 -30 7 -116 10 -190 3 -74 8 -164 10 -200 2 -36 7 -128 10 -205 3
-77 8 -169 10 -205 3 -36 7 -123 10 -195 3 -71 8 -161 10 -200 2 -38 7 -128
10 -200 3 -71 7 -161 10 -200 2 -38 7 -133 10 -210 3 -77 8 -169 10 -205 3
-36 7 -123 10 -195 3 -71 8 -157 10 -190 2 -33 7 -132 10 -220 3 -88 8 -176
10 -195 2 -19 7 -107 10 -195 3 -88 8 -180 10 -205 2 -25 7 -121 10 -215 3
-93 8 -181 10 -195 2 -14 7 -110 11 -215 3 -104 8 -192 9 -195 2 -3 6 -88 10
-190 4 -102 9 -193 11 -203 2 -10 4 -60 5 -111 l1 -92 -90 -135 c-249 -369
-463 -778 -628 -1199 -18 -47 -34 -76 -35 -65 -1 11 -3 31 -4 45 -2 14 -6 93
-9 175 -3 83 -8 182 -11 220 -2 39 -7 140 -10 225 -4 85 -8 178 -10 205 -2 28
-6 120 -10 205 -3 85 -8 178 -10 205 -2 28 -7 122 -10 210 -3 88 -8 192 -10
230 -2 39 -7 124 -10 190 -3 66 -7 161 -10 210 -3 50 -7 151 -10 225 -3 74 -8
167 -10 205 -2 39 -7 129 -10 200 -3 72 -10 207 -15 300 -7 146 -6 172 7 187
13 15 15 44 9 200 -4 101 -9 203 -11 228 -2 25 -7 117 -10 205 -3 88 -8 192
-10 230 -2 39 -7 133 -10 210 -3 77 -8 181 -10 230 -3 50 -7 149 -10 220 -3
72 -7 166 -10 210 -3 44 -7 139 -10 210 -3 72 -8 175 -10 230 -3 55 -7 159
-10 230 -3 72 -8 164 -10 205 -2 41 -7 138 -10 215 -3 77 -8 174 -10 215 -2
41 -7 140 -10 220 -3 80 -8 174 -10 210 -2 36 -7 133 -10 215 -3 83 -8 184
-10 225 -2 41 -7 143 -10 225 -3 83 -8 179 -10 215 -2 36 -7 130 -10 210 -3
80 -7 179 -10 220 -3 41 -7 140 -10 220 -3 80 -8 174 -10 210 -2 36 -7 137
-10 225 -3 88 -8 189 -10 225 -3 36 -7 128 -10 205 -3 77 -8 176 -10 220 -2
44 -7 145 -10 225 -3 80 -10 224 -15 320 -5 96 -12 240 -15 320 -3 80 -8 181
-10 225 -2 44 -7 141 -10 215 -3 74 -7 171 -10 215 -2 44 -7 145 -10 225 -3
80 -8 177 -10 215 -2 39 -7 135 -10 215 -3 80 -8 177 -10 215 -3 39 -9 187
-15 330 -6 143 -12 292 -15 330 -2 39 -7 135 -10 215 -3 80 -8 177 -10 215 -2
39 -7 138 -10 220 -3 83 -8 186 -10 230 -2 44 -7 143 -10 220 -3 77 -8 172
-10 210 -2 39 -7 140 -10 225 -3 85 -8 178 -10 205 -10 124 -20 437 -19 620 0
175 3 211 23 290 24 93 66 205 103 278 82 163 255 357 411 460 149 100 352
177 517 196 41 5 1313 9 2827 10 l2751 1 158 -252z m10456 -870 c336 -93 618
-338 744 -649 67 -164 82 -262 99 -644 3 -71 8 -161 10 -200 3 -38 7 -128 10
-200 3 -71 8 -166 10 -210 3 -44 7 -132 10 -195 3 -63 7 -151 10 -195 2 -44 7
-136 10 -205 3 -69 7 -161 10 -205 5 -92 11 -211 25 -515 5 -118 12 -249 15
-290 2 -41 7 -133 10 -205 3 -71 7 -164 10 -205 2 -41 7 -133 10 -205 3 -71 8
-159 10 -195 2 -36 7 -123 10 -195 3 -71 7 -159 10 -195 2 -36 7 -128 10 -205
3 -77 8 -167 10 -200 3 -33 7 -127 10 -210 3 -82 8 -181 10 -220 4 -65 7 -126
20 -395 3 -58 7 -141 10 -185 2 -44 7 -138 10 -210 3 -71 7 -166 10 -210 5
-80 10 -186 20 -410 3 -66 7 -149 10 -185 2 -36 7 -123 10 -195 3 -71 8 -168
10 -215 10 -180 22 -431 30 -610 3 -69 8 -154 10 -190 2 -36 7 -126 10 -200 3
-74 8 -169 10 -210 3 -41 7 -131 10 -200 3 -69 8 -154 11 -190 l5 -66 -83 -80
c-399 -382 -1067 -819 -1579 -1032 l-97 -40 -116 161 c-491 686 -1093 1298
-1781 1812 -591 443 -1220 794 -1916 1070 -421 168 -985 336 -1374 411 -49 9
-96 20 -103 23 -9 5 -2 19 23 48 19 23 35 51 35 64 0 12 -47 126 -104 253
-278 621 -328 738 -320 745 5 4 61 17 124 30 211 41 310 82 431 179 173 137
342 392 423 637 75 228 74 481 -1 659 -129 308 -475 519 -890 543 -182 10
-282 -13 -518 -121 -134 -61 -235 -86 -370 -90 -141 -5 -239 12 -363 65 -54
22 -134 56 -179 75 -127 53 -196 66 -403 71 -609 16 -1028 -191 -1145 -567
-14 -43 -19 -114 -25 -330 -5 -166 -13 -291 -20 -315 -53 -174 -158 -322 -297
-422 -35 -24 -133 -76 -218 -113 -182 -81 -221 -106 -308 -200 -266 -287 -281
-839 -37 -1366 22 -47 40 -88 40 -92 0 -4 -82 -36 -183 -71 -1155 -404 -2195
-1052 -3076 -1916 -1038 -1018 -1793 -2287 -2181 -3661 -28 -102 -29 -102
-130 -220 -57 -66 -134 -159 -172 -209 -38 -49 -73 -91 -78 -93 -4 -1 -10 71
-14 160 -4 90 -9 195 -11 233 -2 39 -7 129 -10 200 -3 72 -8 162 -10 200 -2
39 -7 133 -10 210 -3 77 -8 160 -10 185 -2 25 -7 113 -10 195 -3 83 -8 173
-10 200 -2 28 -7 113 -10 190 -3 77 -8 181 -10 230 -5 97 -22 420 -30 600 -3
61 -8 148 -10 195 -3 47 -7 139 -10 205 -6 128 -12 255 -20 400 -3 50 -10 189
-15 310 -6 121 -12 254 -15 295 -2 41 -7 134 -10 205 -3 72 -8 162 -10 200 -3
39 -7 129 -10 200 -3 72 -8 164 -10 205 -2 41 -7 131 -10 200 -3 69 -8 159
-10 200 -2 41 -7 136 -10 210 -3 74 -8 160 -10 190 -2 30 -7 123 -10 205 -3
83 -8 179 -10 215 -3 36 -7 119 -10 185 -5 122 -12 252 -20 405 -3 47 -7 137
-10 200 -3 63 -7 153 -10 200 -3 47 -7 137 -10 200 -6 131 -13 276 -20 400 -3
47 -7 144 -10 215 -3 72 -8 164 -10 205 -3 41 -7 129 -10 195 -3 66 -8 158
-10 205 -3 47 -7 137 -10 200 -3 63 -7 153 -10 200 -2 47 -7 135 -10 195 -3
61 -12 241 -20 400 -8 160 -17 346 -20 415 -3 69 -8 157 -10 195 -3 39 -7 133
-10 210 -3 77 -8 165 -10 195 -2 30 -7 118 -10 195 -3 77 -10 217 -15 310 -9
171 -15 285 -25 515 -3 69 -8 152 -10 185 -14 190 -27 572 -22 650 20 336 214
660 512 854 120 78 299 145 440 164 17 2 3468 4 7670 3 l7640 -1 97 -27z
m3487 -3253 c79 -43 158 -136 223 -262 143 -277 184 -503 182 -1018 0 -234 -9
-333 -61 -645 -34 -208 -65 -343 -119 -520 -35 -115 -43 -256 -19 -331 10 -30
63 -164 118 -299 116 -285 138 -348 212 -606 107 -371 174 -726 220 -1154 15
-138 20 -300 20 -595 0 -443 -11 -610 -65 -982 -85 -583 -275 -1205 -534
-1755 -43 -93 -59 -118 -75 -118 -11 0 -69 9 -128 21 -486 92 -930 289 -1334
590 -334 249 -670 598 -922 957 -108 153 -237 358 -236 374 0 7 37 42 82 78
119 96 488 466 607 610 654 791 1017 1697 1085 2710 9 134 14 338 8 358 -3 12
-50 44 -119 82 -185 102 -208 129 -375 435 -220 404 -351 619 -430 710 -40 45
-24 44 76 -5 167 -83 304 -207 442 -400 74 -102 134 -156 188 -166 119 -22
196 67 226 259 15 91 6 268 -22 447 -24 155 -32 415 -17 535 33 264 132 468
291 596 155 125 349 163 476 94z m-9694 -2720 c100 -225 222 -497 269 -603
l86 -193 -105 -125 -104 -125 7 -67 c9 -89 9 -344 0 -457 -27 -340 -137 -576
-289 -619 -30 -9 -139 -32 -244 -52 -330 -63 -521 -58 -717 17 -145 56 -311
185 -394 305 -30 44 -43 54 -66 54 -20 0 -32 -7 -39 -24 -16 -34 8 -73 109
-178 198 -205 419 -303 714 -315 l137 -6 5 -36 c23 -144 178 -1109 201 -1250
8 -46 20 -90 27 -96 7 -7 191 -65 408 -129 646 -192 620 -183 620 -212 0 -31
-28 -43 -246 -113 -575 -185 -1143 -271 -1784 -272 -627 0 -1202 78 -1911 260
-154 40 -172 47 -152 59 7 4 265 79 575 166 310 87 568 165 574 173 7 7 17 51
24 96 16 117 146 997 170 1152 11 72 45 299 75 505 30 206 67 448 80 538 32
206 33 202 -78 202 -218 1 -351 73 -426 234 -58 122 -79 290 -46 360 36 75
145 90 307 40 l91 -28 19 24 c11 14 16 30 12 39 -60 140 -94 294 -94 424 1
300 168 499 495 592 166 46 319 48 570 4 192 -33 370 -31 490 5 101 31 208 84
310 155 l70 48 33 -71 c19 -39 116 -255 217 -481z m492 -1036 c1251 -258 2449
-821 3451 -1622 439 -352 887 -794 1237 -1222 161 -196 405 -524 405 -544 0
-4 -62 -27 -137 -49 -366 -110 -656 -154 -1023 -156 -504 -3 -856 46 -1935
268 -819 168 -1080 216 -1539 281 -221 32 -241 36 -266 60 -23 22 -120 54
-521 174 l-494 147 -16 105 c-96 601 -181 1128 -189 1170 -6 29 -9 53 -7 55 1
1 79 16 172 34 205 37 276 55 328 82 95 48 192 195 237 358 45 163 53 243 56
544 l3 289 27 28 c15 16 36 29 45 29 10 0 85 -14 166 -31z m-4117 -281 c163
-234 383 -434 598 -542 93 -47 233 -94 329 -110 159 -28 370 -13 511 35 30 10
57 17 60 14 3 -2 0 -37 -6 -77 -7 -40 -37 -242 -67 -448 -30 -206 -62 -418
-70 -470 -14 -94 -33 -219 -96 -641 l-32 -215 -431 -122 c-455 -128 -461 -130
-681 -163 -687 -102 -1491 -344 -2385 -716 -151 -63 -317 -130 -368 -149 -242
-88 -637 -270 -917 -424 -665 -364 -1213 -767 -1727 -1269 -76 -74 -138 -132
-138 -128 0 3 25 84 56 179 524 1616 1533 3029 2894 4052 592 445 1246 810
1940 1084 104 41 466 170 481 171 3 1 26 -27 49 -61z m10820 -2533 c92 -147
264 -383 382 -523 108 -128 347 -371 473 -479 431 -372 897 -618 1411 -747 76
-19 174 -40 217 -47 43 -6 79 -15 82 -19 10 -15 -215 -399 -364 -620 -503
-749 -1173 -1395 -1931 -1862 -793 -488 -1667 -795 -2603 -913 -362 -45 -1006
-56 -1340 -21 -28 3 -79 8 -112 11 -51 5 -63 4 -76 -12 -27 -31 -152 -523
-218 -856 -74 -370 -124 -744 -150 -1122 -9 -126 -7 -845 2 -895 3 -14 8 -65
12 -115 28 -387 138 -912 272 -1297 65 -189 136 -362 283 -688 199 -444 237
-551 261 -732 43 -335 -151 -571 -542 -658 -204 -46 -294 -50 -929 -45 -327 3
-622 8 -655 11 -160 15 -1495 7 -1641 -10 -16 -2 -83 -7 -149 -11 -66 -3 -138
-8 -160 -10 -22 -2 -76 -7 -120 -10 -668 -50 -1607 -197 -2475 -389 -920 -203
-1253 -257 -1572 -257 -384 0 -629 90 -849 311 -70 70 -95 103 -127 171 -130
271 -221 808 -307 1809 -3 36 -8 86 -11 111 l-5 46 197 68 c440 150 864 352
1194 567 101 66 273 193 327 241 33 30 47 35 112 41 227 22 430 124 667 334
96 86 296 299 473 505 81 93 86 97 125 97 23 1 57 3 76 5 19 2 98 9 175 15 77
6 167 13 200 15 60 5 396 30 535 40 41 3 95 8 120 10 25 2 86 7 135 11 132 9
178 32 217 108 20 38 20 52 14 375 -4 185 -9 374 -11 421 -2 47 -7 220 -10
385 -6 289 -18 778 -31 1240 -7 243 -16 284 -75 326 -51 36 -85 40 -224 29
-143 -11 -1123 -86 -1250 -95 -44 -4 -96 -8 -115 -10 -19 -2 -71 -7 -115 -10
-119 -10 -157 -31 -196 -107 -22 -43 -23 -97 -5 -216 l12 -84 -25 6 c-14 3
-72 13 -128 22 -287 44 -499 -66 -574 -298 -34 -106 -32 -283 5 -420 56 -210
170 -438 319 -640 l19 -26 -113 -135 c-63 -74 -224 -265 -359 -425 l-245 -289
-190 -52 c-514 -139 -939 -211 -1245 -211 l-107 0 -6 758 c-3 416 -8 777 -11
802 -2 25 -8 104 -11 175 -16 308 -40 413 -114 497 -67 76 -185 128 -291 128
-162 0 -509 -204 -681 -401 -260 -297 -416 -713 -493 -1318 -16 -120 -15 -125
3 -157 l19 -32 -58 5 c-109 10 -282 -28 -400 -87 -74 -37 -186 -126 -239 -190
-127 -153 -319 -457 -451 -715 -177 -348 -352 -834 -446 -1245 -10 -41 -19
-77 -20 -78 -6 -9 -224 112 -339 189 -165 110 -288 214 -440 370 -151 155
-226 247 -340 419 -262 393 -423 813 -492 1285 -28 194 -24 734 7 1045 115
1121 510 2136 1177 3025 436 579 997 1108 1653 1556 474 324 1086 645 1600
839 69 26 222 88 341 138 803 335 1591 582 2194 686 118 21 115 21 115 -14 0
-18 11 -41 28 -61 25 -28 46 -35 242 -84 711 -176 1192 -243 1805 -250 442 -6
670 11 1074 76 314 51 564 113 874 216 155 51 204 72 227 95 17 16 30 36 30
44 0 18 -13 19 233 -16 431 -62 793 -130 1712 -318 599 -123 923 -178 1220
-207 33 -3 101 -10 150 -15 144 -14 700 -4 835 14 462 65 854 192 1285 415
270 140 566 325 820 513 99 73 122 86 130 74 5 -9 48 -77 95 -151z m499 -4480
c6 -110 13 -240 16 -290 3 -49 7 -142 10 -205 3 -63 7 -151 10 -195 2 -44 7
-134 10 -200 3 -66 8 -160 10 -210 6 -110 14 -266 20 -402 13 -272 16 -324 20
-398 3 -44 7 -138 10 -210 3 -71 8 -159 10 -195 3 -36 7 -130 10 -210 3 -80 8
-167 10 -195 2 -27 7 -117 10 -200 3 -82 8 -175 10 -205 3 -30 7 -122 10 -205
3 -82 8 -172 10 -200 2 -27 7 -122 10 -210 3 -88 7 -182 10 -210 2 -27 7 -108
10 -180 3 -71 7 -166 10 -210 3 -44 7 -129 10 -190 7 -141 14 -296 20 -410 6
-117 14 -286 20 -405 12 -254 16 -330 20 -390 2 -36 7 -130 10 -210 3 -80 8
-170 10 -200 2 -30 7 -118 10 -195 l7 -140 -85 -175 c-708 -1459 -960 -3184
-702 -4798 79 -492 160 -812 379 -1500 70 -216 126 -395 126 -399 0 -3 -42 35
-94 85 -181 173 -405 337 -641 471 -280 159 -439 219 -1089 416 -546 165 -583
173 -659 142 -50 -21 -99 -69 -127 -124 -33 -64 -35 -169 -3 -228 28 -53 30
-54 393 -336 329 -255 479 -390 612 -549 285 -340 484 -792 542 -1230 9 -63
20 -203 26 -310 18 -354 69 -601 181 -882 78 -196 115 -263 454 -818 92 -151
170 -281 172 -288 4 -9 -54 -12 -270 -12 -158 0 -287 -4 -302 -10 l-26 -10 4
-1322 c2 -728 7 -1335 11 -1351 l8 -27 -7218 0 c-4727 1 -7247 4 -7299 11
-256 32 -478 139 -656 318 -130 130 -208 254 -268 425 -40 112 -58 224 -66
396 -3 74 -8 160 -10 190 -2 30 -7 125 -10 210 -3 85 -8 180 -10 210 -2 30 -7
118 -10 195 -3 77 -8 169 -10 205 -2 36 -7 121 -10 190 -8 196 -25 528 -30
610 -2 41 -7 131 -10 200 -3 69 -7 163 -10 210 -5 84 -10 190 -20 410 -3 63
-7 151 -10 195 -2 44 -7 136 -10 205 -3 69 -7 159 -10 200 -3 41 -7 131 -10
200 -3 69 -7 157 -10 195 -2 39 -7 133 -10 210 -3 77 -8 169 -10 205 -2 36 -7
121 -10 190 -3 69 -8 163 -10 210 -2 47 -7 137 -10 200 -3 63 -7 153 -10 200
-3 47 -7 137 -10 200 -3 63 -7 156 -10 205 -3 50 -7 144 -10 210 -3 66 -8 154
-10 195 -3 41 -10 170 -15 285 -5 116 -12 251 -15 300 -2 50 -7 149 -10 220
-3 72 -8 164 -10 205 -3 41 -7 127 -10 190 -12 260 -25 530 -30 610 -2 47 -7
137 -10 200 -10 210 -23 466 -30 600 -2 47 -7 139 -10 205 -3 66 -7 158 -10
205 -2 47 -7 135 -10 195 -3 61 -7 154 -10 208 -3 53 -7 141 -10 195 -3 53 -7
147 -10 207 -5 109 -11 230 -20 395 -2 47 -7 141 -10 210 -3 69 -8 159 -10
200 -3 41 -7 131 -10 200 -3 69 -8 163 -10 210 -7 123 -14 269 -20 400 -3 63
-8 149 -10 190 -3 41 -7 131 -10 200 -3 69 -7 159 -10 200 -2 41 -7 134 -10
205 -6 142 -13 288 -20 405 -3 41 -7 134 -10 205 -3 72 -8 159 -10 195 -2 36
-7 133 -10 215 -3 83 -8 171 -11 198 -3 26 -3 47 1 47 3 0 51 -22 108 -49 175
-84 257 -114 302 -108 24 4 97 -5 185 -23 226 -44 530 -79 690 -80 89 0 100
-5 139 -58 270 -366 737 -873 1106 -1201 847 -752 1804 -1311 2865 -1672 609
-208 1280 -350 1905 -403 99 -9 205 -18 235 -21 96 -10 819 -13 960 -5 135 9
167 11 380 30 600 54 1338 217 1929 427 1019 361 1934 899 2746 1612 162 142
509 485 660 651 908 1002 1556 2200 1890 3495 130 504 199 925 246 1505 15
173 18 825 6 1051 l-7 146 107 58 c109 59 350 203 419 250 20 14 38 24 40 23
1 -2 7 -93 13 -203z m-668 -247 c0 -35 2 -70 3 -78 11 -55 15 -513 7 -695 -15
-327 -17 -353 -46 -630 -75 -713 -260 -1451 -534 -2137 -516 -1292 -1380
-2463 -2461 -3338 -120 -98 -401 -310 -410 -310 -3 0 -17 69 -31 154 l-25 154
52 31 c120 72 202 162 259 286 42 89 57 164 56 274 -1 204 -56 372 -294 896
-171 379 -256 601 -336 878 -108 379 -171 746 -206 1205 -8 101 -9 714 -1 774
3 23 8 90 11 148 18 321 102 869 196 1275 30 130 129 517 134 523 1 2 49 -2
106 -8 319 -32 825 -32 1174 0 752 70 1466 262 2140 574 99 46 186 84 193 85
8 1 12 -18 13 -61z m-10296 -913 c39 -10 73 -21 77 -24 7 -6 131 -972 125
-977 -1 -1 -87 -29 -191 -63 -164 -52 -194 -65 -226 -96 l-37 -36 -62 93 c-76
115 -182 326 -216 433 -115 356 -40 613 198 680 67 19 237 14 332 -10z m-2880
-149 c55 -25 119 -90 141 -142 8 -18 18 -75 24 -126 29 -280 35 -496 44 -1535
l3 -433 -46 0 c-82 0 -313 30 -431 56 -233 52 -472 146 -655 258 -38 23 -90
54 -115 69 -49 28 -160 119 -172 141 -17 30 42 396 97 611 127 495 335 801
689 1011 139 83 221 114 301 114 52 0 83 -6 120 -24z m4300 -649 c139 -70 184
-187 156 -400 -41 -304 -149 -444 -479 -621 -70 -38 -165 -94 -212 -124 -94
-62 -252 -215 -375 -362 -146 -175 -391 -444 -492 -541 -131 -125 -243 -210
-357 -270 -124 -65 -204 -89 -314 -96 l-93 -6 -107 -86 c-133 -107 -207 -160
-347 -248 -624 -392 -1486 -694 -2330 -817 -334 -48 -490 -60 -835 -60 -286
-1 -582 8 -599 18 -3 2 -33 6 -66 10 -224 23 -645 113 -645 137 0 6 14 65 31
132 164 657 387 1172 722 1672 128 190 228 293 344 353 237 123 487 110 713
-37 103 -67 314 -166 445 -210 267 -88 499 -123 825 -125 390 -2 665 32 1115
139 142 33 475 125 497 136 9 5 205 231 434 502 l417 492 361 116 c199 63 417
139 486 168 296 126 427 162 565 157 73 -2 100 -8 140 -29z m12176 -1842 c39
-20 69 -71 69 -115 0 -22 -125 -348 -349 -910 -347 -870 -429 -1094 -516
-1410 -301 -1094 -319 -2305 -50 -3417 115 -476 246 -847 468 -1328 194 -421
306 -717 411 -1087 138 -484 219 -965 251 -1488 7 -125 8 -613 0 -721 -15
-221 -30 -364 -76 -734 -117 -934 -160 -1282 -164 -1310 -11 -75 -85 -662 -85
-673 0 -9 -94 -12 -413 -12 l-413 0 -21 58 c-86 233 -997 2544 -1043 2644
-103 226 -263 486 -416 678 -41 52 -79 102 -84 110 -10 19 -307 953 -354 1115
-162 555 -274 1216 -303 1797 -14 278 -7 930 11 1048 3 14 7 61 10 105 11 130
35 328 62 505 223 1450 839 2818 1771 3930 172 205 1066 1190 1101 1212 33 22
93 23 133 3z m-16158 -1687 c103 -1183 205 -1737 364 -1987 76 -120 236 -253
400 -335 180 -90 366 -126 636 -123 l168 2 -7 -205 c-4 -113 -8 -207 -10 -209
-5 -6 -244 99 -442 195 -1048 506 -1961 1214 -2721 2109 -122 143 -273 336
-268 341 2 3 78 7 168 9 518 17 1142 112 1594 244 55 16 103 30 106 30 3 1 9
-32 12 -71z m17496 -2882 c47 -25 61 -59 86 -214 51 -307 108 -571 280 -1277
68 -280 131 -541 140 -580 327 -1411 415 -2364 309 -3350 -59 -547 -217 -1144
-449 -1695 -117 -278 -430 -874 -720 -1375 l-81 -140 -422 -3 -422 -2 0 27 c0
16 14 134 30 263 17 129 57 447 90 705 32 259 82 648 109 865 59 463 78 642
89 823 9 172 9 646 -1 812 -23 390 -84 808 -173 1175 -42 170 -42 173 11 485
155 910 429 1933 832 3105 108 317 122 349 160 372 34 21 95 23 132 4z m-5853
-4070 c230 -70 482 -148 559 -173 672 -221 1243 -647 1652 -1233 207 -296 265
-424 714 -1570 209 -536 434 -1112 500 -1279 65 -167 119 -305 119 -307 0 -2
-389 -4 -865 -4 l-865 0 -14 23 c-199 319 -505 831 -552 923 -163 321 -244
632 -265 1019 -5 105 -16 246 -25 315 -62 512 -271 981 -612 1373 -129 149
-227 235 -582 512 -179 139 -336 264 -349 278 -25 27 -38 96 -27 141 8 34 54
86 91 102 16 8 46 12 66 10 19 -2 224 -61 455 -130z m6061 -5923 c-3 -1143 -5
-1268 -21 -1368 -122 -761 -587 -1401 -1265 -1740 -252 -126 -544 -209 -811
-233 -139 -12 -635 -8 -735 6 -522 73 -967 285 -1333 636 -310 297 -546 710
-646 1132 -61 257 -59 215 -63 1577 l-4 1247 2441 0 2441 0 -4 -1257z"/>
<path d="M3747 36454 c-467 -84 -832 -469 -913 -963 -13 -77 -15 -139 -10
-312 4 -119 9 -229 10 -245 2 -16 7 -103 10 -194 4 -91 9 -192 11 -225 2 -33
7 -125 10 -205 3 -80 8 -181 10 -225 7 -120 14 -266 25 -515 11 -238 17 -378
25 -525 3 -49 7 -148 10 -220 3 -71 10 -213 15 -315 5 -102 12 -248 15 -325 3
-77 8 -167 10 -200 2 -33 7 -123 10 -200 3 -77 7 -180 10 -230 3 -49 7 -137
10 -195 14 -314 17 -345 33 -362 18 -22 32 -22 57 -4 16 12 18 26 16 142 -1
70 -4 130 -5 133 -2 3 -6 80 -10 171 -6 154 -20 441 -31 660 -2 52 -7 151 -10
220 -3 69 -7 163 -10 210 -2 47 -7 141 -10 210 -3 69 -7 163 -10 210 -3 47 -7
144 -10 215 -3 72 -10 216 -15 320 -5 105 -12 242 -15 305 -3 63 -8 153 -10
200 -3 47 -7 148 -10 225 -3 77 -7 172 -10 210 -2 39 -7 138 -10 220 -3 83 -8
173 -10 200 -9 118 -20 407 -18 495 9 349 192 681 480 873 66 44 179 98 248
119 134 40 -195 38 7198 38 6170 0 7041 -2 7102 -15 306 -65 557 -261 701
-547 90 -178 119 -310 129 -583 3 -93 8 -192 10 -220 2 -27 7 -120 10 -205 3
-85 8 -182 10 -215 2 -33 7 -125 10 -205 6 -151 21 -489 30 -645 8 -155 15
-293 25 -525 5 -124 12 -265 15 -315 2 -49 7 -144 10 -210 3 -66 7 -160 10
-210 3 -49 7 -144 10 -210 3 -66 7 -166 10 -222 3 -57 7 -149 10 -205 13 -278
16 -330 20 -413 3 -49 7 -151 10 -225 3 -74 8 -175 10 -225 3 -49 10 -189 15
-310 6 -121 15 -308 20 -415 5 -107 12 -249 15 -315 9 -211 16 -275 32 -290
19 -20 38 -19 58 2 15 15 17 36 11 202 -4 102 -9 202 -11 221 -2 19 -7 103
-10 185 -3 83 -8 186 -10 230 -3 44 -7 132 -10 195 -3 63 -9 210 -15 325 -5
116 -12 262 -15 325 -3 63 -7 158 -10 210 -7 145 -14 293 -20 420 -13 292 -25
543 -30 625 -5 99 -22 448 -30 645 -3 69 -7 168 -10 220 -21 414 -24 487 -30
620 -3 69 -8 163 -10 210 -2 47 -7 141 -10 210 -3 69 -7 163 -10 210 -5 85
-10 198 -20 430 -15 340 -28 433 -80 580 -120 331 -373 588 -689 699 -188 66
445 61 -7270 60 -6004 -1 -7022 -3 -7089 -15z"/>
<path d="M3081 29943 c-5 -11 -5 -88 0 -193 4 -96 10 -236 14 -310 3 -74 8
-169 10 -210 3 -41 7 -131 10 -200 3 -69 8 -163 10 -210 3 -47 7 -141 10 -210
3 -69 7 -168 10 -220 3 -52 7 -147 10 -210 9 -195 15 -331 20 -420 3 -47 7
-141 10 -210 3 -69 7 -163 10 -210 3 -47 7 -152 10 -235 10 -244 17 -269 72
-249 28 10 28 10 28 104 -1 107 -15 462 -20 500 -2 14 -6 104 -10 200 -3 96
-8 200 -10 230 -2 30 -7 123 -10 205 -3 83 -8 179 -10 215 -2 36 -7 130 -10
210 -3 80 -8 170 -10 200 -2 30 -7 125 -10 210 -3 85 -8 184 -10 220 -2 36 -7
130 -10 210 -3 80 -8 177 -10 215 -2 39 -7 133 -11 210 -3 77 -10 148 -15 158
-6 10 -21 17 -39 17 -18 0 -33 -7 -39 -17z"/>
<path d="M14590 12170 c-562 -120 -906 -669 -766 -1223 122 -478 582 -798
1073 -746 224 24 419 116 585 277 212 205 320 474 304 758 -26 476 -352 850
-819 939 -106 20 -271 18 -377 -5z m423 -104 c153 -39 281 -111 401 -225 145
-140 235 -309 267 -505 16 -105 7 -290 -21 -385 -21 -74 -83 -208 -122 -265
-118 -170 -297 -299 -505 -363 -79 -24 -104 -26 -238 -26 -123 0 -165 4 -230
22 -265 72 -475 248 -590 495 -57 122 -76 198 -82 342 -11 250 68 467 236 646
90 96 171 155 283 207 190 89 397 109 601 57z"/>
<path d="M11975 12088 c-351 -24 -677 -255 -827 -586 -17 -37 -42 -110 -56
-162 -22 -82 -25 -115 -25 -245 0 -128 4 -164 25 -245 79 -297 275 -531 553
-661 146 -68 215 -83 410 -83 148 -1 181 2 255 22 353 97 624 368 717 721 22
82 26 117 26 246 0 130 -3 163 -25 245 -47 173 -123 312 -244 439 -212 225
-489 331 -809 309z m305 -118 c269 -69 481 -247 600 -504 51 -110 70 -191 77
-323 9 -169 -20 -311 -92 -453 -170 -337 -537 -535 -906 -490 -406 49 -725
354 -790 754 -14 93 -7 277 15 361 95 357 380 614 751 676 81 13 252 3 345
-21z"/>
<path d="M9180 12075 c-209 -47 -376 -140 -521 -292 -87 -91 -123 -141 -171
-238 -284 -569 21 -1246 639 -1417 108 -30 382 -32 488 -4 377 101 647 377
736 752 122 513 -202 1047 -718 1186 -103 27 -356 35 -453 13z m343 -90 c316
-55 583 -272 697 -567 123 -319 54 -682 -178 -929 -111 -118 -223 -193 -363
-244 -512 -184 -1072 133 -1184 671 -18 89 -21 261 -6 341 94 484 559 811
1034 728z"/>
<path d="M4109 8696 c-22 -11 -24 -17 -24 -86 1 -76 8 -246 25 -575 5 -99 12
-243 15 -320 3 -77 7 -174 10 -215 6 -106 14 -263 20 -415 3 -71 7 -173 10
-225 3 -52 7 -147 10 -210 3 -63 8 -153 10 -200 2 -47 7 -139 10 -205 14 -308
23 -501 30 -630 2 -49 7 -148 10 -220 3 -71 7 -170 10 -220 6 -114 18 -372 31
-645 3 -69 14 -169 25 -222 101 -507 497 -877 990 -928 64 -6 550 -10 1328
-10 1094 0 1229 2 1249 16 24 17 29 53 10 72 -9 9 -307 12 -1279 12 -837 0
-1294 4 -1346 11 -446 60 -818 456 -872 929 -5 47 -12 159 -16 250 -3 91 -7
194 -10 230 -3 36 -7 130 -10 210 -3 80 -8 170 -10 200 -2 30 -7 129 -10 220
-4 91 -8 181 -10 200 -2 19 -7 116 -10 215 -4 99 -8 191 -10 205 -2 14 -6 102
-9 195 -4 94 -8 204 -11 245 -2 41 -7 129 -10 195 -3 66 -8 161 -10 210 -3 50
-7 144 -10 210 -3 66 -10 212 -15 325 -5 113 -12 255 -15 315 -13 283 -16 354
-20 405 -2 30 -7 136 -10 235 -4 99 -9 188 -11 198 -8 27 -37 38 -65 23z"/>
<path d="M8922 3458 c-19 -19 -14 -56 10 -72 20 -15 459 -16 4483 -16 3546 0
4464 3 4477 13 24 19 28 43 12 66 l-15 21 -4478 0 c-3469 0 -4480 -3 -4489
-12z"/>
<path d="M21952 17778 c-123 -180 -373 -649 -507 -949 -354 -793 -598 -1680
-665 -2419 -6 -63 -13 -133 -16 -155 -13 -95 -12 -823 1 -975 34 -386 87 -701
190 -1113 70 -279 114 -431 312 -1072 287 -932 386 -1300 483 -1800 83 -424
147 -948 167 -1355 15 -309 8 -1062 -12 -1285 -25 -274 -27 -326 -15 -340 14
-17 65 -20 75 -6 8 14 23 147 31 276 3 61 8 124 10 140 20 169 23 947 4 1253
-12 209 -44 570 -60 677 -126 877 -225 1285 -605 2511 -349 1124 -450 1585
-494 2254 -9 130 -6 683 3 745 3 17 7 66 10 111 6 85 7 94 31 299 96 802 388
1736 798 2550 88 174 258 476 319 567 39 58 47 95 26 116 -25 25 -56 13 -86
-30z"/>
<path d="M19975 12686 c-14 -21 -12 -33 30 -172 91 -303 215 -615 360 -904
106 -212 174 -330 296 -510 105 -156 141 -200 164 -200 24 0 55 37 48 57 -4
10 -44 70 -89 133 -272 379 -527 919 -694 1474 -22 71 -45 133 -52 138 -23 14
-47 8 -63 -16z"/>
<path d="M23870 13215 c-8 -10 -10 -43 -6 -112 10 -167 15 -2032 6 -2323 -13
-447 -21 -662 -25 -720 -2 -30 -7 -120 -10 -200 -3 -80 -8 -167 -10 -195 -2
-27 -7 -93 -10 -145 -6 -101 -22 -329 -30 -420 -2 -30 -7 -86 -10 -125 -27
-321 -79 -758 -131 -1102 -15 -92 -15 -114 -5 -127 17 -20 55 -21 71 -1 23 27
113 686 145 1060 3 39 8 86 10 105 8 55 43 547 55 750 5 102 12 219 15 260 2
41 7 156 11 255 3 99 7 205 9 235 28 446 24 2747 -6 2802 -12 22 -61 24 -79 3z"/>
<path d="M18332 9898 c-28 -28 -14 -57 49 -95 398 -245 827 -630 1147 -1032
582 -731 921 -1631 957 -2541 10 -252 10 -250 54 -250 50 0 55 16 47 179 -41
943 -320 1760 -854 2501 -316 438 -781 887 -1206 1164 -134 88 -168 100 -194
74z"/>
<path d="M19801 4791 c-32 -9 -44 -43 -25 -70 l15 -21 2019 0 2019 0 15 22
c20 29 20 34 -4 58 -19 19 -41 20 -2017 19 -1099 -1 -2009 -4 -2022 -8z"/>
<path d="M27300 38024 c-522 -37 -796 -72 -1178 -154 -1182 -251 -2149 -801
-2747 -1560 -455 -577 -705 -1269 -774 -2140 -9 -114 -7 -747 2 -785 3 -11 6
-32 6 -47 1 -32 39 -62 65 -52 9 4 40 52 68 108 143 286 319 520 488 648 77
59 223 131 300 149 72 17 211 17 280 0 219 -53 429 -225 804 -656 548 -630
814 -886 1166 -1122 538 -361 1233 -589 1963 -645 124 -9 157 -15 157 -26 0
-27 51 -246 82 -352 291 -998 1106 -1724 2253 -2008 357 -89 552 -112 910
-107 143 2 278 6 300 10 22 3 87 13 145 21 270 40 514 104 1005 264 492 160
669 197 895 187 150 -6 260 -35 389 -102 362 -187 606 -592 731 -1215 17 -85
37 -158 43 -162 7 -4 22 -8 35 -8 55 0 345 510 511 898 180 421 321 933 371
1347 6 50 13 104 15 120 22 153 25 625 6 835 -84 929 -473 1812 -1121 2545
-644 727 -1496 1224 -2395 1395 -60 11 -113 26 -117 33 -4 7 -8 36 -8 66 0
193 -82 520 -184 737 -188 397 -541 760 -1021 1046 -687 410 -1610 665 -2635
727 -122 8 -721 11 -810 5z m728 -98 c318 -13 745 -65 1055 -127 1267 -254
2203 -816 2571 -1545 68 -135 99 -218 136 -360 33 -128 77 -434 64 -447 -2 -2
-30 0 -61 4 -105 14 -286 23 -453 23 -854 -3 -1631 -229 -2216 -645 -876 -623
-1357 -1719 -1254 -2858 6 -58 8 -106 6 -109 -6 -5 -248 16 -386 34 -556 74
-1096 254 -1501 500 -224 135 -395 264 -608 457 -154 140 -318 316 -624 667
-465 534 -661 697 -920 762 -119 30 -279 22 -398 -19 -233 -81 -425 -248 -617
-539 -48 -73 -97 -149 -109 -170 l-22 -39 -1 100 c-8 613 38 1017 165 1460 62
217 136 404 245 620 351 700 925 1242 1725 1631 903 438 2029 649 3203 600z
m3757 -2570 c477 -57 903 -187 1346 -412 409 -208 733 -446 1085 -798 375
-376 621 -719 854 -1191 225 -457 353 -887 416 -1390 26 -208 28 -685 4 -910
-58 -544 -193 -1035 -430 -1565 -104 -233 -335 -650 -351 -632 -3 4 -14 45
-24 92 -58 279 -172 567 -306 770 -76 116 -253 296 -359 365 -188 123 -391
178 -625 169 -202 -7 -380 -47 -785 -179 -768 -250 -1033 -304 -1497 -306
-408 -1 -713 50 -1133 191 -1151 384 -1850 1195 -2006 2326 -19 141 -27 513
-13 664 38 429 172 874 374 1243 507 924 1427 1468 2660 1572 193 16 618 11
790 -9z"/>
<path d="M25238 35549 c-22 -12 -23 -52 -2 -73 14 -14 243 -16 2312 -16 1830
0 2302 3 2322 13 30 15 37 48 15 71 -15 15 -207 16 -2323 16 -1549 -1 -2313
-4 -2324 -11z"/>
<path d="M26292 34738 c-7 -7 -12 -21 -12 -33 0 -12 5 -26 12 -33 17 -17 2359
-17 2376 0 7 7 12 21 12 33 0 12 -5 26 -12 33 -17 17 -2359 17 -2376 0z"/>
<path d="M29482 32728 c-7 -7 -12 -21 -12 -33 0 -12 5 -26 12 -33 9 -9 510
-12 2195 -12 l2183 0 11 24 c8 17 8 29 0 45 l-12 21 -2182 0 c-1685 0 -2186
-3 -2195 -12z"/>
<path d="M30861 32166 c-7 -8 -11 -27 -9 -42 2 -21 10 -30 32 -35 38 -10 1509
-11 1556 -1 29 6 36 13 38 35 7 60 52 57 -813 57 -677 0 -794 -2 -804 -14z"/>
<path d="M24287 27129 c-41 -11 -68 -33 -89 -73 -17 -33 -19 -51 -14 -120 3
-44 9 -143 12 -218 6 -136 6 -138 -15 -138 -13 0 -53 -30 -101 -77 -182 -173
-223 -386 -129 -678 37 -118 150 -342 249 -493 l73 -114 7 -109 c6 -116 16
-140 72 -182 22 -16 48 -20 188 -24 l162 -4 59 -42 c32 -23 97 -69 146 -102
48 -33 117 -89 153 -124 l65 -64 -62 -28 c-56 -25 -63 -31 -63 -56 0 -34 170
-721 274 -1108 617 -2304 1199 -3713 1658 -4017 170 -113 456 -125 743 -31
360 117 791 432 1205 878 l92 100 -7 -495 c-3 -272 -8 -517 -10 -545 -1 -27
-6 -142 -9 -255 -4 -113 -9 -234 -11 -270 -2 -36 -7 -126 -10 -200 -3 -74 -8
-169 -11 -210 -2 -41 -13 -212 -24 -380 -82 -1238 -220 -2289 -412 -3129 l-52
-224 21 -17 c18 -14 55 -18 225 -23 210 -7 418 -24 429 -35 4 -4 10 -124 13
-267 4 -143 9 -305 11 -360 2 -55 7 -188 10 -295 8 -279 24 -820 30 -990 3
-80 7 -217 10 -305 8 -259 15 -490 20 -650 3 -82 7 -222 10 -310 13 -410 24
-764 30 -975 3 -96 7 -240 10 -320 3 -80 7 -221 10 -315 13 -419 16 -496 21
-595 3 -58 7 -112 9 -120 2 -8 7 -44 10 -80 27 -273 140 -686 264 -969 122
-275 212 -429 504 -856 564 -825 1128 -1538 1520 -1923 l64 -64 7 164 c4 90 9
195 11 233 2 39 7 126 10 195 11 238 15 336 25 545 10 208 15 313 25 535 3 63
7 158 10 210 3 52 7 151 10 220 3 69 7 163 10 210 2 47 7 146 10 220 3 74 8
173 10 220 3 47 7 141 10 210 3 69 8 168 10 220 19 382 15 357 52 366 46 12
55 -11 54 -137 -1 -63 -3 -127 -5 -144 -2 -16 -7 -111 -11 -210 -3 -99 -8
-200 -10 -225 -2 -25 -7 -119 -10 -210 -3 -91 -8 -185 -10 -210 -2 -25 -7
-115 -10 -200 -3 -85 -7 -193 -10 -240 -3 -47 -7 -141 -10 -210 -3 -69 -7
-163 -10 -210 -3 -47 -7 -146 -10 -220 -3 -74 -8 -164 -10 -200 -2 -36 -7
-135 -10 -220 -3 -85 -8 -184 -10 -220 -2 -36 -7 -128 -10 -205 -3 -77 -8
-174 -10 -215 -16 -275 -17 -351 -5 -365 9 -11 11 -61 5 -212 -4 -109 -8 -216
-10 -238 -2 -22 -6 -116 -10 -210 -3 -93 -7 -190 -10 -215 -2 -25 -7 -124 -10
-220 -3 -96 -8 -200 -10 -230 -2 -30 -7 -127 -10 -215 -3 -88 -8 -191 -10
-230 -2 -38 -7 -137 -11 -219 l-6 -148 -48 -118 c-67 -162 -157 -346 -231
-470 -104 -176 -174 -237 -574 -502 -460 -305 -640 -445 -786 -613 -183 -209
-235 -340 -226 -570 12 -277 101 -442 289 -530 118 -55 210 -68 427 -62 245 7
499 48 821 133 492 129 1062 446 1391 774 168 166 203 239 203 415 0 88 -6
136 -31 240 -35 148 -58 283 -73 435 -6 58 -13 125 -15 150 -3 25 -8 151 -11
281 l-7 236 94 6 c193 13 443 73 627 150 l82 35 0 -51 c0 -73 25 -182 57 -247
34 -71 153 -190 258 -259 219 -142 576 -291 701 -291 120 0 204 51 307 188
207 273 382 576 448 774 49 145 47 317 -6 613 -23 126 -50 235 -161 655 -46
178 -60 262 -103 646 -43 374 -47 391 -119 456 -74 67 -119 72 -397 43 -88 -9
-240 -24 -339 -34 l-178 -17 6 210 c4 116 9 229 11 251 2 22 7 121 10 220 4
99 8 196 10 215 2 19 6 98 10 175 3 77 8 165 10 195 2 30 7 100 10 155 3 55 8
132 10 170 3 39 12 174 20 300 14 211 38 529 50 665 3 30 16 183 30 340 24
281 40 441 89 935 32 316 63 719 81 1030 3 55 7 127 10 160 2 33 7 139 10 235
3 96 8 207 10 245 24 386 24 1910 0 2320 -2 39 -7 156 -10 260 -4 105 -8 208
-10 230 -2 22 -7 112 -10 200 -4 88 -8 171 -10 185 -2 14 -6 84 -10 155 -3 72
-8 147 -11 168 -6 37 -4 40 85 125 l91 87 -4 60 c-3 33 -8 114 -11 180 -7 145
-28 332 -53 478 -13 72 -15 107 -8 107 6 0 38 -5 71 -10 91 -15 334 -38 482
-46 l132 -7 40 -116 c415 -1191 628 -1760 676 -1810 13 -13 77 -16 173 -8 21
2 28 -9 59 -83 283 -687 465 -1104 519 -1187 21 -32 81 -101 133 -154 76 -75
112 -103 171 -132 111 -54 190 -55 239 -3 47 50 20 144 -98 340 -67 110 -141
253 -141 271 0 12 7 14 28 9 83 -20 188 -95 357 -254 241 -227 332 -294 544
-400 169 -85 255 -112 358 -112 85 0 140 30 172 96 22 45 23 52 13 110 -28
148 -127 328 -323 586 -222 292 -382 423 -718 587 -167 82 -179 90 -261 172
-48 47 -105 114 -128 147 -52 77 -102 162 -102 173 0 4 19 13 43 20 23 6 59
19 79 28 35 15 37 18 45 82 14 115 7 631 -11 836 -23 259 -59 534 -107 820
-22 132 -43 256 -45 275 -6 35 -5 35 58 65 108 51 309 176 428 266 682 514
1107 1301 1237 2289 21 162 26 244 29 490 5 446 -30 753 -133 1155 -143 566
-376 1030 -710 1417 -122 141 -496 488 -758 703 -417 343 -723 527 -1215 730
-673 278 -1003 539 -1215 962 -66 133 -113 254 -153 398 -104 375 -140 705
-139 1290 0 251 -3 326 -16 396 -72 368 -307 663 -677 849 -164 82 -344 140
-555 176 -128 22 -469 25 -600 6 -122 -19 -314 -65 -405 -97 -325 -118 -574
-342 -728 -655 -136 -278 -211 -612 -307 -1355 -67 -528 -121 -746 -239 -977
l-61 -119 -380 -4 c-209 -3 -409 -7 -445 -10 -36 -2 -114 -7 -175 -11 -459
-24 -855 -218 -1220 -595 -126 -130 -176 -189 -398 -467 -204 -255 -314 -372
-406 -431 -254 -163 -423 -20 -811 684 -204 370 -573 1181 -825 1815 -54 135
-103 251 -110 258 -13 14 -37 16 -76 7 -25 -6 -27 -4 -33 37 -11 70 -74 246
-116 327 l-40 75 113 116 c272 277 441 556 509 839 23 99 28 270 8 341 -42
156 -154 250 -314 267 -60 6 -184 -10 -248 -33 l-40 -14 2 78 c3 125 2 130
-34 170 l-34 37 -671 5 c-370 3 -682 2 -694 -1z m1826 -372 c192 -113 159
-500 -76 -877 -87 -139 -288 -381 -358 -431 l-30 -21 5 68 c3 38 8 130 11 204
9 211 15 349 20 425 2 39 7 147 11 240 3 94 8 181 9 195 1 14 3 59 4 101 l1
76 69 23 c136 43 256 42 334 -3z m-1844 -319 c83 -61 227 -204 277 -274 119
-166 156 -333 112 -514 -25 -104 -161 -345 -209 -371 -35 -18 -80 -10 -107 20
-40 42 -148 221 -208 341 -177 357 -178 603 -4 781 32 32 64 59 71 59 6 0 37
-19 68 -42z m8586 -414 c122 -15 363 -59 373 -68 2 -3 -6 -46 -17 -98 -38
-167 -49 -266 -46 -413 6 -262 78 -444 229 -583 74 -67 143 -100 236 -111 66
-9 78 -14 104 -42 24 -27 28 -38 23 -73 -7 -57 -42 -146 -77 -194 -16 -22 -51
-53 -77 -69 -43 -25 -57 -28 -128 -27 -54 1 -99 8 -139 22 l-59 22 -46 -33
c-64 -46 -122 -78 -216 -117 -44 -19 -88 -41 -97 -49 -24 -22 -64 -167 -78
-285 -15 -119 -8 -329 15 -436 35 -160 112 -339 212 -492 56 -86 68 -124 53
-178 -24 -88 -84 -118 -293 -145 -478 -61 -1064 72 -1453 331 -107 70 -129
101 -129 176 0 84 20 106 167 188 74 41 237 199 291 281 94 145 148 291 148
405 1 106 -16 149 -84 219 -71 73 -84 97 -103 183 -81 387 171 1232 442 1482
123 113 379 149 749 104z m-7171 -904 c31 -75 76 -235 76 -267 0 -22 5 -20
-403 -191 l-139 -57 -91 90 c-51 50 -130 117 -176 148 -52 35 -77 57 -65 57
10 0 151 1 312 1 161 1 308 5 328 9 83 19 109 75 113 240 1 64 10 59 45 -30z
m286 -522 c458 -1154 931 -2097 1224 -2440 135 -158 261 -218 397 -189 165 36
298 155 631 571 388 485 580 661 883 812 227 114 414 159 710 172 546 24 804
24 987 1 118 -15 420 -73 503 -96 l40 -11 -57 -29 c-65 -33 -104 -79 -129
-152 -22 -66 -16 -127 19 -197 22 -45 43 -66 107 -112 256 -184 671 -330 1060
-373 202 -22 472 -8 672 35 87 19 166 90 193 174 16 51 9 143 -17 194 -11 23
-17 42 -14 42 12 0 172 -56 256 -90 216 -86 494 -253 710 -426 127 -102 357
-328 467 -459 465 -555 828 -1271 989 -1950 55 -232 171 -641 339 -1195 620
-2046 890 -3203 996 -4270 16 -163 28 -754 17 -851 l-5 -47 -146 -35 c-256
-63 -651 -143 -799 -162 l-53 -7 -29 64 c-199 444 -990 2747 -1832 5337 -136
417 -168 505 -185 513 -31 14 -44 4 -125 -97 -204 -254 -356 -563 -418 -846
-69 -320 -49 -682 54 -979 54 -154 110 -267 224 -449 189 -300 290 -478 402
-701 259 -519 372 -942 410 -1533 l12 -179 -39 -40 c-93 -96 -320 -254 -504
-351 -319 -169 -768 -299 -1145 -332 -38 -3 -86 -8 -105 -11 -68 -9 -477 -11
-600 -3 -644 44 -1307 208 -2034 503 -357 145 -779 223 -1356 252 -74 4 -136
7 -137 8 -2 1 8 47 21 102 123 506 259 1372 331 2099 3 33 8 76 10 95 2 19 9
87 15 150 5 63 14 162 19 220 6 58 12 141 16 185 3 44 12 166 20 270 7 105 17
233 20 285 3 52 7 129 10 170 6 97 13 234 20 385 3 66 7 161 10 210 2 50 7
180 10 290 3 110 8 241 10 290 2 50 7 304 11 565 6 441 6 477 -10 493 -10 9
-26 17 -36 17 -19 0 -28 -9 -125 -120 -253 -289 -546 -553 -806 -726 -211
-141 -464 -248 -648 -275 -174 -25 -362 4 -464 72 -400 265 -916 1480 -1481
3489 -151 537 -399 1511 -388 1521 4 4 117 53 252 109 135 57 306 128 380 160
74 32 140 58 146 59 7 1 44 -81 84 -181z m10864 -11128 c76 -129 172 -248 255
-317 44 -37 125 -84 246 -145 99 -49 218 -115 265 -146 100 -66 318 -278 407
-397 176 -235 303 -463 311 -561 4 -51 3 -53 -29 -73 -46 -28 -95 -26 -200 9
-98 33 -160 62 -306 146 -119 68 -187 122 -363 288 -217 205 -332 284 -442
304 -81 16 -137 -20 -138 -85 0 -36 36 -121 96 -228 138 -244 163 -292 170
-319 7 -29 7 -29 -32 -24 -141 19 -317 188 -420 403 -84 175 -480 1114 -472
1119 1 2 86 19 188 40 102 20 230 47 285 60 55 14 105 25 110 25 6 1 37 -44
69 -99z m-1926 -8159 c18 -12 39 -35 47 -51 9 -18 28 -151 50 -352 47 -432 58
-491 168 -893 116 -421 161 -763 123 -928 -20 -86 -90 -243 -167 -375 -114
-196 -299 -463 -362 -521 -35 -32 -119 -59 -170 -55 -50 5 -137 32 -137 44 0
5 36 64 81 130 222 332 329 548 377 755 42 186 38 296 -23 637 -19 104 -50
306 -70 450 -20 145 -62 454 -95 688 -32 234 -60 439 -62 455 -3 29 -1 30 42
36 86 13 163 5 198 -20z m-253 -631 c47 -344 108 -764 137 -935 59 -357 68
-480 44 -608 -41 -219 -162 -463 -398 -809 l-80 -116 -37 15 c-94 38 -265 128
-346 181 -208 138 -275 245 -275 444 l0 87 76 52 c96 64 153 124 194 200 17
32 37 59 43 59 7 0 100 -14 207 -29 172 -26 198 -27 218 -15 25 17 29 46 7 67
-8 8 -54 20 -102 27 -48 7 -137 20 -198 29 l-110 16 4 150 c2 83 5 152 6 153
2 2 102 -10 221 -28 l218 -32 18 22 c22 27 22 31 5 55 -11 14 -57 24 -233 51
-120 18 -223 33 -228 34 -16 0 7 1495 23 1512 8 10 484 56 493 48 4 -3 46
-287 93 -630z m-2760 -1890 c163 -39 317 -66 455 -79 63 -6 133 -13 155 -15
22 -3 76 -5 120 -5 l80 -1 2 -188 c4 -245 20 -462 48 -646 8 -52 10 -96 5
-105 -12 -23 -260 -264 -350 -341 -214 -183 -470 -352 -737 -486 -465 -235
-904 -355 -1458 -399 -104 -8 -215 -17 -247 -20 -56 -6 -56 -6 -63 24 -14 64
-8 247 10 302 69 210 282 438 650 695 90 62 98 66 108 48 24 -44 146 -157 225
-210 77 -52 214 -122 269 -138 15 -5 28 -1 42 13 37 37 16 59 -116 125 -144
73 -251 151 -309 225 l-43 55 134 90 135 89 58 -54 c74 -71 101 -89 208 -142
147 -74 335 -134 380 -123 12 3 25 15 29 26 11 36 -11 56 -82 75 -106 27 -261
90 -343 139 -67 39 -171 130 -159 139 2 2 36 25 74 52 39 27 100 77 136 112
l66 63 24 -26 c99 -107 359 -229 598 -280 l84 -18 18 23 c11 13 19 26 19 30 0
24 -34 43 -110 61 -247 59 -440 150 -542 257 l-36 38 40 65 c54 88 185 353
233 473 30 74 44 96 55 91 8 -3 69 -18 135 -34z m923 -1263 c12 -56 23 -136
23 -177 0 -134 -39 -207 -194 -356 -348 -338 -913 -639 -1426 -760 -318 -75
-549 -108 -761 -107 -226 0 -345 36 -440 134 -34 35 -80 114 -80 138 0 4 42
11 93 15 435 32 632 60 889 126 677 173 1251 496 1763 992 55 54 102 97 105
98 3 0 16 -46 28 -103z"/>
<path d="M29742 17308 c-28 -28 -50 20 445 -988 80 -162 185 -376 233 -475 48
-99 183 -373 300 -610 117 -236 223 -455 237 -485 29 -65 50 -90 73 -90 18 0
50 30 50 47 0 11 -120 258 -440 908 -95 193 -192 391 -215 440 -24 50 -154
315 -290 590 -136 275 -265 538 -288 585 -34 70 -47 86 -67 88 -14 2 -31 -3
-38 -10z"/>
<path d="M29558 16429 c-10 -5 -18 -20 -18 -32 0 -18 334 -843 355 -877 3 -5
20 -10 36 -10 21 0 32 7 40 23 9 21 -14 84 -166 453 -97 236 -184 435 -193
442 -19 14 -31 15 -54 1z"/>
<path d="M22542 23148 c-26 -26 -11 -54 76 -141 88 -87 117 -102 142 -73 21
26 7 53 -73 140 -62 68 -84 86 -106 86 -15 0 -32 -5 -39 -12z"/>
<path d="M23339 23067 c-48 -45 -89 -89 -92 -98 -8 -24 20 -59 46 -59 29 0
197 167 197 196 0 26 -19 44 -44 44 -12 -1 -58 -36 -107 -83z"/>
<path d="M20805 22718 c-16 -10 -17 -26 -10 -217 4 -113 8 -208 10 -211 1 -3
6 -81 10 -175 4 -93 8 -185 10 -203 1 -19 6 -109 9 -200 4 -92 9 -187 11 -212
2 -25 7 -108 10 -185 3 -77 8 -165 10 -195 2 -30 7 -120 10 -200 3 -80 8 -174
10 -210 2 -36 7 -121 10 -190 3 -69 8 -159 10 -200 3 -41 7 -127 10 -190 3
-63 7 -153 10 -200 2 -47 7 -137 10 -200 3 -63 7 -153 10 -200 3 -47 7 -139
10 -205 3 -66 8 -158 10 -205 3 -47 7 -132 10 -190 3 -58 8 -148 10 -200 3
-52 10 -189 15 -305 14 -285 20 -358 33 -373 5 -7 24 -12 41 -10 l31 3 0 115
c0 108 -14 435 -20 490 -2 14 -6 102 -9 195 -4 94 -8 190 -11 215 -2 25 -7
108 -10 185 -3 77 -7 165 -10 195 -2 30 -7 118 -10 195 -3 77 -7 169 -10 205
-2 36 -7 124 -10 195 -3 72 -8 164 -10 205 -2 41 -7 127 -10 190 -3 63 -7 153
-10 200 -3 47 -7 137 -10 200 -3 63 -8 149 -10 190 -2 41 -7 136 -10 210 -3
74 -8 160 -10 190 -2 30 -7 127 -10 215 -4 88 -8 171 -10 185 -2 14 -6 99 -9
190 -4 91 -9 190 -11 220 -2 30 -7 111 -10 180 -9 202 -16 284 -26 296 -14 17
-44 23 -64 12z"/>
<path d="M22615 22359 c-47 -45 -87 -90 -90 -100 -10 -29 12 -59 43 -59 21 0
48 20 117 90 84 84 88 91 79 117 -7 20 -17 29 -37 31 -23 3 -42 -10 -112 -79z"/>
<path d="M23252 22418 c-25 -25 -10 -53 75 -139 69 -71 92 -89 115 -89 21 0
31 6 37 23 11 30 4 41 -85 136 -59 62 -82 81 -103 81 -15 0 -32 -5 -39 -12z"/>
<path d="M27017 4745 c-12 -11 -15 -41 -16 -126 0 -61 4 -121 9 -134 11 -28
43 -37 69 -18 19 13 21 24 21 142 0 85 -4 131 -12 139 -17 17 -54 15 -71 -3z"/>
<path d="M26528 4142 c-108 -2 -119 -4 -129 -24 -8 -15 -8 -27 0 -44 10 -23
13 -24 140 -24 137 0 161 7 161 49 0 40 -25 47 -172 43z"/>
<path d="M27422 4138 c-19 -19 -15 -66 7 -78 11 -5 70 -10 131 -10 125 0 150
8 150 48 0 47 -14 52 -150 52 -85 0 -130 -4 -138 -12z"/>
<path d="M27014 3728 c-11 -18 -16 -199 -7 -243 7 -34 13 -41 36 -43 51 -6 57
8 57 147 0 85 -4 131 -12 139 -15 15 -65 16 -74 0z"/>
<path d="M15508 1988 c-24 -20 -28 -44 -12 -67 l15 -21 1709 0 c1540 0 1710 2
1724 16 18 17 20 42 6 64 -8 13 -212 15 -1718 18 -1361 2 -1711 0 -1724 -10z"/>
</g>
</svg>
