<svg width="138" height="138" viewBox="0 0 138 138" fill="none"
    xmlns="http://www.w3.org/2000/svg">
    <circle cx="69" cy="69" r="69" fill="#37474F" fill-opacity="0.14"/>
    <path fill-rule="evenodd" clip-rule="evenodd" d="M48.8641 62.288C47.3875 62.288 46.1793 61.0799 46.1793 59.6032V54.2337H40.8098C39.3332 54.2337 38.125 53.0255 38.125 51.5489C38.125 50.0723 39.3332 48.8641 40.8098 48.8641H46.1793V43.4945C46.1793 42.0179 47.3875 40.8098 48.8641 40.8098C50.3408 40.8098 51.5489 42.0179 51.5489 43.4945V48.8641H56.9185C58.3951 48.8641 59.6033 50.0723 59.6033 51.5489C59.6033 53.0255 58.3951 54.2337 56.9185 54.2337H51.5489V59.6032C51.5489 61.0799 50.3408 62.288 48.8641 62.288ZM72.9798 88.1806C65.5698 88.1806 59.5559 82.1667 59.5559 74.7567C59.5559 67.3467 65.5698 61.3328 72.9798 61.3328C80.3898 61.3328 86.4037 67.3467 86.4037 74.7567C86.4037 82.1667 80.3898 88.1806 72.9798 88.1806ZM72.9798 66.7024C70.1023 66.7024 67.4433 68.2375 66.0046 70.7295C64.5658 73.2216 64.5658 76.2919 66.0046 78.7839C67.4433 81.2759 70.1023 82.8111 72.9798 82.8111C75.8574 82.8111 78.5163 81.2759 79.9551 78.7839C81.3939 76.2919 81.3939 73.2216 79.9551 70.7295C78.5163 68.2375 75.8574 66.7024 72.9798 66.7024ZM78.704 54.2337L82.0401 57.866C83.057 58.9731 84.4914 59.6032 85.9947 59.6032H94.5054V91.8206H51.5489V70.4918C51.5489 69.009 50.3469 67.807 48.8641 67.807C47.3814 67.807 46.1793 69.009 46.1793 70.4918V91.8206C46.1793 94.7739 48.5957 97.1902 51.5489 97.1902H94.5054C97.4587 97.1902 99.875 94.7739 99.875 91.8206V59.6032C99.875 56.65 97.4587 54.2337 94.5054 54.2337H85.9947L82.6655 50.6092C81.6722 49.5084 80.2224 48.8641 78.7189 48.8641H67.6809C66.1982 48.8641 64.9961 50.0661 64.9961 51.5489C64.9961 53.0316 66.1982 54.2337 67.6809 54.2337H78.704Z" fill="#37474F"/>
</svg>
    