<?xml version="1.0" standalone="no"?>
<!DOCTYPE svg PUBLIC "-//W3C//DTD SVG 20010904//EN"
 "http://www.w3.org/TR/2001/REC-SVG-20010904/DTD/svg10.dtd">
<svg version="1.0" xmlns="http://www.w3.org/2000/svg"
 width="3522.000000pt" height="3522.000000pt" viewBox="0 0 3522.000000 3522.000000"
 preserveAspectRatio="xMidYMid meet">

<g transform="translate(0.000000,3522.000000) scale(0.100000,-0.100000)"
fill="#000000" stroke="none">
<path d="M16986 29483 c-11 -3 -37 -17 -59 -31 -37 -24 -48 -26 -205 -32 -153
-5 -170 -7 -198 -28 -41 -31 -91 -41 -199 -42 -53 0 -99 -5 -111 -13 -12 -6
-35 -20 -52 -30 -20 -11 -68 -20 -130 -25 -79 -7 -105 -13 -130 -32 -33 -24
-95 -38 -176 -39 -34 -1 -63 -9 -93 -27 -24 -14 -71 -30 -106 -36 -34 -6 -84
-23 -112 -38 -27 -15 -75 -31 -105 -34 -30 -4 -71 -17 -90 -30 -19 -12 -51
-28 -70 -35 -19 -6 -51 -23 -72 -36 -21 -14 -65 -29 -105 -36 -37 -6 -84 -21
-103 -34 -19 -12 -46 -26 -60 -30 -14 -4 -45 -20 -70 -35 -25 -15 -62 -33 -82
-39 -20 -7 -42 -18 -48 -26 -7 -8 -37 -24 -67 -35 -31 -11 -67 -29 -80 -40
-13 -10 -46 -26 -73 -35 -27 -9 -54 -22 -60 -30 -7 -8 -37 -24 -68 -35 -32
-12 -64 -28 -72 -35 -8 -7 -38 -23 -67 -34 -28 -11 -62 -30 -75 -43 -43 -42
-82 -69 -128 -91 -25 -12 -76 -48 -114 -79 -38 -31 -81 -60 -97 -63 -16 -4
-63 -35 -106 -70 -42 -35 -90 -67 -106 -71 -16 -3 -57 -29 -91 -58 -33 -29
-99 -77 -146 -107 -53 -33 -130 -99 -205 -172 -66 -66 -138 -128 -160 -139
-78 -41 -142 -92 -269 -216 -70 -70 -136 -136 -145 -146 -53 -62 -69 -86 -84
-126 -13 -34 -56 -85 -172 -204 -124 -127 -157 -167 -166 -199 -7 -28 -31 -62
-74 -106 -155 -162 -178 -189 -200 -236 -12 -28 -33 -62 -46 -77 -66 -72 -81
-92 -98 -139 -11 -28 -26 -59 -34 -68 -8 -9 -22 -36 -31 -61 -10 -25 -42 -73
-73 -107 -30 -35 -59 -78 -64 -97 -5 -18 -20 -49 -33 -68 -13 -20 -29 -51 -35
-71 -7 -20 -22 -51 -35 -69 -12 -19 -28 -49 -35 -68 -6 -19 -22 -51 -35 -70
-12 -19 -28 -52 -35 -72 -7 -20 -23 -52 -35 -71 -13 -19 -29 -50 -35 -70 -7
-20 -21 -47 -31 -60 -10 -13 -28 -47 -39 -76 -11 -29 -26 -61 -34 -70 -18 -19
-37 -85 -37 -125 0 -16 -13 -50 -29 -75 -16 -25 -32 -57 -36 -71 -5 -14 -19
-42 -32 -64 -14 -22 -29 -67 -35 -105 -6 -41 -19 -78 -33 -97 -15 -19 -29 -61
-38 -109 -9 -46 -24 -90 -38 -108 -18 -24 -24 -51 -31 -131 -7 -85 -12 -106
-35 -139 -26 -37 -28 -49 -34 -173 -6 -127 -7 -135 -35 -171 l-29 -38 -5 -201
c-5 -197 -6 -202 -31 -235 -14 -19 -29 -45 -32 -59 -3 -14 -9 -1290 -13 -2835
-8 -2970 -8 -2901 37 -2925 11 -7 190 -9 481 -8 l463 3 3 30 3 30 365 0 c378
-1 432 4 426 38 -3 19 14 24 20 6 2 -6 13 7 23 30 11 22 24 41 28 41 5 0 6 4
3 8 -3 5 1 9 10 9 10 0 12 -7 8 -21 -5 -17 56 78 168 262 31 51 13 37 -23 -18
-18 -28 -37 -50 -43 -50 -15 0 -14 92 1 97 7 3 9 11 6 20 -4 11 -2 14 5 9 8
-4 16 2 21 16 l10 23 0 -24 c1 -33 15 -17 16 17 0 15 6 28 13 28 6 1 16 2 21
3 8 1 41 61 41 76 0 3 -6 3 -12 -1 -10 -6 -10 -4 0 7 6 7 12 26 12 41 0 15 5
28 10 28 6 0 10 8 8 18 -2 11 3 17 15 17 10 0 25 8 32 18 10 13 14 15 18 5 3
-10 9 -9 23 4 17 16 21 35 25 115 1 19 12 42 26 55 12 12 23 18 23 13 0 -5 9
1 20 13 22 24 40 29 40 11 0 -5 5 -7 10 -4 39 24 -31 -88 -117 -188 -18 -20
-33 -42 -33 -48 0 -10 -41 -69 -67 -97 -7 -7 -13 -19 -13 -26 0 -7 -9 -21 -20
-31 -11 -10 -20 -24 -20 -32 0 -8 -7 -27 -15 -43 -30 -58 -6 -29 55 68 311
485 656 921 1138 1437 82 88 148 162 146 164 -3 3 -19 -10 -37 -27 -34 -33
-60 -44 -36 -16 10 13 10 17 -2 25 -8 5 -22 9 -32 9 -14 0 -16 -4 -8 -19 8
-14 6 -22 -8 -35 -18 -16 -19 -16 -17 0 0 9 -5 19 -11 21 -8 3 -13 -4 -13 -16
0 -15 -6 -21 -22 -21 -19 0 -20 -2 -8 -10 8 -5 11 -10 5 -10 -5 0 -5 -4 1 -8
9 -5 8 -11 -2 -20 -8 -7 -14 -9 -14 -3 0 5 -7 12 -16 15 -8 3 -13 2 -9 -3 11
-19 -6 -39 -28 -33 -13 3 -18 1 -14 -4 5 -5 13 -9 18 -9 5 0 8 -4 7 -10 -2 -5
-7 -9 -11 -7 -5 1 -6 -2 -3 -7 8 -13 -11 -24 -48 -28 -39 -4 -47 -13 -11 -13
23 0 26 -3 17 -12 -7 -7 -12 -16 -12 -21 0 -11 51 21 67 42 6 9 14 14 17 11 3
-3 -19 -32 -48 -65 -66 -74 -239 -276 -286 -336 -19 -24 -76 -91 -125 -149
-50 -58 -122 -148 -162 -200 -74 -99 -123 -151 -123 -132 0 6 4 14 10 17 5 3
10 16 10 28 0 45 4 57 18 57 12 0 12 3 2 15 -10 12 -8 16 15 25 14 5 23 14 20
20 -3 5 1 10 9 10 9 0 16 7 16 15 0 8 7 15 16 15 9 0 12 -5 8 -12 -4 -7 6 1
22 17 16 17 27 34 26 38 -1 5 2 6 7 3 5 -3 14 1 21 9 7 8 9 15 4 15 -4 0 -3 5
3 11 6 6 9 28 6 50 -4 30 -2 40 11 45 13 5 14 10 5 20 -8 10 -7 17 4 29 14 14
17 14 27 -2 10 -16 11 -16 6 -1 -3 9 0 19 7 21 9 3 9 10 -1 27 -8 12 -9 19 -4
16 6 -3 13 0 15 6 4 10 8 9 16 -2 8 -12 10 -11 8 8 0 12 -5 22 -10 22 -5 0 -4
7 3 15 17 20 29 10 22 -18 -5 -19 -4 -20 11 -8 9 7 15 17 12 21 -3 5 -1 20 4
33 7 18 7 27 -2 31 -7 2 -4 5 6 5 9 1 17 7 17 15 0 16 27 29 42 20 5 -4 5 4
-2 16 -6 12 -9 24 -6 28 3 3 6 2 6 -3 0 -4 8 1 18 12 9 11 25 19 35 17 9 -1
17 2 17 7 0 5 -5 9 -10 9 -7 0 -7 6 -1 19 6 10 7 22 3 26 -4 5 2 5 13 2 17 -6
17 -4 -4 13 -20 18 -21 20 -5 19 32 -3 54 1 54 10 0 4 -12 7 -27 4 -21 -2 -23
-1 -10 5 22 9 24 22 6 33 -8 4 -10 11 -6 15 4 4 13 2 19 -4 7 -7 17 -12 23
-12 5 1 -1 10 -14 21 l-25 20 30 -6 c28 -6 28 -6 9 11 -19 16 -19 16 10 10 17
-4 25 -3 20 1 -6 4 -11 20 -12 35 l-1 28 20 -23 c15 -16 18 -18 14 -5 -6 20
10 34 17 16 4 -9 6 -8 7 2 2 30 37 93 44 79 3 -8 4 1 1 19 -2 18 0 32 6 32 6
0 8 -4 4 -9 -3 -5 -1 -12 5 -16 5 -3 10 -1 10 4 0 6 6 11 14 11 8 0 24 14 36
31 13 17 34 35 48 40 23 9 24 10 7 23 -13 9 -15 15 -7 20 7 4 12 2 12 -4 0 -7
7 -10 15 -6 8 3 15 0 15 -6 0 -6 3 -9 6 -6 3 4 -3 19 -13 34 -15 24 -16 27 -2
22 12 -5 15 -1 12 17 -4 20 -2 22 28 19 18 -2 29 -1 26 3 -4 3 1 12 11 20 15
13 15 13 -5 3 -37 -17 -26 3 15 29 20 14 31 26 24 29 -6 2 -12 10 -12 18 0 17
-26 8 -34 -13 -4 -11 -2 -13 9 -9 13 4 14 2 5 -14 -7 -13 -21 -20 -38 -19 -23
0 -24 2 -7 8 18 7 18 8 1 18 -12 7 -15 13 -8 17 6 4 9 12 6 20 -3 9 3 11 24 8
18 -2 33 2 41 12 12 14 11 16 -3 10 -17 -7 -23 11 -6 21 5 3 15 15 20 25 8 16
8 18 -5 14 -8 -4 -15 -12 -15 -20 0 -8 -4 -14 -8 -14 -5 0 -14 -10 -20 -22 -6
-13 -11 -18 -11 -11 -1 20 -32 2 -42 -24 -6 -15 -15 -23 -23 -20 -9 4 -13 -2
-13 -18 0 -15 4 -22 12 -19 7 3 16 1 20 -5 3 -6 -1 -12 -9 -12 -29 -3 -34 -4
-42 -11 -4 -5 -2 -8 5 -8 7 0 9 -5 6 -10 -4 -6 -1 -17 5 -25 10 -12 9 -15 -3
-15 -17 0 -29 54 -23 107 3 23 0 30 -10 26 -17 -6 -18 -19 -3 -28 15 -10 -22
-43 -41 -38 -9 3 -8 -2 5 -12 20 -17 20 -17 -2 -10 -17 4 -23 2 -23 -8 0 -8
-10 -17 -22 -21 -33 -8 -40 -7 -33 4 3 6 2 10 -4 10 -15 0 -22 -17 -23 -51 -1
-17 -4 -25 -8 -18 -4 6 -12 9 -18 5 -6 -3 -13 -2 -17 4 -3 5 -13 10 -21 10 -8
0 -12 -4 -9 -10 3 -5 1 -10 -6 -10 -7 0 -9 -3 -6 -6 3 -4 1 -16 -5 -27 -8 -16
-7 -19 3 -15 10 4 14 -3 15 -23 l1 -28 -18 23 c-25 32 -104 28 -84 -4 4 -6 14
-9 22 -6 8 3 11 1 8 -4 -3 -6 -15 -10 -26 -10 -11 0 -17 5 -14 10 3 6 -3 10
-14 10 -12 0 -21 -5 -21 -11 0 -6 -9 -9 -20 -6 -20 5 -29 -8 -9 -15 7 -2 6
-13 -2 -33 -7 -17 -13 -33 -13 -37 -2 -17 -17 -18 -49 -4 -31 13 -36 13 -41
-1 -9 -21 -8 -23 12 -23 14 0 15 2 2 10 -13 8 -13 10 2 10 24 0 31 -17 10 -26
-9 -4 -20 -6 -24 -6 -5 1 -8 -4 -8 -11 0 -8 -9 -13 -22 -12 -13 2 -22 7 -21
12 1 5 -7 9 -18 9 -10 0 -19 -6 -19 -13 0 -7 6 -13 14 -13 8 0 16 -7 20 -15 4
-12 2 -13 -13 -6 -15 8 -20 5 -29 -14 -6 -14 -9 -32 -5 -42 4 -10 2 -14 -4
-10 -6 4 -16 -6 -22 -23 -5 -17 -13 -30 -16 -30 -3 0 1 15 9 34 8 19 13 43 11
53 -2 10 -4 21 -4 25 -1 4 -8 5 -16 2 -12 -5 -13 -10 -4 -20 8 -10 5 -17 -11
-31 -41 -33 -49 -44 -46 -56 1 -7 1 -9 -1 -4 -3 4 -14 7 -26 7 -16 0 -18 -3
-8 -9 9 -6 10 -11 2 -15 -6 -4 -9 -12 -5 -17 3 -5 2 -9 -3 -8 -26 4 -34 -2
-28 -22 5 -15 4 -19 -4 -15 -6 4 -11 15 -11 24 0 14 -2 14 -9 3 -5 -7 -13 -11
-19 -7 -6 3 -13 2 -17 -4 -3 -5 1 -10 11 -10 15 0 15 -2 -1 -27 -16 -23 -16
-25 -1 -20 9 4 16 2 16 -3 0 -6 -5 -10 -10 -10 -6 0 -9 -5 -8 -11 2 -6 -3 -14
-10 -16 -8 -3 -10 1 -5 13 4 12 3 15 -5 10 -7 -4 -12 -1 -12 9 0 13 -2 14 -14
3 -10 -10 -11 -15 -2 -21 6 -5 -1 -6 -16 -3 -16 4 -28 2 -28 -3 0 -12 29 -22
43 -15 8 5 9 4 2 -4 -9 -10 -40 -19 -72 -21 -7 -1 -13 -6 -13 -12 0 -6 7 -9
15 -6 8 4 17 2 20 -3 3 -5 13 -6 23 -3 15 6 15 5 3 -11 -13 -15 -13 -19 0 -28
11 -8 11 -9 -3 -5 -9 3 -19 3 -21 -1 -2 -4 -2 -2 -1 5 2 6 -3 16 -10 22 -10 8
-17 7 -26 -4 -11 -13 -15 -13 -21 -3 -5 7 -6 -4 -2 -25 5 -32 3 -36 -11 -31
-11 4 -16 1 -16 -10 0 -9 -6 -16 -12 -15 -7 1 -20 1 -28 0 -13 -1 -13 -2 0
-11 13 -8 12 -10 -4 -10 -20 0 -20 0 0 -15 18 -14 18 -14 -8 -15 -26 0 -31
-12 -14 -38 5 -8 3 -19 -4 -25 -8 -9 -11 -9 -8 -1 2 7 0 11 -4 10 -4 0 -14 8
-22 19 -9 11 -16 15 -16 8 0 -7 -7 -10 -15 -7 -8 4 -15 1 -15 -6 0 -6 5 -8 10
-5 6 3 10 -5 10 -18 0 -22 -23 -43 -42 -39 -5 1 -8 -3 -8 -8 0 -6 -12 -8 -27
-4 -16 3 -23 2 -17 -3 6 -4 14 -16 17 -27 6 -14 3 -17 -8 -12 -9 3 -15 0 -15
-10 0 -11 -4 -12 -19 -5 -16 9 -18 7 -15 -19 2 -16 -2 -32 -8 -36 -7 -5 -8 -3
-3 6 5 8 3 11 -6 8 -8 -3 -13 -11 -11 -17 1 -7 -7 -10 -23 -7 -14 3 -25 0 -25
-6 0 -6 -3 -9 -6 -5 -3 3 -17 2 -30 -3 -20 -8 -24 -6 -24 10 0 21 -15 27 -25
10 -3 -5 -1 -10 5 -10 8 0 10 -9 6 -24 -6 -23 -4 -24 25 -21 26 4 29 2 19 -10
-6 -8 -9 -19 -5 -24 3 -7 0 -8 -9 -5 -9 3 -16 11 -16 17 0 6 -3 7 -7 4 -3 -4
-15 1 -26 10 -19 16 -20 17 -14 1 3 -9 1 -18 -6 -21 -15 -5 -53 30 -43 40 4 4
11 2 15 -6 7 -10 10 -9 14 3 5 11 1 16 -14 16 -22 0 -45 -43 -25 -48 6 -1 17
-11 23 -21 10 -16 9 -19 -5 -16 -9 1 -16 8 -14 15 1 6 -3 8 -9 5 -8 -5 -8 -10
0 -18 17 -17 13 -29 -8 -22 -13 4 -23 0 -30 -12 -9 -15 -12 -16 -20 -4 -11 16
13 46 28 36 6 -3 9 4 8 15 -1 11 -6 20 -12 20 -5 0 -3 5 5 11 12 9 12 10 -4 5
-11 -4 -23 -1 -27 6 -4 7 -11 9 -16 5 -4 -5 -1 -12 7 -18 13 -7 13 -10 1 -18
-8 -5 -9 -10 -3 -12 6 -2 2 -18 -9 -39 -11 -20 -17 -25 -14 -12 5 18 3 22 -17
20 -30 -4 -39 -17 -27 -40 7 -13 4 -23 -11 -38 -31 -31 -50 -26 -44 13 4 29 4
30 -6 8 -6 -14 -9 -30 -6 -37 7 -18 -33 -65 -52 -62 -10 2 -16 -2 -15 -9 3
-14 -44 -10 -60 6 -8 8 -7 11 5 11 9 0 20 -5 23 -11 5 -6 13 -3 22 10 14 21
40 31 28 11 -3 -5 -1 -10 5 -10 7 0 10 6 7 13 -2 6 -12 11 -21 10 -11 0 -15 4
-12 14 3 8 1 11 -4 8 -6 -3 -10 -13 -10 -21 0 -9 -11 -14 -30 -14 -29 0 -41
15 -19 22 7 2 4 10 -7 18 -15 12 -16 13 -9 1 6 -11 4 -13 -9 -8 -14 5 -17 3
-13 -8 4 -8 2 -17 -3 -20 -4 -3 -11 1 -13 7 -3 7 -6 3 -6 -9 -1 -21 -36 -42
-48 -29 -4 3 1 6 11 6 9 0 14 5 11 10 -3 6 -1 10 5 10 6 0 8 5 4 11 -3 6 0 16
7 21 10 7 7 8 -13 5 -20 -3 -28 1 -32 16 -4 15 -2 17 7 8 16 -16 24 -14 30 9
3 11 1 20 -4 20 -5 0 -9 -5 -9 -12 0 -21 -21 7 -23 31 -1 13 -8 21 -19 21 -10
0 -18 5 -18 12 0 9 -3 9 -12 0 -10 -10 -10 -15 2 -22 9 -6 10 -10 3 -10 -18 0
-26 19 -13 35 6 7 13 27 15 43 3 25 1 29 -16 25 -11 -3 -19 0 -19 6 0 7 4 10
9 7 5 -3 14 1 21 9 11 13 10 14 -4 9 -12 -5 -19 0 -23 15 -3 11 -9 21 -14 21
-5 0 -9 5 -9 10 0 6 7 10 15 10 8 0 15 8 15 18 0 14 -2 15 -10 2 -13 -21 -21
-8 -23 39 -1 23 -5 41 -9 41 -3 0 -4 9 -1 20 4 14 0 20 -10 20 -9 0 -19 5 -23
12 -5 8 0 9 15 5 18 -4 20 -3 10 9 -9 11 -8 15 5 20 22 9 11 22 -19 22 -20 0
-24 -4 -20 -18 3 -10 1 -21 -5 -25 -5 -3 -10 2 -11 12 0 14 -3 12 -10 -6 -5
-13 -7 -32 -3 -43 3 -10 1 -25 -6 -33 -6 -7 -10 -19 -9 -27 4 -29 -1 -78 -8
-78 -5 0 -8 34 -8 76 1 41 -2 77 -6 80 -4 2 -8 523 -8 1157 -1 633 -4 1312 -7
1507 -7 377 10 1318 26 1535 40 513 181 1116 366 1555 229 542 493 995 853
1460 313 404 813 892 1290 1258 123 95 446 304 609 396 482 270 894 439 1377
567 541 143 988 212 1494 231 1153 42 2097 -161 3071 -660 476 -245 857 -502
1290 -872 69 -59 495 -481 571 -565 141 -158 382 -457 482 -600 54 -77 233
-350 259 -395 57 -99 197 -360 235 -440 57 -119 182 -413 233 -550 23 -63 53
-143 66 -177 106 -276 213 -704 259 -1038 19 -133 24 -163 37 -207 l11 -38
317 0 c174 0 391 -3 482 -7 l165 -6 11 33 c7 18 12 63 12 101 0 95 -29 308
-46 344 -9 17 -17 68 -20 115 -6 102 -31 215 -50 231 -9 7 -14 32 -14 68 0 85
-95 447 -126 482 -8 9 -12 18 -9 21 5 5 -41 163 -53 183 -4 6 -16 42 -28 80
-58 188 -294 735 -328 757 -6 4 -8 8 -4 8 10 0 -20 68 -45 104 -12 17 -23 37
-25 45 -11 51 -186 361 -234 416 -21 24 -38 48 -38 54 0 24 -40 87 -85 136
-41 44 -73 98 -68 116 1 3 -27 41 -63 83 -36 43 -63 81 -60 83 11 12 -84 131
-176 223 -69 68 -99 105 -104 127 -7 38 -89 139 -181 226 -147 138 -733 728
-733 737 0 5 -4 10 -8 10 -4 0 -37 28 -73 63 -49 48 -75 66 -110 75 -36 9 -63
28 -127 91 -45 44 -82 84 -82 89 0 16 -109 93 -138 98 -35 7 -56 21 -120 83
-32 31 -62 51 -75 51 -28 0 -57 19 -122 80 -31 29 -70 53 -102 64 -28 9 -57
23 -63 31 -6 8 -35 21 -64 29 -29 9 -64 24 -77 35 -14 10 -43 24 -66 30 -22 6
-51 20 -65 30 -13 11 -49 31 -79 44 -30 14 -78 47 -108 75 -51 49 -58 51 -123
58 -49 5 -80 14 -106 32 -20 13 -54 31 -75 38 -21 7 -51 23 -67 34 -16 11 -44
26 -62 32 -18 6 -47 21 -65 34 -21 16 -57 28 -108 35 -51 8 -86 19 -103 33
-15 12 -56 30 -92 40 -36 10 -78 26 -95 36 -16 10 -56 23 -88 29 -32 6 -81 22
-108 36 -32 16 -77 27 -121 32 -49 4 -80 13 -104 30 -43 29 -100 42 -180 43
-50 0 -68 5 -100 27 -36 24 -50 27 -170 34 -128 7 -159 14 -198 48 -14 13 -50
17 -180 21 -158 6 -162 7 -220 38 l-59 32 -816 -1 c-449 -1 -825 -4 -835 -6z
m-3267 -9772 c8 -6 11 -16 6 -31 -7 -21 -9 -21 -17 -7 -5 10 -7 21 -3 26 3 5
-1 12 -7 14 -7 3 -8 6 -3 6 6 0 16 -3 24 -8z m-339 -182 c0 -17 -2 -18 -13 -7
-7 7 -16 21 -20 31 -6 15 -4 16 13 7 11 -6 20 -20 20 -31z m207 4 c7 -20 -13
-22 -24 -3 -10 15 -9 18 4 16 10 -2 19 -8 20 -13z m158 -123 c-3 -5 -10 -10
-16 -10 -5 0 -9 5 -9 10 0 6 7 10 16 10 8 0 12 -4 9 -10z m-545 -14 c0 -3 -4
-8 -10 -11 -5 -3 -10 -1 -10 4 0 6 5 11 10 11 6 0 10 -2 10 -4z m-250 -181 c0
-2 -7 -8 -15 -15 -12 -10 -15 -10 -15 2 0 8 7 15 15 15 8 0 15 -1 15 -2z
m-185 -175 c3 -5 1 -10 -4 -10 -6 0 -11 5 -11 10 0 6 2 10 4 10 3 0 8 -4 11
-10z m-1175 -166 c0 -8 -4 -12 -10 -9 -5 3 -10 10 -10 16 0 5 5 9 10 9 6 0 10
-7 10 -16z m1049 -40 c-6 -8 -17 -14 -23 -13 -7 0 -6 2 2 6 6 2 12 11 12 19 0
9 5 12 10 9 8 -5 7 -11 -1 -21z m-1044 7 c3 -5 1 -12 -5 -16 -5 -3 -10 1 -10
9 0 18 6 21 15 7z m952 -53 c0 -18 -2 -27 -5 -20 -3 10 -7 10 -20 0 -13 -12
-14 -10 -3 10 6 12 8 22 4 22 -6 0 16 19 23 20 0 0 1 -15 1 -32z m608 -8 c-3
-5 -12 -10 -18 -10 -7 0 -6 4 3 10 19 12 23 12 15 0z m-1608 -92 c-3 -7 -5 -2
-5 12 0 14 2 19 5 13 2 -7 2 -19 0 -25z m841 -5 c-10 -2 -18 -9 -18 -14 0 -6
-4 -7 -10 -4 -18 11 -10 21 18 22 15 0 19 -1 10 -4z m-841 -65 c-3 -8 -6 -5
-6 6 -1 11 2 17 5 13 3 -3 4 -12 1 -19z m733 -23 c0 -8 -4 -15 -9 -15 -5 0
-11 7 -15 15 -3 9 0 15 9 15 8 0 15 -7 15 -15z m-200 -45 c0 -5 -2 -10 -4 -10
-3 0 -8 5 -11 10 -3 6 -1 10 4 10 6 0 11 -4 11 -10z m52 -32 c-9 -9 -12 -7
-12 12 0 19 3 21 12 12 9 -9 9 -15 0 -24z m-27 2 c3 -5 1 -10 -4 -10 -6 0 -11
5 -11 10 0 6 2 10 4 10 3 0 8 -4 11 -10z m835 -22 c0 -4 -4 -8 -9 -8 -6 0 -12
4 -15 8 -3 5 1 9 9 9 8 0 15 -4 15 -9z m7 -45 c-26 -40 -51 -57 -40 -26 5 14
50 61 61 63 1 0 -8 -17 -21 -37z m-883 6 c-3 -5 -10 -7 -15 -3 -5 3 -7 10 -3
15 3 5 10 7 15 3 5 -3 7 -10 3 -15z m-234 -39 c0 -5 -2 -10 -4 -10 -3 0 -8 5
-11 10 -3 6 -1 10 4 10 6 0 11 -4 11 -10z m130 -30 c0 -5 -2 -10 -4 -10 -3 0
-8 5 -11 10 -3 6 -1 10 4 10 6 0 11 -4 11 -10z m765 -171 c-4 -5 -12 -9 -18
-8 -9 0 -8 2 1 6 6 2 9 10 6 15 -4 7 -2 8 5 4 6 -4 9 -12 6 -17z m-255 -493
c0 -3 -4 -8 -10 -11 -5 -3 -10 -1 -10 4 0 6 5 11 10 11 6 0 10 -2 10 -4z"/>
<path d="M14679 26793 c-13 -16 -12 -17 4 -4 9 7 17 15 17 17 0 8 -8 3 -21
-13z"/>
<path d="M14603 26734 l-48 -46 53 42 c48 38 59 50 48 50 -2 0 -26 -21 -53
-46z"/>
<path d="M14480 26634 c-80 -69 -190 -174 -190 -181 0 -4 55 45 224 199 64 58
38 45 -34 -18z"/>
<path d="M14117 26290 c-322 -332 -547 -624 -749 -970 -117 -202 -103 -189 37
35 122 193 230 354 318 470 100 132 348 413 456 519 56 54 100 100 98 102 -2
3 -74 -68 -160 -156z"/>
<path d="M13247 25108 c-53 -97 -98 -190 -95 -200 2 -4 33 53 70 127 71 142
83 178 25 73z"/>
<path d="M13131 24873 c-8 -16 -37 -83 -78 -183 -8 -19 -11 -30 -6 -25 8 9 45
87 89 193 15 34 11 45 -5 15z"/>
<path d="M13025 24629 c-4 -6 -5 -12 -2 -15 2 -3 7 2 10 11 7 17 1 20 -8 4z"/>
<path d="M12986 24535 c-9 -26 -7 -32 5 -12 6 10 9 21 6 23 -2 3 -7 -2 -11
-11z"/>
<path d="M12951 24439 c-6 -18 -9 -34 -7 -36 2 -2 9 10 15 28 6 18 9 34 7 36
-2 2 -9 -10 -15 -28z"/>
<path d="M12922 24361 c-17 -48 -14 -63 4 -22 8 19 13 39 11 45 -2 6 -9 -5
-15 -23z"/>
<path d="M12886 24254 c-9 -26 -16 -52 -15 -58 0 -6 9 13 20 43 10 30 17 56
15 58 -2 2 -11 -17 -20 -43z"/>
<path d="M12852 24148 c-74 -237 -122 -418 -121 -458 0 -14 18 43 38 125 21
83 52 197 70 254 18 57 30 105 28 108 -3 2 -10 -11 -15 -29z"/>
<path d="M12722 23640 c0 -14 2 -19 5 -12 2 6 2 18 0 25 -3 6 -5 1 -5 -13z"/>
<path d="M12712 23585 c0 -16 2 -22 5 -12 2 9 2 23 0 30 -3 6 -5 -1 -5 -18z"/>
<path d="M12672 23270 c0 -14 2 -19 5 -12 2 6 2 18 0 25 -3 6 -5 1 -5 -13z"/>
<path d="M12663 23155 c0 -44 2 -61 4 -37 2 23 2 59 0 80 -2 20 -4 1 -4 -43z"/>
<path d="M12652 23045 c0 -16 2 -22 5 -12 2 9 2 23 0 30 -3 6 -5 -1 -5 -18z"/>
<path d="M23114 23021 c7 -10 31 -9 42 2 4 4 -5 7 -20 7 -15 0 -25 -4 -22 -9z"/>
<path d="M12651 22994 c0 -11 3 -14 6 -6 3 7 2 16 -1 19 -3 4 -6 -2 -5 -13z"/>
<path d="M12638 22763 c-2 -165 3 -577 7 -582 3 -2 5 149 5 337 0 188 -2 342
-5 342 -3 0 -6 -44 -7 -97z"/>
<path d="M21603 22843 c9 -2 23 -2 30 0 6 3 -1 5 -18 5 -16 0 -22 -2 -12 -5z"/>
<path d="M21508 22833 c6 -2 18 -2 25 0 6 3 1 5 -13 5 -14 0 -19 -2 -12 -5z"/>
<path d="M12675 22055 c7 -31 12 -41 19 -34 2 2 -3 18 -11 34 l-14 30 6 -30z"/>
<path d="M12700 22002 c0 -35 103 -158 152 -182 22 -11 22 -11 3 5 -51 40
-100 94 -126 140 -16 27 -29 44 -29 37z"/>
<path d="M23061 20564 c0 -11 3 -14 6 -6 3 7 2 16 -1 19 -3 4 -6 -2 -5 -13z"/>
<path d="M15014 20518 l-19 -21 28 18 c28 18 33 25 19 25 -5 0 -17 -10 -28
-22z"/>
<path d="M14510 20494 c0 -17 27 -37 34 -25 4 5 2 12 -4 16 -5 3 -10 3 -10 -2
0 -4 -5 -1 -10 7 -5 8 -10 10 -10 4z"/>
<path d="M19190 20465 c-143 -53 -414 -206 -571 -321 -35 -26 -80 -59 -99 -73
-209 -153 -586 -528 -788 -783 -226 -286 -450 -645 -657 -1058 -142 -283 -198
-409 -275 -615 -27 -71 -69 -182 -93 -245 -86 -225 -111 -305 -209 -670 -75
-282 -134 -518 -149 -592 -6 -32 -16 -58 -21 -58 -6 0 -8 6 -5 13 3 8 -3 14
-15 14 -15 2 -19 -3 -15 -18 3 -10 2 -21 -2 -24 -4 -2 -6 -18 -3 -36 3 -22 1
-30 -7 -25 -7 5 -9 1 -4 -9 5 -14 0 -16 -23 -15 -50 4 -61 1 -45 -9 12 -8 12
-12 2 -25 -18 -21 -32 -20 -25 2 4 11 -1 9 -15 -8 -12 -14 -20 -35 -18 -48 3
-17 1 -20 -8 -12 -7 6 -10 20 -7 32 3 15 1 19 -9 16 -8 -3 -14 -10 -14 -17 0
-7 -7 -18 -15 -24 -8 -7 -15 -18 -16 -24 -4 -48 -4 -49 -14 -33 -6 9 -5 17 2
21 9 6 9 11 0 21 -9 11 -9 18 1 28 10 10 9 12 -5 7 -21 -7 -23 3 -5 23 10 12
9 12 -5 1 -16 -12 -22 -9 -19 11 0 4 -6 5 -14 2 -8 -3 -14 -9 -13 -12 5 -18
-15 -52 -30 -52 -13 0 -14 2 -4 9 11 6 9 10 -7 14 -20 5 -20 4 -6 -28 12 -29
12 -33 -1 -28 -8 3 -14 11 -14 19 0 8 -4 14 -8 14 -15 0 -43 -26 -40 -35 3
-11 -4 -15 -24 -15 -9 0 -9 3 0 12 15 15 16 28 2 28 -6 0 -14 -8 -17 -17 -9
-25 -25 -34 -39 -22 -8 7 -17 5 -27 -6 -9 -8 -20 -15 -26 -15 -6 0 -11 -4 -11
-9 0 -6 9 -8 20 -6 11 2 20 0 20 -6 0 -9 -19 -12 -87 -13 -36 -1 -53 -13 -30
-22 13 -5 10 -13 -20 -45 -37 -40 -56 -38 -45 4 3 13 1 18 -6 13 -6 -3 -13 -2
-17 3 -6 11 -35 4 -33 -7 3 -26 -4 -51 -17 -56 -8 -3 -14 0 -12 7 1 7 -5 12
-13 12 -8 0 -15 -6 -15 -14 0 -17 -51 -26 -60 -11 -4 6 1 7 12 3 16 -6 16 -5
4 10 -18 23 -41 22 -36 -2 3 -14 -3 -20 -26 -23 -34 -5 -59 6 -35 15 9 4 16
12 16 18 0 8 -4 9 -13 0 -8 -6 -17 -8 -20 -4 -4 3 -7 1 -7 -6 0 -7 -5 -9 -11
-6 -6 4 -8 14 -5 22 3 8 1 23 -5 35 -10 18 -12 18 -23 3 -10 -14 -14 -14 -23
-3 -16 18 -17 30 -3 38 7 4 -1 9 -20 12 -38 6 -47 -8 -49 -77 -1 -27 -5 -51
-10 -55 -9 -6 -19 -43 -28 -103 -3 -23 -9 -51 -13 -63 -5 -11 -11 -47 -15 -80
-8 -68 -9 -78 -24 -159 -5 -33 -15 -91 -21 -130 -18 -111 -39 -210 -49 -236
-10 -24 -10 -24 -10 -2 -1 39 48 411 80 603 77 467 178 863 344 1350 127 373
247 687 339 884 250 533 513 998 831 1467 120 176 151 229 136 229 -5 0 -22
-11 -38 -23 -15 -13 -53 -40 -83 -59 -187 -118 -629 -559 -842 -839 -268 -353
-600 -997 -818 -1589 -98 -265 -219 -699 -270 -970 -17 -87 -27 -134 -64 -310
-20 -91 -37 -176 -40 -190 -2 -14 -7 -36 -10 -50 -3 -14 -8 -45 -11 -70 -3
-25 -14 -99 -25 -165 -11 -66 -21 -131 -22 -145 -2 -17 -9 -25 -21 -24 -14 2
-17 -6 -17 -42 0 -24 -4 -44 -10 -44 -10 0 -11 4 -14 63 -2 32 10 60 23 53 4
-3 8 4 8 15 2 17 0 18 -13 4 -23 -23 -39 -7 -17 17 13 15 15 22 6 25 -7 3 -22
12 -33 21 -15 13 -17 20 -9 32 9 12 10 12 5 -4 -6 -16 -4 -17 10 -5 14 12 14
14 -2 26 -10 7 -25 13 -33 13 -11 0 -11 3 4 13 10 8 15 19 11 26 -5 7 -12 9
-19 3 -22 -17 -46 -21 -53 -10 -4 7 -3 8 4 4 7 -4 12 -2 12 4 0 6 6 8 13 4 9
-5 9 -4 -1 7 -7 8 -27 12 -47 10 -19 -1 -35 2 -35 7 0 13 -54 6 -58 -8 -2 -6
-17 -8 -36 -4 -23 4 -38 1 -49 -10 -20 -20 -29 -20 -25 0 2 10 -3 19 -10 21
-8 3 -10 -1 -6 -11 7 -18 -14 -49 -27 -40 -5 3 -6 -3 -2 -13 6 -16 5 -16 -10
-5 -12 11 -20 11 -34 2 -16 -10 -16 -11 4 -7 15 3 20 1 17 -8 -3 -7 -16 -15
-30 -18 -20 -3 -23 -1 -19 13 7 23 -21 48 -37 32 -9 -9 -8 -12 5 -12 21 0 22
-13 2 -30 -21 -18 -85 -25 -85 -9 0 7 -3 10 -6 7 -3 -4 0 -16 6 -28 10 -18 14
-20 21 -9 7 11 9 11 9 -2 0 -9 -3 -19 -6 -22 -8 -8 -44 31 -44 46 0 6 -3 7 -7
3 -5 -4 -8 -11 -8 -15 0 -15 -64 -68 -68 -57 -2 6 -4 -2 -4 -17 0 -16 -6 -34
-12 -40 -8 -8 -11 -8 -11 1 0 6 -7 9 -15 6 -8 -3 -14 -9 -13 -12 2 -21 -4 -31
-17 -26 -8 4 -15 1 -15 -5 0 -6 5 -11 12 -11 9 0 9 -3 0 -12 -10 -10 -17 -10
-32 0 -16 10 -20 10 -18 0 2 -7 10 -16 18 -20 11 -5 10 -7 -6 -7 -30 -1 -45
18 -33 43 9 20 9 20 -4 3 -8 -10 -13 -27 -10 -37 3 -12 0 -20 -8 -20 -8 0 -5
-6 7 -15 10 -8 14 -15 7 -15 -6 0 -18 6 -26 14 -12 13 -17 13 -37 -1 -17 -12
-21 -13 -15 -2 5 7 -4 3 -20 -9 -26 -21 -31 -22 -41 -8 -10 14 -13 14 -28 -2
-21 -24 -21 -33 1 -25 11 5 14 3 8 -6 -4 -8 -20 -11 -36 -9 -24 4 -27 2 -16
-10 10 -13 9 -14 -10 -3 -21 10 -23 9 -24 -11 -1 -13 -1 -27 0 -32 1 -5 -4 -4
-12 2 -8 7 -17 9 -20 5 -9 -8 -38 17 -31 28 9 15 22 10 26 -8 2 -10 6 -13 10
-8 3 6 -1 19 -9 30 -10 13 -17 16 -20 8 -3 -7 -17 -9 -40 -6 -26 5 -34 3 -29
-6 4 -6 12 -9 17 -5 6 3 5 -4 -3 -15 -9 -16 -14 -18 -16 -7 -3 14 -33 32 -31
18 5 -29 -23 -40 -48 -19 -7 5 -13 8 -14 6 0 -2 -3 -13 -5 -24 -3 -11 -5 -28
-5 -37 0 -10 -4 -20 -10 -23 -5 -4 -9 2 -9 13 0 28 -11 34 -26 14 -16 -20 -18
-36 -4 -27 20 12 9 -6 -21 -34 -17 -17 -28 -35 -24 -40 3 -6 1 -11 -4 -11 -15
0 -14 33 2 49 10 11 10 13 0 7 -8 -4 -13 -1 -13 8 0 8 -4 18 -10 21 -6 4 -7
-1 -3 -11 4 -12 3 -15 -5 -10 -8 5 -10 2 -6 -8 3 -9 1 -16 -5 -16 -6 0 -8 -6
-6 -12 3 -7 1 -20 -5 -28 -7 -12 -12 -12 -22 -2 -9 9 -9 12 0 12 7 0 12 10 11
23 0 12 -3 16 -6 10 -2 -7 -12 -13 -20 -13 -9 0 -13 6 -10 14 3 8 -2 17 -11
21 -9 3 -13 3 -9 -1 4 -4 2 -13 -4 -21 -9 -10 -8 -13 4 -13 19 0 29 -24 15
-38 -8 -8 -15 -7 -24 6 -12 16 -13 15 -14 -5 0 -32 -30 -27 -43 7 -4 12 -6 11
-6 -2 -1 -10 -8 -18 -16 -18 -8 0 -23 -10 -34 -21 l-20 -21 6 21 c3 11 9 21
15 21 5 0 4 9 -2 20 -6 11 -7 20 -3 21 4 0 -2 4 -14 9 -13 5 -23 15 -23 22 0
9 3 9 10 -2 5 -8 12 -11 16 -7 12 12 -29 37 -43 26 -8 -7 -5 -16 13 -34 13
-13 24 -29 24 -35 0 -7 -7 -5 -16 4 -17 18 -28 21 -19 6 3 -6 1 -10 -4 -10 -6
0 -11 8 -11 18 0 10 -3 13 -8 6 -10 -15 -52 -28 -52 -16 0 6 7 12 15 16 8 3
15 10 15 16 0 6 -4 9 -9 5 -6 -3 -15 3 -21 12 -10 16 -11 16 -6 1 3 -11 -9
-30 -36 -54 -42 -37 -42 -38 -44 -113 -2 -123 -15 -171 -59 -215 -11 -11 -17
-39 -20 -93 -8 -148 -13 -176 -39 -198 -28 -24 -37 -61 -42 -174 -4 -103 -8
-128 -29 -151 -29 -32 -45 -111 -50 -244 -6 -154 -13 -206 -30 -226 -7 -8 -22
-40 -33 -70 -17 -47 -20 -81 -21 -223 -1 -189 -1 -192 -48 -301 l-34 -79 2
-161 c1 -130 -2 -168 -15 -199 -15 -35 -30 -127 -20 -127 2 0 57 37 122 82 64
45 200 138 302 206 343 231 519 360 985 721 289 224 433 338 575 457 41 35
120 100 174 146 55 46 127 105 160 132 96 78 372 323 429 380 29 29 115 106
192 172 77 65 203 180 280 254 77 74 176 168 220 210 145 137 399 375 415 390
86 79 199 188 456 440 l300 295 2 60 c2 33 9 112 17 175 8 63 17 138 20 165
54 439 233 1089 444 1605 248 608 566 1142 965 1625 145 176 231 270 416 459
187 191 316 306 478 425 62 45 112 85 112 87 0 7 -24 3 -60 -11z m-2862 -4450
c-3 -3 -9 2 -12 12 -6 14 -5 15 5 6 7 -7 10 -15 7 -18z m-145 -139 c4 -10 1
-13 -8 -9 -8 3 -12 9 -9 14 7 12 11 11 17 -5z m-153 -6 c0 -5 -5 -10 -11 -10
-5 0 -7 5 -4 10 3 6 8 10 11 10 2 0 4 -4 4 -10z m-166 -87 c-12 -2 -26 -14
-32 -26 l-11 -22 0 22 c-1 23 12 32 44 31 18 -1 18 -1 -1 -5z m-131 -77 c-3
-4 -9 -2 -14 5 -13 22 -11 31 5 17 8 -7 12 -17 9 -22z m-496 -8 c-3 -8 -6 -5
-6 6 -1 11 2 17 5 13 3 -3 4 -12 1 -19z m-952 -528 c3 -5 1 -10 -4 -10 -6 0
-11 5 -11 10 0 6 2 10 4 10 3 0 8 -4 11 -10z m-285 -160 c0 -5 -4 -10 -10 -10
-5 0 -10 5 -10 10 0 6 5 10 10 10 6 0 10 -4 10 -10z m475 0 c-3 -5 -12 -10
-18 -10 -7 0 -6 4 3 10 19 12 23 12 15 0z m-628 -20 c-1 -12 -5 -16 -10 -11
-5 5 -6 14 -3 20 11 16 15 13 13 -9z m27 -24 c-3 -9 -10 -16 -15 -16 -5 0 -4
9 3 20 14 22 21 20 12 -4z m-94 -56 c0 -5 -5 -10 -11 -10 -5 0 -7 5 -4 10 3 6
8 10 11 10 2 0 4 -4 4 -10z m-176 -115 c-4 -8 -11 -12 -16 -9 -6 4 -5 10 3 15
19 12 19 11 13 -6z m-89 -5 c4 -7 13 -7 24 0 12 6 22 5 29 -2 18 -18 14 -32
-3 -18 -12 10 -19 10 -27 2 -9 -9 -9 -12 0 -12 7 0 12 -4 12 -10 0 -19 -16
-10 -38 20 -13 17 -18 30 -13 30 5 0 13 -5 16 -10z m185 -4 c0 -3 -4 -8 -10
-11 -5 -3 -10 -1 -10 4 0 6 5 11 10 11 6 0 10 -2 10 -4z m-559 -209 c-7 -7
-14 -8 -21 -1 -6 6 -2 10 12 11 16 2 18 -1 9 -10z m-492 -77 c11 -24 11 -24
-3 -6 -9 11 -16 24 -16 30 0 12 5 7 19 -24z m245 14 c4 -10 1 -14 -6 -12 -15
5 -23 28 -10 28 5 0 13 -7 16 -16z m126 -14 c0 -5 -7 -7 -15 -4 -8 4 -15 8
-15 10 0 2 7 4 15 4 8 0 15 -4 15 -10z m-115 -20 c3 -5 1 -10 -4 -10 -6 0 -11
5 -11 10 0 6 2 10 4 10 3 0 8 -4 11 -10z m45 -4 c0 -3 -4 -8 -10 -11 -5 -3
-10 -1 -10 4 0 6 5 11 10 11 6 0 10 -2 10 -4z"/>
<path d="M14451 20440 c2 -32 -2 -40 -22 -40 -25 0 -54 -26 -39 -35 14 -9 -6
-35 -26 -35 -17 0 -18 16 -3 26 8 4 7 9 -2 15 -23 15 -32 10 -27 -14 2 -13 -2
-29 -9 -36 -8 -7 -12 -19 -10 -26 4 -10 0 -10 -19 -1 -25 12 -32 26 -12 26 6
0 8 3 5 7 -10 10 -47 -28 -47 -48 0 -9 6 -20 13 -22 7 -3 5 -6 -5 -6 -10 -1
-18 4 -18 10 0 5 -5 7 -10 4 -6 -4 -8 -11 -5 -16 4 -5 1 -9 -4 -9 -6 0 -11 -5
-11 -11 0 -5 5 -7 10 -4 6 3 10 2 10 -4 0 -15 -21 -25 -29 -14 -3 5 -16 7 -29
4 -21 -6 -22 -7 -6 -29 12 -18 23 -23 45 -20 16 3 29 1 29 -3 0 -4 5 -20 11
-36 9 -25 12 -26 20 -10 6 9 7 22 3 29 -5 7 -3 8 6 3 10 -6 12 -4 7 8 -3 9 0
20 8 24 10 6 11 13 5 23 -9 13 -11 13 -20 0 -5 -8 -10 -11 -10 -6 0 5 -6 4
-13 -2 -21 -17 -74 -24 -80 -9 -3 8 7 12 35 11 27 0 37 3 34 12 -3 8 7 15 25
19 27 6 28 8 14 28 -18 26 -19 37 -3 37 6 0 8 -3 5 -7 -4 -3 2 -13 13 -20 11
-8 18 -19 15 -24 -4 -5 0 -9 7 -9 8 0 9 -3 3 -8 -11 -8 -18 -32 -9 -32 3 0 14
10 25 23 10 12 18 17 19 10 0 -16 66 22 80 46 5 9 10 12 10 8 0 -4 6 -2 14 5
10 10 11 16 3 27 -9 10 -7 16 7 26 14 11 15 17 7 34 -6 11 -11 28 -11 38 0 15
2 16 10 3 8 -12 10 -10 10 8 0 13 -4 21 -9 18 -5 -4 -12 0 -15 6 -4 9 -5 8 -5
-2z m-46 -120 c3 -5 -1 -10 -10 -10 -9 0 -13 5 -10 10 3 6 8 10 10 10 2 0 7
-4 10 -10z m0 -48 c-2 -2 -21 -5 -43 -7 -32 -3 -40 -1 -35 11 6 17 9 17 34 4
15 -9 19 -7 19 5 0 13 2 14 14 3 8 -7 13 -14 11 -16z"/>
<path d="M14502 20444 c4 -3 1 -23 -8 -42 -11 -26 -11 -37 -3 -43 6 -4 9 -11
5 -17 -3 -5 4 -12 15 -15 14 -4 18 -10 14 -19 -6 -10 -5 -10 5 -1 7 7 9 17 4
25 -13 20 -14 40 -3 60 7 14 6 20 -6 25 -12 4 -13 8 -5 13 8 5 6 9 -6 14 -10
4 -15 4 -12 0z"/>
<path d="M14410 20432 c0 -5 7 -13 16 -16 10 -4 14 -1 12 6 -5 15 -28 23 -28
10z"/>
<path d="M14348 20403 c6 -2 18 -2 25 0 6 3 1 5 -13 5 -14 0 -19 -2 -12 -5z"/>
<path d="M14820 20369 l-35 -31 32 22 c29 19 50 40 41 40 -2 0 -19 -14 -38
-31z"/>
<path d="M14185 20249 c-4 -6 -5 -12 -2 -15 2 -3 7 2 10 11 7 17 1 20 -8 4z"/>
<path d="M14425 20240 c-3 -5 -1 -10 4 -10 6 0 11 5 11 10 0 6 -2 10 -4 10 -3
0 -8 -4 -11 -10z"/>
<path d="M14340 20199 c0 -5 10 -9 22 -9 12 0 18 3 14 7 -10 11 -36 12 -36 2z"/>
<path d="M14390 20200 c0 -6 7 -10 15 -10 8 0 15 2 15 4 0 2 -7 6 -15 10 -8 3
-15 1 -15 -4z"/>
<path d="M14304 20176 c-18 -14 -16 -15 18 -13 40 2 49 11 22 21 -20 8 -17 8
-40 -8z"/>
<path d="M14534 20142 c-12 -9 -39 -30 -60 -47 -21 -16 -79 -63 -129 -102 -80
-65 -128 -92 -110 -63 3 6 13 10 20 10 9 0 12 6 9 15 -4 8 -2 15 4 15 5 0 12
9 15 21 4 15 2 18 -7 10 -7 -6 -22 -8 -33 -5 -16 5 -21 1 -20 -12 1 -10 -5
-19 -13 -19 -10 0 -14 -8 -12 -24 3 -19 0 -22 -20 -17 -13 3 -17 3 -10 0 18
-8 15 -28 -8 -49 -19 -17 -26 -12 -21 18 1 5 -3 6 -8 3 -5 -3 -8 -14 -6 -24 2
-9 4 -20 4 -24 1 -5 8 -8 16 -8 23 0 18 -13 -15 -45 -16 -16 -28 -31 -25 -33
2 -3 43 31 91 74 48 43 143 128 213 187 133 114 158 137 151 137 -3 -1 -14 -8
-26 -18z m-304 -242 c0 -5 -8 -10 -17 -10 -15 0 -16 2 -3 10 19 12 20 12 20 0z
m-35 -40 c-3 -5 -13 -10 -21 -10 -8 0 -12 5 -9 10 3 6 13 10 21 10 8 0 12 -4
9 -10z"/>
<path d="M14160 20140 c-8 -5 -10 -10 -5 -10 6 0 17 5 25 10 8 5 11 10 5 10
-5 0 -17 -5 -25 -10z"/>
<path d="M14210 20129 c0 -5 5 -7 10 -4 6 3 10 8 10 11 0 2 -4 4 -10 4 -5 0
-10 -5 -10 -11z"/>
<path d="M14283 20115 c-3 -9 -3 -18 -1 -21 3 -3 8 4 11 16 6 23 -1 27 -10 5z"/>
<path d="M14180 20110 c-9 -6 -10 -10 -3 -10 6 0 15 5 18 10 8 12 4 12 -15 0z"/>
<path d="M14330 20083 c0 -7 -7 -13 -15 -13 -8 0 -15 -5 -15 -11 0 -6 6 -9 14
-6 7 3 19 0 25 -6 17 -17 19 -5 4 23 -7 14 -13 19 -13 13z"/>
<path d="M13965 20040 c4 -6 11 -8 16 -5 14 9 11 15 -7 15 -8 0 -12 -5 -9 -10z"/>
<path d="M14316 20022 c-6 -10 30 -9 40 1 4 4 -2 7 -14 7 -11 0 -23 -4 -26 -8z"/>
<path d="M13915 19980 c3 -5 10 -10 16 -10 5 0 9 5 9 10 0 6 -7 10 -16 10 -8
0 -12 -4 -9 -10z"/>
<path d="M13785 19970 c-3 -5 -2 -10 4 -10 5 0 13 5 16 10 3 6 2 10 -4 10 -5
0 -13 -4 -16 -10z"/>
<path d="M13945 19956 c-15 -11 -17 -17 -7 -28 6 -8 9 -18 5 -21 -3 -4 -2 -7
4 -7 17 0 23 13 12 26 -11 14 -4 34 12 34 6 0 7 -5 3 -12 -4 -7 -3 -8 4 -4 7
4 12 11 12 17 0 13 -23 11 -45 -5z"/>
<path d="M13795 19939 c-4 -6 -5 -12 -2 -15 2 -3 7 2 10 11 7 17 1 20 -8 4z"/>
<path d="M13751 19894 c0 -11 3 -14 6 -6 3 7 2 16 -1 19 -3 4 -6 -2 -5 -13z"/>
<path d="M13896 19895 c-9 -25 -7 -29 7 -16 8 6 17 7 22 3 4 -4 6 -1 3 7 -6
21 -25 24 -32 6z"/>
<path d="M14097 19849 c7 -7 15 -10 18 -7 3 3 -2 9 -12 12 -14 6 -15 5 -6 -5z"/>
<path d="M22857 19797 c-4 -10 -7 -28 -6 -40 0 -21 1 -21 10 2 5 14 8 32 7 40
-3 13 -5 13 -11 -2z"/>
<path d="M13534 19784 c-18 -14 -18 -15 4 -4 12 6 22 13 22 15 0 8 -5 6 -26
-11z"/>
<path d="M13436 19663 c-6 -14 -5 -15 5 -6 7 7 10 15 7 18 -3 3 -9 -2 -12 -12z"/>
<path d="M13300 19642 c0 -4 9 -13 20 -20 11 -7 20 -9 20 -4 0 4 -9 13 -20 20
-11 7 -20 9 -20 4z"/>
<path d="M13845 19610 c3 -5 8 -10 11 -10 2 0 4 5 4 10 0 6 -5 10 -11 10 -5 0
-7 -4 -4 -10z"/>
<path d="M13687 19578 c-4 -12 -1 -27 5 -33 8 -7 9 -6 3 4 -4 8 -2 17 6 22 10
6 11 11 3 19 -8 8 -13 5 -17 -12z"/>
<path d="M13295 19560 c-3 -5 -1 -10 4 -10 6 0 11 5 11 10 0 6 -2 10 -4 10 -3
0 -8 -4 -11 -10z"/>
<path d="M22786 19519 c-19 -71 -29 -119 -23 -119 7 0 49 161 43 167 -2 3 -12
-19 -20 -48z"/>
<path d="M13272 19526 c7 -8 15 -12 17 -11 5 6 -10 25 -20 25 -5 0 -4 -6 3
-14z"/>
<path d="M20375 19418 l-60 -63 63 60 c58 55 67 65 59 65 -1 0 -29 -28 -62
-62z"/>
<path d="M13040 19407 c0 -19 16 -31 24 -18 3 5 -1 14 -9 21 -12 10 -15 10
-15 -3z"/>
<path d="M13631 19417 c2 -1 12 -9 22 -16 14 -12 17 -11 17 3 0 10 -8 16 -22
16 -12 0 -19 -1 -17 -3z"/>
<path d="M12980 19349 c0 -15 18 -19 23 -6 3 8 -1 14 -9 14 -8 0 -14 -4 -14
-8z"/>
<path d="M13580 19341 c0 -5 9 -7 20 -4 11 3 20 7 20 9 0 2 -9 4 -20 4 -11 0
-20 -4 -20 -9z"/>
<path d="M22726 19297 c-9 -23 -16 -52 -16 -62 0 -11 -7 -33 -15 -49 -8 -15
-15 -40 -14 -55 l0 -26 10 25 c15 36 59 203 55 207 -2 2 -11 -16 -20 -40z"/>
<path d="M13560 19310 c-13 -8 -12 -10 3 -10 9 0 17 -8 17 -17 0 -16 1 -16 18
0 15 16 15 19 2 27 -19 12 -21 12 -40 0z"/>
<path d="M12937 19295 c3 -8 9 -12 14 -9 12 7 11 11 -5 17 -10 4 -13 1 -9 -8z"/>
<path d="M13546 19282 c-3 -6 -1 -14 5 -17 15 -10 25 3 12 16 -7 7 -13 7 -17
1z"/>
<path d="M12851 19234 c0 -11 3 -14 6 -6 3 7 2 16 -1 19 -3 4 -6 -2 -5 -13z"/>
<path d="M13510 19240 c0 -5 5 -10 11 -10 5 0 7 5 4 10 -3 6 -8 10 -11 10 -2
0 -4 -4 -4 -10z"/>
<path d="M20164 19218 l-29 -33 33 29 c17 17 32 31 32 33 0 8 -8 1 -36 -29z"/>
<path d="M11610 19100 c0 -5 5 -10 10 -10 6 0 10 5 10 10 0 6 -4 10 -10 10 -5
0 -10 -4 -10 -10z"/>
<path d="M12696 19093 c-6 -14 -5 -15 5 -6 7 7 10 15 7 18 -3 3 -9 -2 -12 -12z"/>
<path d="M13365 19100 c-3 -5 1 -10 9 -10 9 0 16 5 16 10 0 6 -4 10 -9 10 -6
0 -13 -4 -16 -10z"/>
<path d="M22651 19024 c-6 -21 -9 -40 -7 -42 2 -2 9 13 16 33 7 20 10 39 7 42
-3 3 -10 -12 -16 -33z"/>
<path d="M11610 19026 c0 -24 17 -28 23 -6 3 13 0 20 -9 20 -8 0 -14 -6 -14
-14z"/>
<path d="M12591 18944 c0 -11 3 -14 6 -6 3 7 2 16 -1 19 -3 4 -6 -2 -5 -13z"/>
<path d="M19790 18858 c-52 -50 -72 -73 -45 -51 49 41 154 143 145 143 -3 -1
-48 -42 -100 -92z"/>
<path d="M12495 18850 c-3 -5 1 -10 10 -10 9 0 13 5 10 10 -3 6 -8 10 -10 10
-2 0 -7 -4 -10 -10z"/>
<path d="M19577 18663 c-56 -53 -129 -122 -162 -154 -142 -134 -192 -181 -326
-309 -143 -137 -304 -296 -370 -367 -61 -64 -294 -286 -328 -312 -17 -13 -28
-27 -25 -32 3 -5 0 -9 -7 -9 -14 0 -6 8 -176 -158 -73 -71 -133 -133 -133
-140 0 -6 -8 -13 -19 -17 -18 -5 -161 -139 -161 -150 0 -7 -79 -85 -85 -85
-11 0 -115 -83 -115 -91 0 -5 -6 -9 -14 -9 -8 0 -16 -7 -20 -15 -3 -8 -12 -15
-21 -15 -8 0 -15 -7 -15 -16 0 -8 -4 -12 -10 -9 -9 6 -11 2 -14 -35 -1 -8 -8
-14 -15 -12 -7 1 -10 -2 -6 -7 3 -6 -3 -18 -15 -28 -11 -10 -20 -20 -20 -24 0
-19 -145 -170 -182 -190 l-21 -12 21 28 c12 15 20 31 17 35 -3 4 2 13 10 20
18 15 20 34 3 24 -7 -4 -8 -3 -4 5 4 6 12 9 17 6 10 -7 62 45 54 53 -2 3 3 10
12 17 14 11 14 12 -4 17 -13 4 -29 -3 -44 -17 -43 -40 -67 -73 -61 -81 4 -5 0
-3 -9 4 -14 10 -17 9 -22 -8 -6 -22 -27 -28 -27 -7 0 9 -2 9 -9 -1 -7 -11 -9
-11 -14 2 -5 11 -1 16 13 16 11 0 20 4 20 9 0 19 -31 81 -41 81 -5 0 -7 -4 -4
-10 11 -17 -7 -11 -21 8 -12 16 -12 16 -11 -2 1 -10 -4 -21 -12 -24 -9 -3 -11
1 -7 16 6 19 4 20 -24 12 -17 -5 -34 -9 -38 -9 -4 -1 -7 -5 -7 -10 0 -5 -3
-13 -7 -17 -5 -4 -8 -3 -8 3 0 6 -11 9 -25 8 -14 -2 -27 1 -31 6 -10 16 -22 0
-17 -21 4 -15 11 -19 25 -14 19 6 19 5 1 -15 -9 -12 -22 -21 -28 -21 -5 0 -4
4 4 9 9 6 10 11 2 15 -17 11 -32 -4 -26 -24 3 -10 1 -21 -5 -25 -5 -3 -10 0
-10 8 0 8 -7 18 -16 21 -13 5 -15 2 -11 -14 3 -11 1 -20 -5 -20 -6 0 -8 -6 -5
-14 6 -14 -19 -31 -37 -27 -4 1 -5 -10 -2 -24 5 -21 3 -25 -14 -25 -12 0 -18
-5 -15 -10 4 -6 11 -8 16 -5 14 9 11 -5 -6 -21 -8 -9 -15 -24 -15 -35 0 -10
-4 -19 -9 -19 -13 0 -23 -71 -27 -193 -2 -56 -4 -123 -6 -150 -2 -26 1 -47 6
-47 5 0 1 -9 -9 -20 -10 -11 -15 -20 -11 -20 3 0 -1 -12 -10 -27 -18 -30 223
210 741 737 373 380 1503 1503 1879 1868 137 133 246 242 242 242 -5 0 -54
-44 -109 -97z m-2157 -2016 c0 -8 -7 -14 -15 -14 -11 0 -12 4 -4 14 6 7 13 13
15 13 2 0 4 -6 4 -13z m-147 -31 c7 -18 -33 -13 -44 6 -7 12 -4 14 16 11 13
-3 26 -11 28 -17z m117 -6 c0 -5 -5 -10 -11 -10 -5 0 -7 5 -4 10 3 6 8 10 11
10 2 0 4 -4 4 -10z m-70 -70 c0 -5 -5 -10 -11 -10 -5 0 -7 5 -4 10 3 6 8 10
11 10 2 0 4 -4 4 -10z"/>
<path d="M12370 18739 c0 -5 5 -7 10 -4 6 3 10 8 10 11 0 2 -4 4 -10 4 -5 0
-10 -5 -10 -11z"/>
<path d="M12326 18708 c3 -5 10 -6 15 -3 13 9 11 12 -6 12 -8 0 -12 -4 -9 -9z"/>
<path d="M12075 18680 c-3 -6 1 -7 9 -4 18 7 21 14 7 14 -6 0 -13 -4 -16 -10z"/>
<path d="M12060 18630 c0 -5 5 -10 11 -10 5 0 7 5 4 10 -3 6 -8 10 -11 10 -2
0 -4 -4 -4 -10z"/>
<path d="M11730 18590 c0 -5 5 -10 10 -10 6 0 10 5 10 10 0 6 -4 10 -10 10 -5
0 -10 -4 -10 -10z"/>
<path d="M11823 18515 c-3 -9 -3 -19 1 -22 3 -4 6 1 6 11 0 10 5 14 12 10 7
-4 8 -3 4 4 -10 16 -15 15 -23 -3z"/>
<path d="M22208 18413 c17 -7 15 -23 -4 -23 -8 0 -12 -4 -9 -10 3 -5 -1 -10
-10 -10 -9 0 -14 -4 -11 -9 3 -5 -2 -15 -12 -22 -15 -13 -16 -12 -3 4 11 14
11 17 -1 17 -7 0 -22 -16 -32 -35 -14 -25 -22 -32 -28 -23 -6 10 -8 10 -8 0 0
-9 -7 -11 -22 -7 -18 6 -21 5 -11 -5 8 -9 9 -19 2 -32 -5 -10 -7 -23 -3 -29 4
-8 0 -7 -15 0 -19 11 -21 9 -21 -14 0 -15 -4 -24 -10 -20 -5 3 -10 -3 -10 -14
0 -12 -5 -21 -11 -21 -8 0 -8 -4 -1 -13 8 -10 5 -13 -16 -12 -21 0 -27 -5 -27
-22 -1 -24 -7 -28 -28 -20 -9 4 -9 6 1 6 14 1 17 21 3 21 -10 0 -35 -59 -32
-74 1 -4 -6 -15 -16 -23 -10 -8 -13 -12 -6 -9 8 5 8 0 0 -18 -7 -13 -15 -22
-19 -20 -5 3 -8 0 -8 -5 0 -6 -9 -11 -19 -11 -24 0 -36 -16 -19 -23 7 -3 2 -6
-12 -6 -15 -1 -32 5 -40 12 -12 10 -12 9 -1 -5 7 -10 21 -18 30 -18 14 0 17
-7 13 -31 -3 -21 -9 -29 -18 -25 -21 8 -61 -10 -73 -33 -10 -18 -9 -19 17 -12
22 7 28 5 28 -8 0 -12 -10 -16 -38 -16 -27 0 -37 4 -33 13 3 6 8 18 11 26 3 9
-2 13 -18 11 -40 -4 -44 -7 -18 -15 23 -7 23 -8 4 -9 -14 -1 -24 -10 -28 -23
-5 -22 -6 -22 -19 -4 -11 15 -16 16 -22 6 -6 -9 -4 -11 5 -5 8 5 11 3 8 -5 -2
-7 -12 -14 -22 -16 -30 -4 -29 -12 3 -19 17 -3 36 -3 43 1 10 6 11 5 1 -8 -7
-8 -9 -19 -5 -24 4 -4 0 -3 -10 4 -13 10 -17 10 -21 0 -4 -8 -6 -7 -6 5 -1 17
-21 25 -21 7 0 -5 -7 -7 -15 -4 -10 4 -15 0 -15 -11 0 -15 -3 -15 -16 -5 -13
12 -14 10 -3 -14 9 -18 15 -23 20 -14 4 7 11 10 14 7 3 -4 -3 -17 -14 -30 -20
-24 -27 -18 -22 20 2 7 -2 10 -8 6 -6 -3 -11 1 -11 9 0 9 -4 16 -10 16 -5 0
-7 -7 -4 -15 4 -9 0 -15 -7 -15 -12 0 -12 -2 -1 -9 11 -7 11 -11 -2 -23 -8 -9
-12 -18 -9 -22 4 -3 2 -6 -3 -6 -24 0 -33 23 -17 46 14 22 14 24 -1 24 -11 0
-14 -4 -10 -12 5 -8 0 -7 -11 2 -17 14 -18 13 -12 -3 4 -10 3 -27 -3 -37 -7
-14 -6 -17 7 -16 12 1 17 -6 16 -21 -1 -38 -3 -43 -12 -43 -4 0 -7 11 -6 25 2
14 -1 25 -6 25 -5 0 -9 -6 -9 -14 0 -8 -8 -13 -17 -12 -11 0 -18 -6 -18 -16 0
-28 -12 -30 -19 -3 -6 24 -36 36 -36 14 0 -5 5 -7 10 -4 6 3 10 2 10 -2 0 -5
-10 -13 -22 -18 -13 -6 -23 -19 -24 -30 -2 -37 -4 -38 -25 -19 -22 19 -22 19
-10 -4 15 -27 0 -52 -30 -52 -20 0 -23 -35 -5 -60 9 -13 9 -13 -6 -2 -9 7 -18
9 -20 5 -3 -4 -3 -2 -2 5 4 14 -42 -13 -54 -33 -4 -7 -18 -16 -31 -20 -16 -5
-21 -4 -17 4 11 17 -11 13 -34 -6 -24 -21 -100 -45 -100 -31 0 5 -5 6 -12 2
-7 -5 -9 -2 -5 8 4 12 1 14 -14 11 -25 -7 -26 25 -1 34 23 9 47 34 56 57 5 15
4 17 -8 7 -8 -7 -17 -8 -20 -3 -6 10 -46 23 -46 16 0 -3 10 -9 23 -15 19 -8
18 -9 -8 -4 -16 3 -38 6 -47 6 -10 0 -20 4 -23 10 -4 5 4 9 17 9 18 0 20 2 8
10 -20 13 -39 -6 -33 -33 4 -18 3 -19 -6 -7 -10 15 -12 13 -15 -12 0 -6 -7
-13 -14 -16 -7 -2 -10 2 -6 11 3 8 -2 17 -11 21 -9 3 -18 0 -21 -9 -4 -8 -11
-12 -17 -8 -6 4 -8 0 -4 -10 6 -16 4 -16 -24 -2 -18 10 -27 20 -22 28 4 7 0 7
-10 -2 -19 -15 -23 -26 -6 -15 7 4 10 1 7 -7 -3 -8 -13 -16 -23 -17 -12 -3
-15 0 -9 10 5 8 -3 6 -20 -6 -23 -15 -30 -16 -37 -5 -9 15 -13 6 -10 -24 2
-15 -1 -16 -22 -6 -26 12 -67 -1 -67 -21 0 -6 -9 -10 -21 -10 -11 0 -17 -4
-14 -10 3 -5 -1 -10 -9 -10 -9 0 -16 -8 -16 -19 0 -11 -5 -23 -12 -27 -7 -5
-8 -3 -3 6 5 8 3 11 -6 8 -8 -3 -13 -11 -11 -17 1 -7 -2 -10 -7 -7 -5 4 -13 1
-17 -5 -5 -8 -8 -8 -14 1 -5 8 -9 6 -12 -7 -10 -39 85 -22 97 17 3 11 11 18
16 14 5 -3 0 -17 -11 -31 -11 -14 -20 -32 -20 -39 0 -21 -47 -29 -65 -10 -9 9
-21 16 -26 16 -6 0 -3 -8 7 -17 16 -17 16 -18 1 -21 -10 -2 -14 -8 -10 -14 4
-7 0 -9 -10 -5 -10 3 -17 2 -17 -4 0 -6 -4 -7 -10 -4 -5 3 -16 3 -22 -2 -7 -4
-26 -6 -41 -4 -17 1 -37 -5 -48 -14 -13 -13 -34 -17 -73 -16 -31 0 -58 -4 -62
-10 -5 -8 -8 -8 -13 0 -5 7 -15 6 -33 -3 -20 -11 -28 -11 -31 -3 -3 9 -8 9
-18 0 -15 -15 -43 -17 -34 -3 3 6 1 10 -4 10 -6 0 -11 -4 -11 -10 0 -5 -8 -10
-17 -10 -14 0 -15 -2 -5 -9 9 -5 -5 -9 -38 -10 -28 0 -55 -3 -59 -6 -5 -2 -6
7 -3 20 4 23 13 30 35 26 4 0 7 5 7 12 0 10 -14 13 -52 12 -29 -1 -61 2 -71 7
-9 5 -16 5 -15 1 3 -8 -5 -13 -22 -13 -5 0 -7 7 -3 16 5 14 3 15 -15 5 -12 -7
-22 -9 -22 -5 0 3 -8 0 -17 -7 -15 -12 -16 -12 -10 3 3 10 2 20 -3 23 -6 4
-10 -1 -10 -11 0 -13 -3 -14 -14 -5 -11 9 -15 8 -20 -5 -6 -15 -8 -15 -28 2
-21 18 -21 18 -15 0 6 -14 3 -17 -8 -12 -8 3 -15 0 -16 -7 0 -7 -4 -3 -9 8 -5
11 -9 14 -9 6 -1 -8 -7 -11 -17 -7 -8 3 -13 2 -10 -3 3 -5 -1 -11 -9 -14 -8
-4 -16 2 -20 13 -5 16 -9 17 -25 8 -10 -7 -17 -15 -14 -19 2 -4 -7 -9 -21 -11
-13 -3 -26 0 -29 6 -3 7 -5 7 -5 -1 -1 -18 -31 -16 -31 1 0 8 -4 18 -10 21 -5
3 -7 0 -5 -7 8 -20 -63 -52 -80 -38 -10 8 -19 8 -34 0 -14 -7 -21 -7 -21 0 0
5 -5 10 -11 10 -5 0 -7 -4 -4 -10 3 -6 -4 -10 -17 -10 -18 0 -20 2 -8 10 13 8
12 10 -2 10 -10 0 -18 -5 -18 -11 0 -8 -5 -8 -15 1 -10 9 -15 9 -15 1 0 -6 -4
-11 -10 -11 -5 0 -7 7 -4 15 5 11 0 13 -25 5 -18 -5 -33 -5 -36 0 -3 5 -12 7
-20 3 -24 -9 -17 7 8 17 19 8 18 9 -10 6 -36 -5 -39 -2 -20 19 29 34 37 45 37
55 0 6 -4 9 -8 6 -4 -2 -9 4 -9 15 -2 22 8 24 25 7 9 -9 12 -8 12 5 0 9 -5 17
-12 17 -6 0 -3 9 7 20 10 11 14 20 9 21 -5 0 2 5 15 10 15 6 21 14 17 24 -3 9
1 18 9 21 17 7 21 34 5 34 -5 0 -10 -6 -10 -14 0 -8 -9 -18 -20 -21 -11 -3
-20 -10 -20 -14 0 -4 -13 -21 -30 -37 -16 -16 -30 -37 -30 -46 0 -10 -6 -18
-14 -18 -8 0 -16 -6 -19 -12 -3 -7 -58 -76 -122 -153 -64 -77 -164 -200 -223
-274 -59 -73 -154 -190 -211 -260 -56 -69 -163 -200 -236 -291 -73 -91 -160
-199 -194 -240 -131 -159 -161 -200 -149 -200 13 0 275 44 451 75 601 106
1114 271 1625 523 368 181 672 388 1035 706 213 185 317 270 317 257 0 -6 -4
-11 -8 -11 -10 0 -37 -51 -33 -63 1 -5 -4 -5 -10 -1 -8 5 -10 -1 -7 -19 3 -15
2 -24 -3 -21 -4 2 -13 -4 -19 -13 -9 -15 -10 -14 -4 7 6 24 6 24 -10 5 -8 -11
-16 -26 -16 -32 0 -7 -11 -15 -25 -19 -14 -4 -24 -9 -21 -11 3 -3 -13 -23 -34
-43 -22 -21 -40 -43 -40 -49 0 -6 -5 -11 -11 -11 -5 0 -7 -5 -3 -12 4 -6 3 -8
-3 -5 -15 9 -66 -40 -57 -55 4 -6 3 -8 -4 -5 -5 4 -17 4 -26 1 -13 -5 -14 -9
-4 -21 10 -12 9 -14 -3 -13 -28 4 -38 0 -33 -15 4 -10 0 -15 -15 -15 -12 0
-24 -6 -27 -14 -3 -8 -14 -16 -25 -19 -11 -3 -18 -11 -17 -18 2 -8 -7 -15 -19
-17 -14 -2 -20 -8 -16 -18 3 -9 -1 -14 -13 -14 -23 0 -84 -41 -84 -57 0 -7 -8
-13 -18 -13 -10 0 -25 -9 -35 -20 -9 -11 -23 -20 -32 -20 -9 0 -12 -6 -8 -16
4 -11 1 -15 -13 -12 -12 2 -23 -5 -29 -20 -5 -12 -15 -20 -22 -18 -6 3 -17 -3
-25 -11 -11 -15 -10 -16 7 -10 20 7 20 7 0 -8 -11 -9 -25 -13 -32 -11 -7 3
-13 -2 -14 -12 0 -12 -2 -13 -6 -3 -4 9 -10 3 -19 -18 -12 -29 -24 -35 -64
-32 -10 0 -11 -1 -2 -5 6 -3 12 -10 12 -15 0 -6 -4 -8 -9 -5 -5 3 -12 -1 -15
-10 -5 -14 -9 -14 -23 -3 -15 12 -16 12 -10 -3 7 -21 -3 -24 -21 -6 -8 8 -12
9 -12 1 0 -6 -14 -14 -31 -18 -17 -4 -33 -13 -36 -21 -3 -8 -11 -14 -17 -14
-20 0 -58 -41 -52 -57 3 -8 1 -11 -4 -8 -6 3 -10 3 -10 -2 0 -4 -19 -9 -41
-10 -23 0 -45 -6 -48 -11 -3 -6 -19 -14 -34 -17 -27 -7 -47 -25 -28 -25 6 0
11 -4 11 -10 0 -5 -9 -6 -22 -1 -21 8 -34 4 -78 -21 -8 -4 -22 -11 -30 -14 -8
-3 -32 -14 -52 -24 -20 -11 -46 -20 -57 -20 -12 0 -21 -4 -21 -9 0 -5 -16 -12
-35 -15 -19 -4 -35 -12 -35 -19 0 -7 -8 -13 -17 -13 -45 -2 -153 -40 -153 -53
0 -4 -35 -13 -77 -19 -43 -7 -79 -17 -81 -22 -2 -6 -10 -10 -18 -10 -8 0 -26
-7 -39 -16 -13 -9 -29 -13 -34 -10 -5 4 -12 2 -16 -4 -3 -5 -15 -10 -26 -10
-10 0 -19 -4 -19 -10 0 -5 -3 -9 -7 -8 -5 1 -29 -7 -55 -19 -26 -12 -70 -24
-99 -27 -28 -3 -57 -10 -63 -15 -6 -5 -29 -12 -51 -15 -22 -2 -60 -11 -85 -20
-25 -8 -64 -18 -88 -22 -23 -4 -45 -11 -48 -15 -3 -5 -17 -9 -32 -9 -15 0 -47
-8 -72 -16 -25 -9 -72 -19 -105 -21 -33 -3 -87 -9 -120 -14 -33 -5 -85 -12
-115 -15 -30 -3 -60 -10 -67 -16 -7 -6 -13 -8 -13 -6 0 3 -21 1 -47 -3 -212
-35 -256 -40 -287 -29 -35 12 -19 27 -181 -170 -51 -63 -121 -144 -154 -180
-34 -36 -110 -123 -169 -194 -59 -71 -156 -183 -217 -250 -60 -67 -137 -153
-170 -191 -33 -38 -77 -89 -99 -112 -45 -50 -58 -47 139 -33 986 72 1750 321
2365 773 182 134 261 189 265 185 8 -8 -123 -124 -135 -120 -8 3 -10 0 -6 -7
4 -6 1 -11 -7 -11 -8 0 -22 -11 -31 -25 -20 -30 -293 -235 -314 -235 -4 0 -23
-11 -42 -25 -19 -14 -42 -25 -51 -25 -10 0 -19 -4 -21 -9 -3 -8 -121 -71 -133
-71 -11 0 -75 -34 -75 -40 0 -4 -6 -7 -12 -7 -7 0 -34 -10 -60 -21 -26 -12
-51 -22 -56 -22 -5 0 -15 -7 -22 -15 -7 -8 -16 -12 -22 -9 -5 3 -14 2 -21 -3
-7 -5 -46 -22 -87 -37 -41 -15 -98 -37 -126 -47 -113 -44 -453 -131 -714 -182
-235 -47 -523 -82 -774 -96 l-138 -7 -67 -70 c-36 -38 -96 -103 -133 -144 -99
-111 -933 -940 -1073 -1066 -110 -100 -531 -477 -611 -549 -19 -16 -105 -91
-193 -165 -135 -115 -162 -142 -175 -179 -15 -41 -15 -47 0 -69 l16 -25 227 7
c124 4 271 11 326 16 55 5 179 13 275 19 430 26 645 52 1015 122 449 85 866
197 1200 322 422 158 863 359 1130 515 33 19 74 43 90 52 150 87 576 372 711
476 331 254 441 350 714 624 283 283 520 548 695 779 360 475 757 1092 739
1147 -4 15 -4 16 4 5 8 -11 18 2 46 57 20 40 33 72 29 71 -19 -3 -25 2 -14 14
6 8 12 23 14 35 2 12 16 36 32 52 25 26 27 32 15 40 -13 8 -12 10 3 10 24 0
22 -12 -13 -77 -17 -31 -28 -58 -26 -60 2 -2 29 46 60 106 31 61 52 111 46
111 -5 0 -10 -6 -10 -13 0 -7 -6 -22 -14 -33 -14 -18 -15 -18 -21 -1 -5 11 0
26 11 39 14 15 16 22 7 25 -7 3 -13 9 -13 15 0 7 4 7 13 0 8 -7 18 -7 27 -2
12 8 13 10 1 10 -11 0 -11 4 2 18 10 10 17 30 17 44 0 14 7 28 15 32 8 3 15
11 15 17 0 8 -4 8 -15 -1 -8 -7 -15 -8 -15 -3 0 14 35 53 47 53 6 0 13 23 15
52 4 35 11 56 23 63 38 23 44 32 49 74 5 49 17 66 40 58 13 -5 14 -12 6 -33
-19 -50 -4 -34 24 25 23 48 26 62 17 80 -7 12 -8 21 -2 21 5 0 11 -8 13 -17 2
-9 27 39 56 106 29 68 51 125 49 127 -4 4 -9 -6 -47 -89 -15 -32 -26 -45 -32
-39 -6 6 -7 16 -2 24 5 7 9 33 10 58 2 77 15 131 32 137 24 9 53 40 50 54 -2
6 3 14 11 17 8 2 11 0 7 -6 -3 -6 -2 -13 3 -17 6 -3 5 -23 -4 -52 -8 -26 -13
-49 -11 -51 6 -5 126 307 126 327 0 3 -7 -4 -15 -16 -23 -32 -50 -35 -52 -5
-1 26 20 55 49 65 15 5 16 18 12 95 -4 78 -2 91 16 112 11 12 17 26 15 31 -3
4 0 11 6 15 8 5 9 3 4 -6 -5 -8 -3 -11 6 -8 11 4 14 26 14 93 0 81 -2 88 -22
96 -15 5 -23 3 -27 -7 -5 -12 -1 -14 15 -9 15 5 19 4 15 -4 -10 -15 -31 -14
-45 3 -8 9 -8 15 -1 18 5 1 1 9 -11 16 -12 8 -18 9 -14 3 3 -6 -1 -11 -9 -11
-22 0 -20 13 4 35 19 17 20 17 20 1 0 -9 5 -14 10 -11 8 5 7 11 -1 21 -6 7
-15 11 -20 8 -5 -3 -9 -1 -9 5 0 5 6 12 13 14 6 3 -1 5 -18 5 -16 0 -24 -2
-17 -5z m-35 -100 c-7 -2 -19 -2 -25 0 -7 3 -2 5 12 5 14 0 19 -2 13 -5z m79
-21 c-7 -2 -9 -9 -5 -15 4 -7 0 -8 -11 -4 -10 4 -20 7 -24 7 -3 0 3 6 13 14
11 8 24 12 29 8 6 -3 5 -7 -2 -10z m58 -14 c0 -11 -12 -10 -30 2 -12 7 -10 9
8 7 12 0 22 -5 22 -9z m-215 -36 c-3 -3 -11 0 -18 7 -9 10 -8 11 6 5 10 -3 15
-9 12 -12z m-245 -318 c0 -2 -7 -4 -15 -4 -8 0 -15 4 -15 10 0 5 7 7 15 4 8
-4 15 -8 15 -10z m-190 -124 c0 -5 -4 -10 -10 -10 -5 0 -10 5 -10 10 0 6 5 10
10 10 6 0 10 -4 10 -10z m43 -24 c3 -8 -2 -16 -14 -19 -10 -3 -17 -1 -13 4 3
5 -1 9 -8 9 -9 0 -9 3 2 10 20 13 27 12 33 -4z m-43 -20 c0 -3 -4 -8 -10 -11
-5 -3 -10 -1 -10 4 0 6 5 11 10 11 6 0 10 -2 10 -4z m-45 -57 c11 -16 1 -19
-13 -3 -7 8 -8 14 -3 14 5 0 13 -5 16 -11z m-295 -159 c0 -5 -9 -10 -21 -10
-11 0 -17 5 -14 10 3 6 13 10 21 10 8 0 14 -4 14 -10z m-80 -124 c-7 -7 -13
-7 -20 0 -6 6 -3 10 10 10 13 0 16 -4 10 -10z m-353 -28 c-3 -8 -6 -5 -6 6 -1
11 2 17 5 13 3 -3 4 -12 1 -19z m1147 8 c-3 -8 -1 -23 4 -33 8 -14 6 -25 -7
-42 -11 -14 -21 -19 -25 -13 -3 5 1 12 9 16 21 8 19 27 -2 20 -17 -5 -17 -5 0
6 9 6 15 16 11 21 -6 10 1 39 10 39 3 0 3 -6 0 -14z m-1324 0 c0 -3 -4 -8 -10
-11 -5 -3 -10 -1 -10 4 0 6 5 11 10 11 6 0 10 -2 10 -4z m545 -24 c-3 -3 -11
0 -18 7 -9 10 -8 11 6 5 10 -3 15 -9 12 -12z m-650 -12 c3 -5 1 -10 -4 -10 -6
0 -11 5 -11 10 0 6 2 10 4 10 3 0 8 -4 11 -10z m261 -10 c6 6 14 2 22 -10 7
-12 8 -20 2 -20 -5 0 -10 5 -10 10 0 6 -4 10 -10 10 -5 0 -7 -6 -4 -13 3 -8
-2 -14 -10 -14 -8 0 -12 6 -9 14 3 7 -2 13 -12 13 -9 0 -13 -4 -10 -10 3 -5
-2 -10 -12 -11 -16 0 -16 -1 2 -9 19 -8 19 -9 -2 -9 -27 -1 -29 8 -6 36 12 15
22 19 34 13 9 -5 20 -5 25 0z m-331 -10 c3 -5 1 -10 -4 -10 -6 0 -11 5 -11 10
0 6 2 10 4 10 3 0 8 -4 11 -10z m-45 -44 c0 -11 -19 -15 -25 -6 -3 5 1 10 9
10 9 0 16 -2 16 -4z m71 -49 c-1 -12 -15 -9 -19 4 -3 6 1 10 8 8 6 -3 11 -8
11 -12z m-46 -27 c-3 -5 -14 -10 -23 -10 -15 0 -15 2 -2 10 20 13 33 13 25 0z
m-760 -158 c-1 -1 -17 1 -36 5 l-34 7 30 12 c26 10 31 10 36 -4 4 -10 6 -18 4
-20z m-75 14 c0 -3 -4 -8 -10 -11 -5 -3 -10 -1 -10 4 0 6 5 11 10 11 6 0 10
-2 10 -4z m-425 -55 c3 -5 1 -12 -5 -16 -5 -3 -10 1 -10 9 0 18 6 21 15 7z
m90 -1 c3 -6 -4 -10 -17 -10 -18 0 -20 2 -8 10 19 12 18 12 25 0z m2335 -390
c0 -5 -5 -10 -11 -10 -5 0 -7 5 -4 10 3 6 8 10 11 10 2 0 4 -4 4 -10z m-1240
-40 c0 -5 -4 -10 -10 -10 -5 0 -10 5 -10 10 0 6 5 10 10 10 6 0 10 -4 10 -10z
m-66 -38 c3 -5 -1 -9 -9 -9 -8 0 -15 4 -15 9 0 4 4 8 9 8 6 0 12 -4 15 -8z
m1257 -65 c-1 -4 -3 -7 -6 -7 -40 0 -40 0 -25 10 16 10 32 9 31 -3z m-11 -30
c0 -19 -26 -52 -32 -41 -8 13 9 54 22 54 5 0 10 -6 10 -13z m-1610 -101 c0 -2
-7 -6 -15 -10 -8 -3 -15 -1 -15 4 0 6 7 10 15 10 8 0 15 -2 15 -4z m50 0 c0
-2 -7 -9 -15 -16 -13 -11 -14 -10 -9 4 5 14 24 23 24 12z m-57 -63 c11 4 14 1
10 -9 -3 -7 -8 -14 -12 -14 -11 0 -31 23 -31 35 0 5 4 4 9 -4 5 -8 16 -11 24
-8z"/>
<path d="M22450 18390 c-7 -17 -10 -33 -8 -36 3 -3 11 9 17 27 14 42 7 49 -9
9z"/>
<path d="M22325 18359 c-4 -6 -5 -12 -2 -15 2 -3 7 2 10 11 7 17 1 20 -8 4z"/>
<path d="M12790 18340 c0 -5 5 -10 11 -10 5 0 7 5 4 10 -3 6 -8 10 -11 10 -2
0 -4 -4 -4 -10z"/>
<path d="M22086 18342 c-2 -4 4 -8 15 -8 10 0 19 4 19 8 0 4 -6 8 -14 8 -8 0
-17 -4 -20 -8z"/>
<path d="M22315 18120 c-3 -5 -1 -10 4 -10 6 0 11 5 11 10 0 6 -2 10 -4 10 -3
0 -8 -4 -11 -10z"/>
<path d="M21823 18013 c-7 -2 -13 -14 -13 -24 0 -25 16 -17 23 11 3 11 4 20 4
19 -1 0 -8 -3 -14 -6z"/>
<path d="M22311 17998 c-5 -13 -17 -42 -26 -65 -10 -23 -15 -47 -13 -53 2 -7
16 22 30 64 15 42 25 76 22 76 -2 0 -8 -10 -13 -22z"/>
<path d="M21729 17907 c-16 -12 -15 -37 1 -37 13 0 32 38 22 44 -4 2 -14 -1
-23 -7z"/>
<path d="M22215 17850 c-3 -5 -1 -10 4 -10 6 0 11 5 11 10 0 6 -2 10 -4 10 -3
0 -8 -4 -11 -10z"/>
<path d="M21473 17749 c-2 -16 1 -17 18 -8 21 11 19 21 -4 25 -7 1 -14 -7 -14
-17z"/>
<path d="M19270 17690 c0 -5 5 -10 11 -10 5 0 7 5 4 10 -3 6 -8 10 -11 10 -2
0 -4 -4 -4 -10z"/>
<path d="M21365 17630 c3 -5 8 -10 11 -10 2 0 4 5 4 10 0 6 -5 10 -11 10 -5 0
-7 -4 -4 -10z"/>
<path d="M19200 17591 c0 -5 5 -13 10 -16 6 -3 10 -2 10 4 0 5 -4 13 -10 16
-5 3 -10 2 -10 -4z"/>
<path d="M21260 17590 c0 -5 5 -10 10 -10 6 0 10 5 10 10 0 6 -4 10 -10 10 -5
0 -10 -4 -10 -10z"/>
<path d="M22110 17569 c0 -5 5 -7 10 -4 6 3 10 8 10 11 0 2 -4 4 -10 4 -5 0
-10 -5 -10 -11z"/>
<path d="M19170 17554 c0 -8 5 -12 10 -9 6 4 8 11 5 16 -9 14 -15 11 -15 -7z"/>
<path d="M21166 17473 c-6 -14 -5 -15 5 -6 7 7 10 15 7 18 -3 3 -9 -2 -12 -12z"/>
<path d="M19066 17421 c-4 -7 -5 -15 -2 -18 9 -9 19 4 14 18 -4 11 -6 11 -12
0z"/>
<path d="M19035 17390 c-3 -5 1 -10 10 -10 9 0 13 5 10 10 -3 6 -8 10 -10 10
-2 0 -7 -4 -10 -10z"/>
<path d="M20430 17360 c0 -5 5 -10 11 -10 5 0 7 5 4 10 -3 6 -8 10 -11 10 -2
0 -4 -4 -4 -10z"/>
<path d="M20184 17213 c-4 -13 -17 -23 -36 -27 -17 -3 -29 -9 -25 -12 13 -13
65 8 71 29 3 11 3 23 0 26 -3 3 -7 -4 -10 -16z"/>
<path d="M20270 17220 c-12 -8 -9 -10 13 -10 15 0 27 5 27 10 0 13 -20 13 -40
0z"/>
<path d="M20210 17210 c0 -5 5 -10 11 -10 5 0 7 5 4 10 -3 6 -8 10 -11 10 -2
0 -4 -4 -4 -10z"/>
<path d="M20395 17200 c-3 -5 -1 -10 4 -10 6 0 11 5 11 10 0 6 -2 10 -4 10 -3
0 -8 -4 -11 -10z"/>
<path d="M20011 17186 c-16 -9 -20 -16 -12 -20 6 -4 8 -12 5 -18 -4 -6 -1 -9
7 -6 8 3 14 11 14 19 0 8 4 20 8 27 10 15 8 15 -22 -2z"/>
<path d="M20070 17170 c-10 -18 -9 -19 15 -8 27 12 33 28 10 28 -8 0 -19 -9
-25 -20z"/>
<path d="M19828 17156 c-51 -16 -53 -21 -5 -21 32 0 43 4 45 18 2 9 2 17 0 16
-2 -1 -20 -6 -40 -13z"/>
<path d="M21935 17160 c-3 -5 -2 -10 4 -10 5 0 13 5 16 10 3 6 2 10 -4 10 -5
0 -13 -4 -16 -10z"/>
<path d="M19897 17154 c-4 -4 -7 -16 -7 -26 0 -15 5 -18 23 -12 12 4 24 10 27
14 3 5 16 10 30 12 l25 3 -23 7 c-13 4 -28 1 -35 -7 -9 -10 -14 -10 -22 2 -6
8 -14 11 -18 7z"/>
<path d="M19842 17108 c5 -15 28 -23 28 -10 0 5 -7 13 -16 16 -10 4 -14 1 -12
-6z"/>
<path d="M21921 17044 c-17 -37 -30 -68 -28 -71 3 -2 19 26 36 63 17 37 30 69
28 71 -3 2 -19 -26 -36 -63z"/>
<path d="M21870 17019 c0 -5 5 -7 10 -4 6 3 10 8 10 11 0 2 -4 4 -10 4 -5 0
-10 -5 -10 -11z"/>
<path d="M21826 16843 c-6 -14 -5 -15 5 -6 7 7 10 15 7 18 -3 3 -9 -2 -12 -12z"/>
<path d="M17490 16730 c0 -5 7 -10 15 -10 8 0 15 5 15 10 0 6 -7 10 -15 10 -8
0 -15 -4 -15 -10z"/>
<path d="M17285 16710 c-3 -5 -1 -10 4 -10 6 0 11 5 11 10 0 6 -2 10 -4 10 -3
0 -8 -4 -11 -10z"/>
<path d="M17453 16703 c-7 -3 -13 -8 -13 -13 0 -10 24 -7 28 4 5 11 -1 14 -15
9z"/>
<path d="M24050 16555 c-16 -20 -18 -149 -25 -2505 -5 -1853 -11 -2083 -66
-2445 -53 -353 -224 -971 -363 -1314 -148 -363 -387 -816 -568 -1075 -4 -6
-10 -7 -14 -4 -3 4 4 20 16 35 31 39 130 196 130 206 0 5 9 21 20 37 10 15 35
56 55 91 35 64 235 465 235 473 0 2 18 43 40 90 22 47 54 121 71 164 16 42 36
91 43 107 27 61 105 312 156 505 12 47 29 105 36 128 34 104 88 343 113 492
29 174 50 463 35 473 -5 3 -11 58 -12 122 -3 96 -1 116 10 109 11 -6 11 -5 0
8 -12 15 -11 72 1 84 3 4 1 16 -4 27 -8 14 -8 26 1 43 11 19 10 26 0 39 -11
14 -11 18 -1 25 9 5 10 9 2 14 -6 4 -8 13 -4 19 12 20 12 36 -2 47 -9 8 -10
21 -5 47 5 21 5 44 0 54 -5 9 -6 19 -2 23 3 4 -2 4 -13 0 -18 -7 -19 -6 -6 10
8 9 15 28 16 41 0 19 -2 22 -17 14 -14 -7 -16 -6 -12 6 4 8 1 15 -5 15 -6 0
-11 9 -11 21 0 16 -4 19 -20 14 -12 -4 -20 -2 -20 5 0 8 10 10 25 8 22 -5 24
-3 19 21 -4 14 -10 30 -15 35 -4 5 -5 15 -2 24 4 10 2 13 -5 8 -7 -4 -12 -3
-12 3 0 15 18 23 22 10 2 -6 15 -13 29 -14 24 -3 25 -1 15 21 l-11 23 -7 -22
c-6 -21 -6 -21 -7 3 -1 35 -37 38 -45 4 -4 -16 -14 -24 -29 -24 -22 -1 -22 -1
2 -14 24 -13 23 -14 -15 -12 -21 0 -39 -3 -38 -9 0 -5 -17 -26 -38 -46 -41
-39 -52 -41 -16 -2 12 13 16 23 10 23 -6 0 -14 -4 -17 -10 -3 -5 -16 -10 -28
-9 -22 0 -21 0 2 10 19 8 21 12 11 24 -7 8 -18 15 -24 15 -6 0 -4 -4 4 -10 17
-11 12 -18 -18 -23 -12 -2 -25 -7 -29 -11 -12 -11 26 -36 45 -28 14 5 15 4 2
-10 -8 -9 -17 -13 -20 -9 -3 3 -14 7 -25 8 -11 1 -14 0 -7 -3 12 -5 18 -54 6
-54 -3 0 -14 5 -25 10 -15 8 -21 7 -25 -4 -5 -12 -10 -11 -31 9 -15 14 -32 21
-42 17 -12 -4 -14 -2 -6 9 6 8 2 6 -9 -6 l-19 -20 7 25 c7 24 6 24 -8 6 -20
-25 -20 -45 -2 -52 15 -6 18 -44 3 -44 -4 0 -5 -4 -2 -10 3 -5 1 -10 -5 -10
-6 0 -8 11 -6 26 3 15 -1 36 -9 48 -11 14 -15 16 -15 6 0 -12 -2 -13 -9 -1 -5
7 -6 22 -4 32 3 10 0 19 -6 19 -6 0 -11 -6 -12 -12 0 -7 -4 -4 -8 6 -7 19 -8
19 -13 -2 -4 -15 -1 -23 13 -27 21 -7 26 -31 7 -38 -7 -2 -9 -8 -5 -13 4 -5
12 -2 17 6 7 12 12 12 22 2 9 -9 8 -12 -5 -12 -15 0 -16 -4 -7 -20 14 -26 -1
-26 -24 1 -14 17 -20 19 -26 9 -6 -9 -9 -6 -12 11 -2 18 -9 24 -28 24 -15 0
-25 -6 -25 -15 0 -10 -9 -14 -27 -12 -23 2 -26 -1 -23 -19 3 -16 0 -20 -13
-15 -16 6 -16 5 0 -7 13 -11 15 -16 6 -25 -16 -16 -31 -15 -25 1 6 16 0 26
-27 47 -12 9 -17 10 -12 3 4 -8 2 -13 -6 -13 -10 0 -10 -2 1 -9 19 -12 22 -68
4 -83 -12 -10 -17 -9 -25 6 -8 14 -12 15 -26 4 -15 -12 -16 -11 -3 5 12 15 11
17 -9 17 -19 0 -20 2 -10 15 10 12 9 15 -8 15 -24 0 -33 -18 -20 -42 6 -14 5
-18 -7 -18 -9 0 -13 -4 -10 -10 3 -5 2 -10 -3 -10 -14 0 -35 47 -27 61 6 9 1
10 -19 5 -16 -4 -26 -2 -26 4 0 6 -5 8 -11 4 -6 -3 -8 -17 -5 -30 5 -18 2 -24
-9 -24 -9 0 -13 -5 -10 -10 4 -6 10 -8 15 -5 4 3 13 -2 19 -9 8 -10 9 -16 1
-21 -6 -3 -7 -11 -4 -17 5 -7 10 -3 15 10 5 12 16 22 26 21 16 0 16 -1 -2 -9
-11 -5 -15 -9 -10 -9 6 -1 16 -10 23 -22 12 -18 11 -19 -6 -10 -12 6 -22 7
-28 1 -6 -6 -18 -4 -32 6 -19 13 -21 18 -10 32 8 10 8 13 1 9 -6 -4 -14 -1
-17 5 -3 9 -8 8 -16 -5 -6 -9 -15 -15 -21 -12 -5 4 -9 1 -9 -6 0 -6 8 -9 20
-6 11 3 18 1 14 -4 -9 -15 -32 -10 -43 9 -11 19 -20 17 -39 -10 -8 -10 -19
-15 -25 -11 -7 4 -6 -1 2 -11 13 -16 12 -16 -12 -5 -15 7 -23 17 -20 23 4 6
-1 5 -10 -3 -18 -15 -13 -35 8 -27 7 2 17 0 23 -6 12 -12 52 10 52 29 0 7 5
13 10 13 12 0 12 -17 0 -45 -6 -13 -9 -15 -9 -5 -1 11 -3 12 -9 3 -10 -16 -92
-12 -92 4 0 27 -38 13 -49 -17 -8 -25 -7 -30 5 -30 8 0 12 5 9 10 -3 6 -1 10
5 10 7 0 10 -6 7 -12 -5 -18 -77 -19 -77 -2 0 13 13 19 35 14 5 -1 7 2 3 6 -9
9 40 56 51 49 5 -2 13 7 19 20 10 22 9 25 -9 25 -18 0 -19 -2 -9 -15 11 -13
10 -14 -5 -9 -13 5 -16 4 -11 -4 4 -7 3 -12 -3 -12 -5 0 -22 -11 -37 -25 -30
-27 -50 -32 -57 -12 -3 7 -6 5 -6 -5 -1 -10 -7 -18 -13 -18 -10 0 -10 -2 0 -9
10 -6 10 -10 -3 -21 -11 -10 -18 -10 -29 -1 -11 10 -16 9 -23 -3 -4 -8 -12
-15 -18 -15 -5 0 -11 -8 -12 -18 -2 -15 -1 -15 6 2 9 18 10 18 10 -7 1 -20 -3
-25 -16 -23 -10 1 -17 8 -16 14 2 6 -1 11 -6 11 -5 0 -11 11 -13 25 -3 14 -1
25 4 25 5 0 6 5 3 10 -3 6 -2 10 2 10 5 0 9 9 9 19 0 11 -4 17 -8 15 -4 -3 -8
-12 -8 -20 0 -8 -6 -14 -13 -14 -7 0 -23 -11 -35 -25 -22 -25 -52 -34 -52 -15
0 5 6 7 14 4 8 -3 17 -1 21 5 3 7 -2 11 -15 11 -24 0 -39 -28 -20 -40 8 -5 9
-9 1 -14 -6 -4 -11 -3 -11 3 0 6 -9 15 -20 21 -16 9 -19 8 -13 -6 5 -14 3 -15
-17 -4 -19 10 -24 10 -32 -4 -5 -9 -20 -16 -34 -16 -15 0 -23 4 -19 10 4 6 8
22 11 36 4 21 2 23 -9 13 -7 -7 -12 -25 -11 -41 1 -15 -3 -28 -9 -28 -7 -1 1
-8 17 -16 26 -15 27 -17 13 -32 -15 -14 -18 -13 -38 12 -17 21 -24 25 -30 14
-5 -7 -9 -8 -9 -3 0 6 -9 11 -20 11 -12 0 -19 -5 -16 -13 3 -7 -1 -10 -9 -7
-10 4 -12 -1 -9 -18 5 -22 5 -22 -10 -4 -10 12 -13 29 -10 45 4 19 3 22 -4 12
-8 -12 -13 -12 -25 -2 -8 6 -17 8 -19 3 -1 -5 -18 -12 -36 -15 -25 -5 -31 -4
-26 6 5 9 4 9 -7 -1 -11 -10 -10 -15 4 -29 16 -16 17 -16 17 0 0 22 24 22 41
0 13 -16 12 -17 -3 -4 -16 12 -22 9 -19 -11 0 -5 -4 -8 -10 -8 -5 0 -7 -5 -3
-12 5 -8 2 -9 -9 -5 -10 4 -17 1 -17 -6 0 -7 -9 -1 -20 13 -11 14 -20 19 -20
12 0 -7 -4 -11 -9 -7 -6 3 -14 -3 -20 -12 -9 -16 -12 -16 -21 -3 -8 13 -10 13
-10 -2 0 -10 4 -18 9 -18 5 0 12 -7 15 -16 4 -10 2 -13 -7 -7 -20 12 -52 9
-60 -7 -9 -18 -3 16 7 40 5 11 0 16 -15 17 -14 1 -19 -3 -15 -13 3 -8 3 -21 0
-29 -5 -12 -10 -13 -20 -4 -10 8 -14 8 -14 1 0 -7 -8 -9 -17 -5 -15 5 -16 3
-5 -8 17 -18 15 -32 -4 -25 -8 3 -13 2 -10 -3 3 -5 -8 -11 -24 -13 -23 -4 -30
-1 -30 13 0 9 -9 19 -20 22 -13 3 -20 0 -20 -9 0 -8 7 -14 15 -14 8 0 15 -7
15 -16 0 -9 -5 -12 -12 -8 -10 6 -10 5 -1 -7 10 -12 8 -15 -8 -16 -11 -1 -17
2 -14 8 4 5 -5 9 -19 9 -14 0 -26 5 -26 10 0 6 -4 10 -10 10 -5 0 -6 -7 -3
-17 5 -12 3 -14 -7 -8 -8 5 -11 3 -8 -6 3 -8 18 -14 33 -14 16 -1 30 -6 33
-13 3 -9 -6 -11 -31 -7 -38 6 -72 -17 -42 -29 9 -3 13 -10 10 -16 -9 -15 -25
-12 -25 5 0 9 -7 18 -15 21 -8 4 -12 10 -9 16 3 5 -2 15 -12 23 -14 10 -21 10
-26 2 -12 -19 -9 -26 20 -42 l27 -16 -34 5 c-29 5 -32 4 -21 -9 7 -8 17 -12
24 -8 7 4 7 1 -1 -7 -10 -11 -15 -11 -28 0 -12 10 -15 10 -15 -1 0 -12 -2 -12
-9 0 -7 10 -13 11 -30 2 -11 -7 -21 -16 -21 -22 0 -6 -9 -8 -20 -4 -11 4 -20
2 -20 -4 0 -6 6 -11 13 -11 8 0 7 -4 -3 -10 -16 -10 -97 -11 -83 -1 13 10 15
49 2 57 -7 4 -9 3 -6 -3 4 -6 0 -14 -9 -17 -8 -3 -12 -2 -9 4 3 6 -1 10 -10
10 -9 0 -13 5 -10 10 4 6 11 8 16 5 5 -4 9 -2 9 4 0 19 -17 20 -32 1 -14 -16
-14 -19 -2 -24 17 -7 18 -33 2 -39 -7 -2 -21 3 -31 11 -17 15 -18 14 -12 -16
3 -20 1 -32 -5 -32 -6 0 -9 4 -6 9 3 4 -1 17 -9 27 -14 18 -15 18 -21 -4 -6
-21 -7 -21 -21 -5 -8 10 -12 12 -8 6 4 -8 0 -13 -10 -13 -11 0 -15 -5 -11 -16
3 -8 2 -13 -3 -10 -14 9 -21 48 -8 43 7 -2 21 7 31 21 11 14 14 22 7 18 -14
-9 -64 1 -57 12 2 4 -11 8 -29 9 -21 1 -35 -4 -39 -13 -3 -8 1 -14 9 -14 8 0
15 4 15 9 0 6 12 6 30 0 l30 -11 -19 -26 c-20 -28 -21 -32 -21 -58 0 -8 -5
-12 -10 -9 -7 4 -7 12 -2 18 4 7 7 22 6 34 -1 14 3 20 10 16 6 -4 5 1 -3 10
-10 13 -17 15 -27 6 -8 -6 -21 -9 -29 -5 -8 3 -25 1 -37 -4 -13 -5 -17 -9 -10
-9 24 -2 1 -21 -23 -21 -17 0 -23 4 -19 14 6 16 -19 16 -33 1 -4 -4 -2 -5 5
-1 11 7 13 3 16 -34 2 -15 -12 -30 -26 -30 -5 0 -8 5 -8 11 0 5 5 7 10 4 6 -3
10 -1 10 4 0 6 -6 11 -12 11 -9 0 -8 4 2 11 13 9 13 10 0 6 -10 -2 -15 -17
-16 -45 0 -23 -4 -45 -7 -49 -8 -7 -10 8 -8 52 1 21 -1 26 -7 17 -7 -11 -10
-11 -15 2 -9 24 -37 20 -37 -5 0 -17 -3 -19 -14 -10 -12 10 -13 8 -9 -11 5
-22 5 -22 -10 -3 -13 17 -17 18 -33 5 -18 -14 -18 -14 -1 7 14 16 15 23 6 29
-8 5 -10 3 -4 -6 6 -9 1 -10 -16 -5 -19 5 -21 4 -9 -4 13 -9 13 -11 -2 -11
-10 0 -18 -5 -18 -11 0 -5 -4 -8 -9 -4 -5 3 -12 1 -16 -4 -10 -17 -45 -8 -45
11 0 11 -5 15 -15 12 -8 -4 -12 -11 -8 -18 4 -6 6 -19 4 -29 -1 -10 6 -25 16
-32 15 -12 16 -16 4 -27 -12 -11 -13 -11 -6 2 6 12 5 13 -5 3 -20 -18 -56 3
-39 23 9 11 8 14 -5 14 -10 0 -14 -5 -11 -11 4 -6 0 -9 -10 -7 -10 2 -20 -3
-22 -10 -3 -8 2 -10 14 -6 15 5 15 4 3 -5 -9 -6 -18 -7 -24 -1 -17 17 -27 11
-16 -9 16 -30 12 -36 -10 -16 -11 10 -20 13 -20 7 0 -7 -10 -10 -22 -8 -23 3
-27 11 -12 24 4 4 4 1 0 -5 -5 -9 -2 -11 9 -6 13 4 14 8 4 14 -7 4 -20 4 -28
0 -9 -5 -22 -7 -29 -5 -7 1 -8 0 -3 -2 6 -3 7 -12 4 -20 -4 -10 0 -12 11 -8 9
3 23 1 31 -6 12 -10 18 -10 30 0 9 7 18 11 20 8 9 -9 -7 -38 -16 -32 -16 10
-90 13 -84 3 3 -5 -1 -6 -9 -3 -9 3 -16 10 -16 16 0 5 -5 6 -12 2 -8 -5 -9 0
-6 14 4 12 3 22 -2 22 -4 0 -6 12 -3 28 3 26 3 26 -7 4 -5 -13 -8 -28 -4 -33
3 -5 0 -9 -6 -9 -6 0 -8 -4 -5 -10 3 -5 2 -10 -3 -10 -13 0 -54 37 -52 46 1 5
-3 10 -9 12 -6 2 -11 -1 -11 -8 0 -6 -4 -8 -10 -5 -5 3 -10 4 -10 0 0 -3 12
-10 26 -16 25 -9 26 -24 2 -24 -6 0 -14 -10 -19 -22 -5 -14 -5 -23 1 -23 6 0
10 5 10 12 0 6 7 3 15 -8 13 -18 14 -18 8 6 l-6 25 22 -19 c19 -18 21 -18 15
-2 -6 15 -2 16 22 10 53 -12 59 -20 25 -32 -17 -6 -38 -9 -46 -6 -8 4 -15 1
-15 -5 0 -6 -7 -8 -15 -5 -11 4 -15 -1 -16 -17 l-1 -24 -7 24 c-10 38 -31 38
-31 1 0 -20 -4 -29 -11 -24 -6 3 -9 15 -6 25 3 10 0 20 -7 22 -8 3 -8 10 1 25
11 18 10 23 -7 32 -16 9 -20 8 -20 -6 0 -11 5 -14 17 -10 11 5 9 -1 -7 -17
-14 -13 -29 -21 -34 -19 -4 3 -2 8 5 13 10 6 11 11 3 19 -8 8 -14 7 -22 -2
-13 -16 4 -43 33 -51 12 -3 8 -5 -10 -4 -20 1 -33 9 -40 24 -7 16 -15 21 -27
17 -23 -7 -60 5 -53 17 4 5 1 9 -4 9 -17 0 -13 -19 9 -37 14 -12 16 -19 8 -24
-9 -6 -8 -12 2 -23 11 -14 10 -16 -4 -10 -9 3 -19 18 -22 33 -10 40 -13 42
-40 24 l-26 -16 26 -14 c19 -10 26 -21 25 -41 -1 -20 -3 -22 -6 -7 -2 12 -13
27 -24 34 -14 8 -19 8 -14 1 4 -6 -1 -20 -12 -32 -18 -20 -18 -20 2 -18 33 4
37 1 21 -16 -9 -8 -13 -21 -9 -27 4 -8 1 -7 -9 1 -11 9 -18 10 -23 2 -9 -14
-21 -5 -28 20 -4 17 -2 18 15 9 17 -9 20 -9 15 4 -3 8 -1 19 4 24 4 4 5 21 1
36 -7 26 -9 27 -27 13 -18 -14 -18 -15 -2 -16 9 0 17 -4 17 -9 0 -6 -9 -8 -21
-6 -16 3 -18 1 -10 -8 7 -9 3 -21 -15 -42 -14 -17 -23 -25 -20 -19 11 22 14
64 5 64 -5 0 -10 -6 -10 -12 -1 -7 -2 -17 -4 -23 -1 -5 -3 -14 -4 -20 -1 -5
-6 -3 -11 5 -7 11 -10 12 -10 2 0 -21 29 -45 46 -38 10 4 14 1 11 -6 -2 -7
-12 -12 -22 -10 -10 2 -14 -1 -10 -7 3 -6 1 -11 -5 -11 -7 0 -10 7 -6 15 4 12
-7 21 -17 13 -1 -2 -10 4 -19 12 -9 9 -12 17 -6 21 6 4 -9 7 -32 7 -40 1 -50
-7 -16 -12 9 -1 16 -5 16 -9 0 -4 0 -9 0 -12 0 -3 -11 2 -25 11 -19 12 -23 20
-15 29 7 8 7 15 2 19 -6 3 -13 -1 -16 -10 -3 -8 -10 -13 -15 -9 -5 3 -12 1
-15 -4 -9 -13 -46 -1 -46 15 0 8 -6 14 -14 14 -12 0 -12 -5 1 -31 10 -19 18
-27 23 -20 3 7 14 9 23 5 11 -4 17 -1 17 7 0 8 6 5 14 -6 12 -17 12 -21 -5
-33 -15 -10 -23 -11 -33 -3 -7 6 -22 8 -31 4 -13 -5 -16 -3 -10 7 5 8 3 11 -5
8 -18 -6 -22 -39 -7 -58 6 -8 7 -12 3 -8 -5 4 -15 3 -23 -4 -11 -8 -12 -7 -7
5 7 19 -24 17 -36 -2 -5 -9 -7 -4 -7 13 0 14 3 26 8 26 5 0 9 7 9 16 0 11 -5
14 -17 10 -9 -4 -19 -2 -23 4 -4 6 -12 -1 -19 -16 -10 -24 -10 -26 6 -20 17 6
17 5 1 -7 -10 -8 -16 -17 -13 -20 3 -4 2 -5 -1 -2 -4 2 -16 0 -28 -6 -17 -9
-17 -7 4 11 14 12 20 19 13 16 -6 -4 -14 -2 -18 4 -3 5 -2 10 3 10 5 0 9 7 9
15 0 21 -2 19 -26 -17 -11 -18 -21 -28 -21 -22 0 6 3 14 7 18 8 8 13 36 7 36
-3 0 -11 -14 -18 -31 -12 -28 -14 -29 -19 -10 -3 12 0 21 6 21 6 0 8 3 4 6 -3
4 -23 -8 -43 -24 -33 -27 -39 -29 -49 -16 -10 14 -13 14 -26 -3 -13 -16 -12
-17 2 -5 14 10 18 10 22 -2 4 -9 2 -18 -4 -21 -5 -4 -6 -11 -3 -17 5 -7 1 -9
-9 -5 -9 3 -16 3 -16 -1 4 -26 -3 -41 -16 -36 -8 4 -15 10 -15 16 0 5 4 7 8 4
5 -3 9 1 9 9 0 8 -7 15 -14 15 -8 0 -12 -4 -8 -9 3 -5 1 -12 -4 -16 -6 -3 -7
-13 -4 -23 3 -9 3 -14 -1 -10 -11 9 -15 58 -5 58 5 0 9 7 9 15 0 22 -21 18
-27 -5 -7 -28 -23 -25 -18 3 4 20 3 21 -9 5 -18 -24 -25 -23 -19 2 7 25 0 25
-23 3 -16 -17 -17 -16 -12 10 3 16 2 25 -3 20 -4 -4 -10 -21 -13 -37 -3 -16
-8 -31 -10 -34 -3 -3 0 -12 7 -21 11 -14 10 -14 -5 -3 -10 8 -23 12 -30 9 -8
-3 -3 -9 13 -17 24 -11 36 -40 17 -40 -4 0 -8 7 -8 15 0 8 -6 16 -12 16 -7 1
-17 2 -23 4 -5 1 -14 3 -20 4 -5 1 -3 5 5 11 8 5 12 11 9 14 -7 7 -109 -45
-109 -54 0 -4 -11 -5 -25 -2 -26 4 -32 16 -15 27 11 7 2 35 -13 35 -6 0 -7 -3
-4 -6 11 -12 -13 -43 -28 -38 -8 4 -15 2 -15 -2 0 -18 16 -31 33 -28 11 1 16
-1 12 -4 -4 -4 -10 -7 -13 -7 -4 0 -13 -4 -19 -8 -8 -5 -13 -4 -13 2 0 6 -8 8
-17 4 -15 -5 -14 -3 2 10 13 11 15 16 6 17 -7 0 -11 6 -7 15 3 8 1 15 -4 15
-6 0 -10 -4 -10 -10 0 -5 -7 -10 -16 -10 -13 0 -14 -3 -5 -13 8 -10 7 -14 -4
-14 -16 0 -18 7 -9 31 3 9 10 14 14 11 5 -3 6 4 3 15 -7 25 -20 26 -28 1 -5
-15 -13 -19 -36 -16 -16 2 -29 -1 -29 -7 0 -5 7 -7 16 -4 8 3 21 0 27 -7 16
-16 22 -51 8 -42 -6 3 -11 13 -11 21 0 17 -16 19 -26 2 -5 -7 -2 -8 7 -3 8 5
11 4 6 0 -4 -5 -17 -10 -28 -12 -17 -3 -20 1 -16 16 3 15 0 19 -14 18 -12 -1
-15 -5 -9 -11 5 -5 5 -16 1 -25 -9 -17 -11 -23 -11 -42 0 -8 -5 -8 -15 1 -12
10 -13 16 -4 26 9 11 8 14 -4 14 -25 0 -30 -31 -6 -48 17 -11 18 -16 8 -23
-21 -13 -29 -11 -29 9 0 28 -11 34 -26 14 -10 -13 -15 -14 -25 -5 -6 6 -18 9
-25 6 -11 -4 -13 2 -9 23 4 20 -1 37 -14 54 -25 31 -38 20 -16 -13 22 -34 12
-97 -16 -97 -5 0 -4 8 2 19 10 14 9 23 -4 42 -10 13 -17 18 -17 11 0 -6 -4
-12 -10 -12 -5 0 -10 9 -10 21 0 14 5 19 15 16 17 -7 30 9 15 18 -6 4 -8 11
-5 16 10 15 -1 10 -30 -15 -16 -14 -32 -23 -37 -20 -4 3 -8 -1 -8 -9 0 -8 -7
-18 -16 -21 -23 -9 -27 -8 -21 7 3 7 -5 19 -16 27 -19 11 -20 11 -11 -1 6 -8
14 -26 16 -42 4 -21 3 -25 -8 -16 -7 6 -10 17 -7 25 6 17 -13 19 -21 2 -3 -7
-3 -2 0 11 4 17 3 21 -6 16 -9 -5 -10 -1 -5 16 7 23 7 23 -11 4 -11 -10 -19
-23 -19 -29 0 -6 -9 -10 -19 -8 -10 2 -24 -5 -31 -14 -10 -15 -16 -16 -27 -6
-8 6 -18 9 -21 5 -4 -3 -7 3 -7 15 0 18 5 20 34 16 30 -3 33 -2 29 16 -6 23
-31 46 -40 37 -3 -4 0 -13 7 -22 10 -13 9 -15 -10 -15 -15 0 -20 5 -17 14 4
10 1 13 -9 9 -7 -3 -14 -10 -14 -15 0 -6 -8 -17 -17 -24 -17 -12 -16 -13 5
-14 12 0 22 -4 22 -10 0 -5 -7 -6 -17 -3 -11 4 -14 3 -9 -5 4 -7 3 -12 -3 -12
-13 0 -32 35 -24 44 4 3 -8 1 -26 -5 -18 -6 -37 -22 -43 -35 -12 -27 -23 -30
-35 -11 -4 6 -20 12 -35 12 -21 1 -28 -4 -29 -20 -1 -17 -2 -17 -6 -2 -3 13
-10 16 -26 11 -12 -5 -41 -8 -65 -8 -23 -1 -46 -5 -50 -11 -7 -10 -65 -45 -74
-45 -3 0 -5 7 -5 15 0 8 8 15 18 15 24 0 33 17 11 22 -24 7 -42 -1 -42 -18 0
-8 -5 -14 -11 -14 -5 0 -7 -5 -3 -12 4 -6 3 -8 -4 -4 -6 3 -13 2 -17 -4 -3 -5
-11 -10 -17 -10 -6 0 -6 6 2 15 7 9 10 18 6 22 -3 3 -6 1 -6 -5 0 -7 -15 -12
-34 -12 -19 0 -38 -5 -42 -12 -5 -7 -3 -8 6 -3 10 6 12 4 7 -9 -4 -10 -7 -20
-7 -22 0 -2 -7 -4 -15 -4 -8 0 -15 -5 -15 -10 0 -6 -11 -8 -26 -4 -18 5 -29 1
-40 -12 -9 -11 -13 -13 -9 -6 4 8 -2 12 -19 12 -14 0 -26 -5 -26 -11 0 -5 5
-7 10 -4 18 11 10 -11 -10 -30 -23 -21 -39 -13 -20 10 10 12 9 15 -6 15 -21 0
-77 -44 -68 -53 4 -3 -3 -5 -15 -4 -16 1 -19 6 -15 23 3 12 0 25 -7 29 -8 5
-10 4 -5 -4 4 -6 0 -14 -8 -17 -9 -3 -16 -13 -16 -21 0 -8 5 -11 12 -7 7 4 8
3 4 -5 -4 -6 -13 -11 -19 -10 -7 1 -20 -1 -29 -5 -9 -4 -25 -3 -35 3 -11 5
-25 6 -33 1 -8 -5 -37 -7 -64 -4 -36 3 -47 2 -36 -6 11 -7 11 -10 2 -10 -7 0
-10 -4 -7 -10 5 -9 -7 -14 -27 -11 -4 0 -22 -6 -41 -14 -18 -7 -42 -12 -53
-11 -10 2 -23 1 -28 -2 -5 -3 -36 -4 -68 -3 -54 2 -76 -9 -45 -23 6 -3 1 -3
-12 0 -14 4 -21 2 -17 -4 7 -11 -80 -35 -134 -37 -50 -2 -63 -7 -77 -30 -9
-14 -12 -16 -13 -5 0 11 -2 12 -8 2 -8 -12 -18 -15 -82 -27 -14 -2 -66 -6
-117 -7 -50 -1 -89 -6 -87 -10 3 -4 -2 -5 -11 -2 -10 4 -22 -1 -31 -15 -8 -11
-24 -21 -35 -21 -11 0 -28 -4 -37 -9 -13 -7 -94 -16 -184 -21 -5 0 -8 -6 -8
-14 0 -9 -7 -13 -20 -11 -11 2 -24 -3 -29 -13 -8 -15 -33 -17 -188 -20 -98 -2
-182 -8 -187 -13 -6 -6 -6 -9 2 -9 7 0 12 -5 12 -11 0 -7 -10 -9 -25 -5 -14 4
-25 2 -25 -4 0 -20 -70 -28 -252 -28 -167 0 -188 -2 -206 -19 -52 -47 -39 -44
-272 -48 -102 -2 -197 -4 -211 -4 -14 -1 -38 -12 -52 -25 -37 -34 -75 -38
-352 -37 l-250 1 -45 -32 -45 -33 -605 0 c-333 0 -615 -4 -628 -8 -12 -5 -34
-19 -48 -32 -30 -28 -112 -38 -249 -31 -49 3 -188 6 -308 7 l-217 3 -20 33
-19 33 -485 0 c-478 0 -529 -3 -548 -33 -14 -21 -8 -58 12 -87 11 -15 24 -60
31 -100 6 -44 20 -85 34 -106 13 -19 29 -51 36 -71 6 -20 22 -51 34 -69 13
-20 27 -61 33 -103 6 -41 19 -83 31 -100 12 -16 28 -48 36 -71 8 -23 24 -54
35 -70 11 -16 27 -47 35 -70 8 -23 23 -53 34 -66 11 -14 27 -47 36 -74 9 -27
22 -54 30 -60 8 -7 24 -37 35 -68 12 -32 28 -64 35 -72 8 -9 21 -36 30 -59 8
-24 25 -60 38 -80 12 -20 32 -58 45 -85 12 -26 44 -73 71 -102 27 -30 52 -67
56 -84 4 -17 17 -43 29 -58 35 -43 94 -134 105 -166 6 -15 21 -40 32 -55 11
-14 42 -61 69 -103 27 -42 72 -101 101 -130 28 -29 57 -67 65 -84 19 -46 93
-139 183 -233 45 -46 88 -98 97 -116 23 -50 235 -276 475 -506 237 -229 315
-299 374 -337 22 -14 47 -33 55 -42 31 -35 168 -148 235 -194 39 -27 93 -66
120 -87 28 -21 78 -55 111 -76 34 -21 92 -59 130 -85 140 -97 431 -278 447
-278 3 0 41 -22 85 -50 92 -57 493 -259 567 -285 28 -10 55 -22 60 -26 6 -4
71 -32 145 -64 74 -31 150 -64 169 -72 48 -22 414 -147 561 -193 397 -123 917
-232 1230 -260 69 -6 177 -18 240 -26 276 -36 976 -36 1148 0 40 9 104 16 143
16 337 0 1136 163 1694 347 128 42 516 191 672 259 143 62 586 283 693 347
524 309 841 540 1245 906 179 163 264 246 410 405 55 60 105 114 111 120 5 6
63 71 127 144 247 282 519 663 712 997 32 55 72 125 90 155 126 216 297 581
410 875 108 283 276 845 320 1075 9 47 25 119 35 160 10 41 23 109 30 150 6
41 18 109 26 150 49 258 48 193 51 2643 3 1610 0 2300 -7 2328 -8 29 -19 43
-38 51 -17 7 -185 12 -473 15 -402 4 -447 2 -459 -12z m-202 -3701 c18 -12 20
-19 12 -35 -16 -29 -33 -24 -26 9 l7 27 -16 -23 c-9 -12 -13 -27 -9 -34 4 -7
3 -8 -4 -4 -7 4 -12 2 -12 -3 0 -6 6 -11 13 -12 9 0 9 -2 0 -6 -7 -2 -20 2
-28 10 -19 20 -19 28 0 21 9 -4 15 0 15 10 0 9 -6 16 -12 17 -7 0 -2 5 12 10
20 8 22 12 10 19 -13 9 -13 10 0 10 9 0 26 -7 38 -16z m-94 -72 c3 -5 -1 -9
-9 -9 -8 0 -12 4 -9 9 3 4 7 8 9 8 2 0 6 -4 9 -8z m-31 -38 c-3 -8 -6 -14 -7
-12 -1 2 -7 11 -14 20 -11 14 -10 16 7 11 12 -3 17 -11 14 -19z m-157 -21 c0
-1 -13 1 -28 4 -21 4 -24 8 -15 18 10 11 15 10 28 -4 9 -9 16 -17 15 -18z
m322 -8 c-3 -3 -9 2 -12 12 -6 14 -5 15 5 6 7 -7 10 -15 7 -18z m-263 -16
c-32 -9 -47 -3 -26 10 7 5 23 6 35 3 19 -5 18 -6 -9 -13z m-305 -25 c0 9 5 14
10 11 6 -4 8 -11 5 -16 -4 -5 0 -9 9 -9 8 0 17 5 19 10 3 6 4 5 3 -2 -4 -18
-57 -23 -67 -6 -15 22 -9 34 6 14 14 -18 15 -18 15 -2z m-290 -74 c8 -5 11
-10 5 -10 -5 0 -17 5 -25 10 -8 5 -10 10 -5 10 6 0 17 -5 25 -10z m220 6 c0
-3 -4 -8 -10 -11 -5 -3 -10 -1 -10 4 0 6 5 11 10 11 6 0 10 -2 10 -4z m-230
-36 c0 -5 -2 -10 -4 -10 -3 0 -8 5 -11 10 -3 6 -1 10 4 10 6 0 11 -4 11 -10z
m78 -32 c-2 -6 -10 -14 -16 -16 -7 -2 -10 2 -6 12 7 18 28 22 22 4z m37 2 c3
-5 1 -10 -4 -10 -6 0 -11 5 -11 10 0 6 2 10 4 10 3 0 8 -4 11 -10z m75 -16 c0
-8 -19 -13 -24 -6 -3 5 1 9 9 9 8 0 15 -2 15 -3z m-255 -45 c4 -5 2 -9 -4 -9
-5 0 -12 -13 -16 -30 -9 -42 -20 -37 -20 8 -1 29 3 38 17 39 10 1 20 -2 23 -8z
m51 -20 c0 -13 -3 -15 -13 -7 -7 6 -13 14 -13 18 0 3 6 7 13 7 7 0 13 -8 13
-18z m-36 -9 c0 -5 -2 -10 -4 -10 -3 0 -8 5 -11 10 -3 6 -1 10 4 10 6 0 11 -4
11 -10z m-150 -20 c0 -5 -5 -10 -11 -10 -5 0 -7 5 -4 10 3 6 8 10 11 10 2 0 4
-4 4 -10z m76 3 c-10 -11 -37 -12 -30 -2 3 5 12 9 21 9 9 0 13 -3 9 -7z m-234
-24 c-12 -11 -20 -24 -17 -30 4 -5 2 -9 -4 -9 -5 0 -12 4 -16 10 -3 5 -12 7
-20 3 -17 -6 -18 -2 -9 21 5 13 10 14 20 5 10 -8 19 -7 36 5 31 22 36 20 10
-5z m58 -13 c-7 -7 -14 -6 -21 1 -9 9 -7 12 9 10 14 -1 18 -5 12 -11z m-210
-10 c-1 -5 4 -13 12 -17 7 -5 9 -9 3 -9 -5 0 -14 4 -20 8 -14 10 -18 35 -5 30
7 -2 11 -7 10 -12z m293 -9 c-5 -8 -8 -7 -11 1 -2 7 -9 9 -14 6 -7 -4 -8 -2
-4 4 4 6 13 9 21 6 8 -4 12 -11 8 -17z m-432 -34 c-6 -10 -11 -13 -11 -8 0 6
-5 3 -10 -5 -7 -11 -10 -11 -10 -2 0 7 -6 10 -12 7 -7 -4 -5 0 5 8 10 8 17 19
16 23 -4 21 2 24 17 10 11 -12 13 -20 5 -33z m101 5 c-6 -6 -7 0 -4 19 5 21 7
23 10 9 2 -10 0 -22 -6 -28z m53 -8 c3 -5 1 -10 -4 -10 -6 0 -11 5 -11 10 0 6
2 10 4 10 3 0 8 -4 11 -10z m-75 -10 c0 -5 -4 -10 -10 -10 -5 0 -10 5 -10 10
0 6 5 10 10 10 6 0 10 -4 10 -10z m155 0 c-3 -5 -12 -10 -18 -10 -7 0 -6 4 3
10 19 12 23 12 15 0z m-475 -20 c0 -5 -2 -10 -4 -10 -3 0 -8 5 -11 10 -3 6 -1
10 4 10 6 0 11 -4 11 -10z m90 0 c0 -5 -7 -10 -16 -10 -8 0 -12 5 -9 10 3 6
10 10 16 10 5 0 9 -4 9 -10z m156 -2 c4 -7 4 -10 -1 -6 -4 4 -15 2 -24 -5 -14
-11 -14 -10 -2 6 16 20 18 21 27 5z m-272 -23 c3 -9 0 -15 -9 -15 -9 0 -12 6
-9 15 4 8 7 15 9 15 2 0 5 -7 9 -15z m-104 -15 c0 -5 -5 -10 -11 -10 -5 0 -7
5 -4 10 3 6 8 10 11 10 2 0 4 -4 4 -10z m160 -5 c-7 -9 -15 -13 -17 -11 -7 7
7 26 19 26 6 0 6 -6 -2 -15z m481 -18 c-10 -9 -11 -8 -5 6 3 10 9 15 12 12 3
-3 0 -11 -7 -18z m-641 -13 c0 -11 -5 -10 -20 3 -11 10 -20 18 -20 19 0 1 9 0
20 -3 11 -3 20 -12 20 -19z m170 -14 c0 -5 -7 -7 -15 -4 -8 4 -15 8 -15 10 0
2 7 4 15 4 8 0 15 -4 15 -10z m-305 -10 c-3 -5 -10 -10 -16 -10 -5 0 -9 5 -9
10 0 6 7 10 16 10 8 0 12 -4 9 -10z m65 -20 c0 -5 -5 -10 -11 -10 -5 0 -7 5
-4 10 3 6 8 10 11 10 2 0 4 -4 4 -10z m-55 -10 c3 -6 -1 -7 -9 -4 -18 7 -21
14 -7 14 6 0 13 -4 16 -10z m-113 -22 c-7 -7 -12 -8 -12 -2 0 14 12 26 19 19
2 -3 -1 -11 -7 -17z m-197 -28 c3 -5 -1 -10 -9 -10 -9 0 -16 5 -16 10 0 6 4
10 9 10 6 0 13 -4 16 -10z m-95 -94 c0 -8 -7 -16 -15 -20 -13 -4 -14 -2 -5 14
13 23 20 26 20 6z m-404 -6 c17 0 19 -46 3 -56 -9 -5 -10 1 -5 20 5 20 3 26
-5 21 -6 -4 -15 -1 -20 6 -7 11 -9 10 -9 -4 0 -10 -4 -16 -10 -12 -14 9 1 37
17 31 8 -3 21 -6 29 -6z m-66 -52 c0 -12 -1 -19 -3 -17 -1 2 -9 12 -16 22 -12
14 -11 17 3 17 10 0 16 -8 16 -22z m280 -2 c0 -3 -4 -8 -10 -11 -5 -3 -10 -1
-10 4 0 6 5 11 10 11 6 0 10 -2 10 -4z m-133 -12 c-3 -3 -12 -4 -19 -1 -8 3
-5 6 6 6 11 1 17 -2 13 -5z m-387 -34 c0 -4 -8 -7 -17 -6 -12 1 -19 -7 -21
-22 -3 -22 -4 -22 -17 -6 -15 21 -9 44 11 44 8 0 14 5 14 11 0 8 5 8 15 -1 8
-7 15 -16 15 -20z m38 -47 c-2 -11 -7 -11 -23 2 -16 12 -17 14 -2 9 9 -3 17
-1 17 5 0 6 -4 11 -10 11 -5 0 -10 10 -10 23 0 20 2 19 15 -7 9 -17 14 -36 13
-43z m196 51 c10 -25 -1 -29 -14 -5 -6 12 -7 21 -1 21 5 0 12 -7 15 -16z
m-154 -14 c-8 -5 -17 -7 -19 -4 -3 3 1 9 9 14 8 5 17 7 19 4 3 -3 -1 -9 -9
-14z m-180 0 c0 -5 -5 -10 -11 -10 -5 0 -7 5 -4 10 3 6 8 10 11 10 2 0 4 -4 4
-10z m-541 -137 c-3 -20 2 -34 11 -28 6 3 10 0 10 -7 0 -7 -11 -13 -24 -13
-17 0 -22 3 -15 12 7 7 6 14 -2 18 -8 6 -7 10 2 16 17 11 19 11 18 2z m405 -2
c-9 -9 -34 -9 -34 -1 0 5 9 8 20 7 10 -1 17 -3 14 -6z m-210 -47 c5 -14 4 -15
-9 -4 -17 14 -19 20 -6 20 5 0 12 -7 15 -16z m189 9 c-7 -2 -19 -2 -25 0 -7 3
-2 5 12 5 14 0 19 -2 13 -5z m-333 -13 c0 -5 -2 -10 -4 -10 -3 0 -8 5 -11 10
-3 6 -1 10 4 10 6 0 11 -4 11 -10z m-77 -27 c-7 -2 -19 -2 -25 0 -7 3 -2 5 12
5 14 0 19 -2 13 -5z m140 -13 c3 -11 1 -18 -4 -14 -5 3 -9 12 -9 20 0 20 7 17
13 -6z m-93 -10 c0 -5 -5 -10 -11 -10 -5 0 -7 5 -4 10 3 6 8 10 11 10 2 0 4
-4 4 -10z m-66 -15 c3 -8 1 -15 -4 -15 -6 0 -10 7 -10 15 0 8 2 15 4 15 2 0 6
-7 10 -15z m-34 -19 c0 -2 -7 -7 -16 -10 -8 -3 -12 -2 -9 4 6 10 25 14 25 6z
m-70 -31 c0 -8 -2 -15 -4 -15 -2 0 -6 7 -10 15 -3 8 -1 15 4 15 6 0 10 -7 10
-15z m-220 -14 c0 -13 -39 -21 -47 -9 -3 6 -2 8 3 5 6 -3 16 -2 24 4 19 11 20
11 20 0z m-364 -39 c-3 -3 -1 -11 5 -19 9 -10 8 -13 0 -13 -7 0 -9 -5 -5 -12
5 -7 3 -8 -5 -4 -7 5 -10 14 -7 22 3 7 1 16 -5 19 -5 4 -7 11 -3 16 3 5 10 7
15 3 6 -3 8 -9 5 -12z m61 -22 c-1 -12 -5 -16 -10 -11 -5 5 -6 14 -3 20 11 16
15 13 13 -9z m254 3 c13 -16 12 -17 -3 -4 -17 13 -22 21 -14 21 2 0 10 -8 17
-17z m-526 -13 c-3 -6 4 -14 16 -18 l23 -9 -22 -5 c-12 -4 -20 -2 -16 3 3 5 1
9 -4 9 -6 0 -12 7 -16 15 -3 9 0 15 10 15 8 0 12 -5 9 -10z m-102 -46 c11 -11
-3 -24 -18 -18 -8 4 -12 10 -9 15 6 11 18 12 27 3z m-103 -49 c0 -12 -19 -12
-23 0 -4 9 -1 12 9 8 7 -3 14 -7 14 -8z m170 -5 c0 -5 -2 -10 -4 -10 -3 0 -8
5 -11 10 -3 6 -1 10 4 10 6 0 11 -4 11 -10z m-1025 -10 c-3 -5 -1 -10 6 -10
10 0 10 -3 2 -11 -7 -7 -20 -8 -30 -5 -17 7 -17 8 1 22 23 17 30 18 21 4z
m164 -13 c8 -10 7 -14 -4 -14 -8 0 -15 6 -15 14 0 7 2 13 4 13 2 0 9 -6 15
-13z m476 -6 c-3 -6 -11 -11 -17 -11 -6 0 -6 6 2 15 14 17 26 13 15 -4z m45
-11 c0 -5 -5 -10 -11 -10 -5 0 -7 5 -4 10 3 6 8 10 11 10 2 0 4 -4 4 -10z
m-590 -4 c0 -2 -8 -10 -17 -17 -16 -13 -17 -12 -4 4 13 16 21 21 21 13z m-360
-20 c0 -2 -7 -7 -16 -10 -8 -3 -12 -2 -9 4 6 10 25 14 25 6z m160 -6 c0 -5 -2
-10 -4 -10 -3 0 -8 5 -11 10 -3 6 -1 10 4 10 6 0 11 -4 11 -10z m-130 -25 c10
-12 10 -15 -3 -15 -8 0 -17 7 -21 15 -3 8 -2 15 3 15 5 0 14 -7 21 -15z m180
-5 c0 -17 -28 -18 -33 -1 -3 14 0 17 14 14 11 -3 19 -9 19 -13z m425 -18 c-3
-3 -11 0 -18 7 -9 10 -8 11 6 5 10 -3 15 -9 12 -12z m105 8 c0 -5 -2 -10 -4
-10 -3 0 -8 5 -11 10 -3 6 -1 10 4 10 6 0 11 -4 11 -10z m-1185 -109 c3 -5 1
-12 -5 -16 -5 -3 -10 1 -10 9 0 18 6 21 15 7z m5587 -2043 c-8 -8 -9 -4 -5 13
4 13 8 18 11 10 2 -7 -1 -18 -6 -23z m-29 -38 c-3 -11 -9 -20 -13 -20 -4 0
-29 -32 -55 -70 -26 -39 -50 -69 -52 -66 -6 5 114 176 124 176 0 0 -1 -9 -4
-20z m-140 -185 c-3 -9 -8 -14 -10 -11 -3 3 -2 9 2 15 9 16 15 13 8 -4z m-93
-125 c0 -5 -5 -10 -11 -10 -5 0 -7 5 -4 10 3 6 8 10 11 10 2 0 4 -4 4 -10z"/>
<path d="M20040 16399 c0 -5 5 -7 10 -4 6 3 10 8 10 11 0 2 -4 4 -10 4 -5 0
-10 -5 -10 -11z"/>
<path d="M16310 16099 c0 -5 5 -7 10 -4 6 3 10 8 10 11 0 2 -4 4 -10 4 -5 0
-10 -5 -10 -11z"/>
<path d="M16085 15901 c-3 -5 -1 -12 5 -16 5 -3 10 1 10 9 0 18 -6 21 -15 7z"/>
<path d="M15740 15789 c0 -5 5 -7 10 -4 6 3 10 8 10 11 0 2 -4 4 -10 4 -5 0
-10 -5 -10 -11z"/>
<path d="M15261 15764 c0 -11 3 -14 6 -6 3 7 2 16 -1 19 -3 4 -6 -2 -5 -13z"/>
<path d="M15630 15720 c-10 -6 -11 -10 -3 -10 9 0 10 -7 3 -25 -5 -14 -6 -25
-1 -25 16 0 28 25 22 47 -5 17 -10 20 -21 13z"/>
<path d="M15330 15700 c0 -5 7 -10 16 -10 8 0 12 5 9 10 -3 6 -10 10 -16 10
-5 0 -9 -4 -9 -10z"/>
<path d="M15510 15700 c0 -5 5 -10 10 -10 6 0 10 5 10 10 0 6 -4 10 -10 10 -5
0 -10 -4 -10 -10z"/>
<path d="M15386 15665 c4 -8 10 -12 15 -9 11 6 2 24 -11 24 -5 0 -7 -7 -4 -15z"/>
<path d="M14280 15230 c0 -5 -5 -10 -11 -10 -11 0 -39 -25 -39 -35 0 -3 10 0
23 7 12 7 29 11 37 10 9 -1 10 1 3 4 -7 3 -9 12 -6 20 3 8 2 14 -1 14 -3 0 -6
-4 -6 -10z"/>
<path d="M14335 15229 c-4 -6 -5 -12 -2 -15 2 -3 7 2 10 11 7 17 1 20 -8 4z"/>
<path d="M14340 15190 c0 -5 7 -7 15 -4 8 4 15 8 15 10 0 2 -7 4 -15 4 -8 0
-15 -4 -15 -10z"/>
<path d="M14084 15161 c4 -5 1 -12 -4 -14 -6 -3 -5 -4 2 -3 15 3 23 26 8 26
-6 0 -9 -4 -6 -9z"/>
<path d="M14028 15133 c6 -2 18 -2 25 0 6 3 1 5 -13 5 -14 0 -19 -2 -12 -5z"/>
<path d="M13840 15055 c-11 -13 -10 -14 4 -9 9 3 16 10 16 15 0 13 -6 11 -20
-6z"/>
<path d="M13706 14925 c-9 -26 -7 -32 5 -12 6 10 9 21 6 23 -2 3 -7 -2 -11
-11z"/>
<path d="M13570 14875 c0 -3 7 -14 16 -23 15 -14 16 -14 13 3 -4 17 -29 35
-29 20z"/>
<path d="M13430 14820 c0 -5 5 -10 11 -10 5 0 7 5 4 10 -3 6 -8 10 -11 10 -2
0 -4 -4 -4 -10z"/>
<path d="M13390 14810 c-8 -5 -12 -12 -9 -15 4 -3 12 1 19 10 14 17 11 19 -10
5z"/>
<path d="M13435 14790 c3 -5 8 -10 11 -10 2 0 4 5 4 10 0 6 -5 10 -11 10 -5 0
-7 -4 -4 -10z"/>
<path d="M13212 14750 c-1 -17 1 -30 6 -30 9 0 10 45 2 54 -3 3 -7 -8 -8 -24z"/>
<path d="M13142 14720 c0 -14 2 -19 5 -12 2 6 2 18 0 25 -3 6 -5 1 -5 -13z"/>
<path d="M13163 14705 c0 -8 4 -12 9 -9 5 3 6 10 3 15 -9 13 -12 11 -12 -6z"/>
<path d="M12791 14682 c-1 -8 -6 -10 -13 -6 -10 5 -10 4 -1 -6 15 -16 28 -8
20 12 -4 11 -6 11 -6 0z"/>
<path d="M13105 14680 c-3 -5 -1 -10 4 -10 6 0 11 5 11 10 0 6 -2 10 -4 10 -3
0 -8 -4 -11 -10z"/>
<path d="M13070 14660 c0 -5 5 -10 11 -10 5 0 7 5 4 10 -3 6 -8 10 -11 10 -2
0 -4 -4 -4 -10z"/>
<path d="M12898 14653 c7 -3 16 -2 19 1 4 3 -2 6 -13 5 -11 0 -14 -3 -6 -6z"/>
<path d="M12748 14643 c6 -2 18 -2 25 0 6 3 1 5 -13 5 -14 0 -19 -2 -12 -5z"/>
<path d="M12873 14608 c-21 -43 -23 -58 -9 -58 15 0 30 27 27 49 -2 8 2 10 11
5 10 -6 10 -4 -1 9 -17 21 -16 21 -28 -5z"/>
<path d="M12910 14581 c0 -6 5 -13 10 -16 6 -3 10 1 10 9 0 9 -4 16 -10 16 -5
0 -10 -4 -10 -9z"/>
<path d="M23878 13163 c7 -3 16 -2 19 1 4 3 -2 6 -13 5 -11 0 -14 -3 -6 -6z"/>
<path d="M23775 13101 c-3 -5 -2 -12 3 -15 5 -3 9 1 9 9 0 17 -3 19 -12 6z"/>
<path d="M23886 13092 c2 -3 -1 -11 -7 -19 -8 -9 -8 -13 -1 -13 16 0 26 20 15
30 -6 4 -8 5 -7 2z"/>
<path d="M23750 13068 c0 -6 3 -8 7 -5 3 4 18 0 32 -9 l26 -15 -24 20 c-26 24
-41 27 -41 9z"/>
<path d="M23705 13060 c-3 -6 1 -7 9 -4 18 7 21 14 7 14 -6 0 -13 -4 -16 -10z"/>
<path d="M23855 13029 c-4 -6 -5 -12 -2 -15 2 -3 7 2 10 11 7 17 1 20 -8 4z"/>
<path d="M23766 13011 c-4 -6 -3 -11 2 -11 5 0 9 -7 9 -15 0 -8 -4 -15 -9 -15
-4 0 -8 -7 -8 -16 0 -8 -5 -12 -10 -9 -6 4 -7 11 -4 17 5 7 2 8 -5 4 -9 -6 -9
-12 3 -25 9 -10 13 -21 9 -26 -5 -4 2 -2 14 6 13 8 18 16 12 20 -7 4 -4 12 6
23 9 9 11 16 5 16 -6 0 -9 4 -6 8 2 4 1 14 -3 21 -6 9 -11 10 -15 2z"/>
<path d="M23807 13001 c3 -12 11 -17 19 -14 8 3 14 6 12 7 -2 1 -11 7 -20 14
-14 11 -16 10 -11 -7z"/>
<path d="M23650 13003 c0 -7 9 -15 21 -18 25 -8 47 9 28 20 -8 5 -10 4 -5 -3
10 -16 -17 -15 -32 0 -9 9 -12 9 -12 1z"/>
<path d="M23870 13000 c0 -5 10 -10 23 -10 18 0 19 2 7 10 -19 13 -30 13 -30
0z"/>
<path d="M23830 12956 c0 -14 4 -27 8 -30 5 -3 6 8 4 25 -5 35 -12 38 -12 5z"/>
<path d="M23885 12970 c-3 -5 1 -10 9 -10 8 0 18 5 21 10 3 6 -1 10 -9 10 -8
0 -18 -4 -21 -10z"/>
<path d="M23700 12941 c-8 -6 -18 -7 -22 -5 -10 6 -10 -7 0 -23 8 -13 37 -12
49 2 4 4 2 5 -6 0 -11 -6 -13 -3 -9 13 4 12 5 22 5 22 -1 0 -9 -4 -17 -9z"/>
<path d="M23742 12881 c7 -9 13 -17 14 -19 0 -1 11 7 24 18 l22 19 -36 -1
c-31 -1 -34 -3 -24 -17z"/>
<path d="M23725 12870 c-3 -5 -1 -10 4 -10 6 0 11 5 11 10 0 6 -2 10 -4 10 -3
0 -8 -4 -11 -10z"/>
<path d="M23923 12862 c-10 -6 -9 -14 2 -35 11 -22 11 -27 0 -27 -8 0 -11 -7
-8 -20 3 -12 10 -19 16 -17 14 4 18 57 4 57 -8 0 -7 3 2 9 9 6 10 14 5 24 -6
9 -14 13 -21 9z"/>
<path d="M23590 12822 c0 -11 7 -18 20 -18 18 0 18 2 3 18 -9 10 -18 18 -20
18 -1 0 -3 -8 -3 -18z"/>
<path d="M23415 12820 c-3 -5 -2 -10 4 -10 5 0 13 5 16 10 3 6 2 10 -4 10 -5
0 -13 -4 -16 -10z"/>
<path d="M23480 12821 c0 -5 12 -8 26 -8 18 0 22 2 13 8 -18 11 -39 11 -39 0z"/>
<path d="M23560 12805 c-8 -10 -9 -15 -1 -15 6 0 11 -5 11 -11 0 -5 -6 -7 -12
-3 -7 4 -6 -1 3 -11 20 -21 61 -12 52 11 -3 8 -12 13 -20 10 -8 -3 -12 -2 -9
2 2 4 1 14 -3 20 -6 10 -11 9 -21 -3z"/>
<path d="M23241 12771 c-9 -16 -8 -19 6 -17 20 3 28 21 14 30 -5 4 -15 -2 -20
-13z"/>
<path d="M23348 12759 c3 -21 7 -27 13 -18 4 7 3 21 -2 31 -14 25 -16 23 -11
-13z"/>
<path d="M23306 12765 c-2 -7 2 -16 10 -19 22 -8 24 -8 24 8 0 19 -27 28 -34
11z"/>
<path d="M23263 12723 c-7 -2 -13 -9 -13 -15 0 -7 5 -7 13 1 8 6 18 7 22 3 5
-4 5 -1 1 6 -4 6 -8 12 -9 11 -1 0 -8 -3 -14 -6z"/>
<path d="M23155 12701 c-3 -5 -2 -12 3 -15 5 -3 9 1 9 9 0 17 -3 19 -12 6z"/>
<path d="M23060 12690 c0 -5 5 -10 10 -10 6 0 10 5 10 10 0 6 -4 10 -10 10 -5
0 -10 -4 -10 -10z"/>
<path d="M23090 12668 c0 -13 8 -18 25 -18 14 0 25 4 25 9 0 5 -8 8 -17 7 -10
-2 -21 2 -25 8 -5 7 -8 4 -8 -6z"/>
<path d="M23180 12640 c0 -5 7 -10 16 -10 8 0 12 5 9 10 -3 6 -10 10 -16 10
-5 0 -9 -4 -9 -10z"/>
<path d="M23156 12626 c3 -9 11 -16 16 -16 13 0 5 23 -10 28 -7 2 -10 -2 -6
-12z"/>
<path d="M23073 12610 c1 -21 10 -18 13 5 1 8 -2 15 -6 15 -5 0 -8 -9 -7 -20z"/>
<path d="M23187 12613 c-11 -11 -8 -23 6 -23 8 0 14 7 14 15 0 16 -9 19 -20 8z"/>
<path d="M22845 12580 c4 -6 11 -8 16 -5 14 9 11 15 -7 15 -8 0 -12 -5 -9 -10z"/>
<path d="M22940 12580 c0 -5 5 -10 11 -10 5 0 7 5 4 10 -3 6 -8 10 -11 10 -2
0 -4 -4 -4 -10z"/>
<path d="M22915 12570 c3 -5 8 -10 11 -10 2 0 4 5 4 10 0 6 -5 10 -11 10 -5 0
-7 -4 -4 -10z"/>
<path d="M22629 12553 c-13 -16 -12 -17 4 -4 16 13 21 21 13 21 -2 0 -10 -8
-17 -17z"/>
<path d="M22482 12521 c-11 -6 -9 -9 6 -13 15 -4 19 -2 15 8 -6 16 -4 16 -21
5z"/>
<path d="M22661 12521 c-8 -5 -9 -11 -3 -15 5 -3 12 1 16 9 6 17 6 18 -13 6z"/>
<path d="M22332 12505 c4 -4 3 -14 -4 -22 -8 -11 -7 -12 6 -7 19 7 21 20 4 30
-7 4 -10 4 -6 -1z"/>
<path d="M22556 12498 c3 -5 10 -6 15 -3 13 9 11 12 -6 12 -8 0 -12 -4 -9 -9z"/>
<path d="M22695 12500 c-3 -6 1 -7 9 -4 18 7 21 14 7 14 -6 0 -13 -4 -16 -10z"/>
<path d="M22495 12480 c-4 -6 -11 -7 -17 -4 -6 4 -8 2 -5 -4 4 -5 16 -8 27 -5
11 3 17 9 14 14 -7 12 -11 11 -19 -1z"/>
<path d="M22395 12472 c-8 -8 -6 -32 3 -32 4 0 12 8 19 18 9 15 8 19 -3 19 -8
0 -16 -3 -19 -5z"/>
<path d="M22563 12468 c5 -30 47 -25 47 6 0 6 -5 4 -11 -4 -8 -11 -12 -12 -16
-2 -2 6 -9 12 -14 12 -5 0 -8 -6 -6 -12z"/>
<path d="M22170 12448 c0 -2 9 -11 20 -21 11 -9 20 -13 20 -7 0 5 -9 14 -20
20 -11 6 -20 9 -20 8z"/>
<path d="M22541 12404 c0 -11 3 -14 6 -6 3 7 2 16 -1 19 -3 4 -6 -2 -5 -13z"/>
<path d="M22175 12399 c-4 -6 -13 -8 -21 -5 -7 3 -16 0 -20 -6 -4 -6 -3 -8 3
-5 5 3 20 0 34 -6 13 -7 32 -11 42 -9 21 4 23 32 1 32 -8 0 -12 -4 -9 -10 3
-5 -1 -10 -9 -10 -10 0 -13 6 -10 15 7 17 -2 20 -11 4z"/>
<path d="M21980 12339 c0 -5 5 -7 10 -4 6 3 10 8 10 11 0 2 -4 4 -10 4 -5 0
-10 -5 -10 -11z"/>
<path d="M21795 12280 c-3 -5 1 -10 10 -10 9 0 13 5 10 10 -3 6 -8 10 -10 10
-2 0 -7 -4 -10 -10z"/>
<path d="M21900 12260 c0 -5 5 -10 10 -10 6 0 10 5 10 10 0 6 -4 10 -10 10 -5
0 -10 -4 -10 -10z"/>
<path d="M21650 12215 c-10 -12 -10 -15 4 -15 9 0 16 7 16 15 0 8 -2 15 -4 15
-2 0 -9 -7 -16 -15z"/>
<path d="M21585 12189 c-4 -6 -5 -12 -2 -15 2 -3 7 2 10 11 7 17 1 20 -8 4z"/>
<path d="M21100 12173 c0 -5 11 -16 25 -26 17 -12 26 -14 31 -5 4 7 3 8 -4 4
-6 -4 -17 2 -24 14 -13 20 -28 27 -28 13z"/>
<path d="M21590 12149 c0 -5 5 -7 10 -4 6 3 10 8 10 11 0 2 -4 4 -10 4 -5 0
-10 -5 -10 -11z"/>
<path d="M20955 12139 c-11 -17 1 -21 15 -4 8 9 8 15 2 15 -6 0 -14 -5 -17
-11z"/>
<path d="M21038 12130 c-17 -19 -11 -35 7 -22 8 6 17 42 11 42 -1 0 -9 -9 -18
-20z"/>
<path d="M21210 12120 c-20 -12 -10 -19 14 -10 11 3 15 9 10 13 -6 3 -16 2
-24 -3z"/>
<path d="M21360 12121 c0 -5 5 -13 10 -16 6 -3 10 -2 10 4 0 5 -4 13 -10 16
-5 3 -10 2 -10 -4z"/>
<path d="M21390 12120 c0 -5 5 -10 11 -10 5 0 7 5 4 10 -3 6 -8 10 -11 10 -2
0 -4 -4 -4 -10z"/>
<path d="M21447 12116 c-7 -19 0 -25 24 -19 15 4 17 8 8 19 -15 18 -25 18 -32
0z"/>
<path d="M21220 12085 c-16 -19 -2 -38 19 -26 9 6 10 14 4 25 -9 16 -11 16
-23 1z"/>
<path d="M20820 12080 c0 -5 5 -10 11 -10 5 0 7 5 4 10 -3 6 -8 10 -11 10 -2
0 -4 -4 -4 -10z"/>
<path d="M21150 12080 c0 -5 5 -10 11 -10 5 0 7 5 4 10 -3 6 -8 10 -11 10 -2
0 -4 -4 -4 -10z"/>
<path d="M20980 12060 c-8 -5 -12 -11 -9 -14 2 -3 11 -1 19 4 8 5 12 11 9 14
-2 3 -11 1 -19 -4z"/>
<path d="M20907 12053 c-4 -3 -7 -13 -7 -22 1 -13 3 -13 11 2 11 19 8 33 -4
20z"/>
<path d="M21380 12041 c0 -6 4 -13 10 -16 6 -3 7 1 4 9 -7 18 -14 21 -14 7z"/>
<path d="M20740 12030 c0 -5 5 -10 11 -10 5 0 7 5 4 10 -3 6 -8 10 -11 10 -2
0 -4 -4 -4 -10z"/>
<path d="M20830 12020 c0 -5 7 -7 15 -4 8 4 15 8 15 10 0 2 -7 4 -15 4 -8 0
-15 -4 -15 -10z"/>
<path d="M20570 11991 c-8 -6 -18 -7 -22 -5 -4 3 -8 1 -8 -5 0 -20 18 -20 35
-1 20 22 18 25 -5 11z"/>
<path d="M20375 11981 c-3 -5 -1 -12 5 -16 5 -3 10 1 10 9 0 18 -6 21 -15 7z"/>
<path d="M20670 11970 c0 -5 5 -10 11 -10 5 0 7 5 4 10 -3 6 -8 10 -11 10 -2
0 -4 -4 -4 -10z"/>
<path d="M20481 11954 c0 -11 3 -14 6 -6 3 7 2 16 -1 19 -3 4 -6 -2 -5 -13z"/>
<path d="M20174 11945 c-16 -12 -16 -14 -3 -15 9 0 22 7 29 15 16 19 0 19 -26
0z"/>
<path d="M20570 11940 c-6 -11 -16 -17 -22 -14 -7 4 -8 3 -4 -4 9 -16 33 -4
39 19 7 25 1 24 -13 -1z"/>
<path d="M20600 11930 c0 -5 5 -10 11 -10 5 0 7 5 4 10 -3 6 -8 10 -11 10 -2
0 -4 -4 -4 -10z"/>
<path d="M20477 11909 c-3 -11 0 -16 8 -12 19 7 26 30 10 30 -8 0 -16 -8 -18
-18z"/>
<path d="M20245 11910 c-3 -5 -1 -10 4 -10 6 0 11 5 11 10 0 6 -2 10 -4 10 -3
0 -8 -4 -11 -10z"/>
<path d="M20424 11909 c-3 -6 -1 -16 4 -21 8 -8 11 -5 9 11 -1 24 -3 25 -13
10z"/>
<path d="M20216 11887 c3 -10 9 -15 12 -12 3 3 0 11 -7 18 -10 9 -11 8 -5 -6z"/>
<path d="M20165 11880 c3 -5 8 -10 11 -10 2 0 4 5 4 10 0 6 -5 10 -11 10 -5 0
-7 -4 -4 -10z"/>
<path d="M20100 11870 c0 -5 5 -10 10 -10 6 0 10 5 10 10 0 6 -4 10 -10 10 -5
0 -10 -4 -10 -10z"/>
<path d="M20075 11829 c-8 -23 -1 -34 14 -24 13 8 15 45 2 45 -5 0 -13 -9 -16
-21z"/>
<path d="M19979 11838 c-4 -15 -6 -50 -3 -41 3 7 5 15 4 19 -1 4 4 11 12 15
10 7 10 9 1 9 -7 0 -13 -1 -14 -2z"/>
<path d="M19900 11826 c0 -2 7 -7 16 -10 8 -3 12 -2 9 4 -6 10 -25 14 -25 6z"/>
<path d="M19925 11800 c-22 -9 -21 -10 15 -15 14 -2 19 -1 12 1 -6 3 -10 10
-6 15 6 10 6 10 -21 -1z"/>
<path d="M20340 11789 c0 -5 5 -7 10 -4 6 3 10 8 10 11 0 2 -4 4 -10 4 -5 0
-10 -5 -10 -11z"/>
<path d="M19823 11770 c-11 -16 -10 -18 2 -14 8 4 15 12 15 20 0 19 -3 18 -17
-6z"/>
<path d="M19880 11740 c-9 -6 -10 -10 -3 -10 6 0 15 5 18 10 8 12 4 12 -15 0z"/>
<path d="M19750 11725 c0 -10 29 -24 34 -17 3 6 -3 12 -14 15 -11 3 -20 4 -20
2z"/>
<path d="M19813 11705 c0 -8 4 -12 9 -9 5 3 6 10 3 15 -9 13 -12 11 -12 -6z"/>
<path d="M18880 11700 c0 -5 7 -10 16 -10 8 0 12 5 9 10 -3 6 -10 10 -16 10
-5 0 -9 -4 -9 -10z"/>
<path d="M18696 11665 c-3 -8 -1 -15 3 -15 5 0 11 7 15 15 3 8 1 15 -3 15 -5
0 -11 -7 -15 -15z"/>
<path d="M18767 11673 c-4 -3 -7 -11 -7 -17 0 -6 5 -5 12 2 6 6 9 14 7 17 -3
3 -9 2 -12 -2z"/>
<path d="M18800 11674 c0 -3 8 -17 19 -30 18 -23 19 -23 24 -4 4 15 1 20 -11
18 -10 -2 -16 3 -14 10 1 6 -2 12 -8 12 -5 0 -10 -3 -10 -6z"/>
<path d="M18725 11659 c-4 -6 -5 -12 -2 -15 2 -3 7 2 10 11 7 17 1 20 -8 4z"/>
<path d="M19270 11660 c0 -5 7 -7 15 -4 8 4 15 8 15 10 0 2 -7 4 -15 4 -8 0
-15 -4 -15 -10z"/>
<path d="M19625 11660 c6 -10 4 -12 -9 -7 -10 4 -19 1 -21 -6 -9 -28 -9 -46 0
-46 6 -1 10 5 10 12 0 6 9 19 19 28 15 12 16 18 6 24 -9 6 -11 4 -5 -5z"/>
<path d="M18624 11619 c-3 -6 -3 -13 0 -16 3 -4 6 -1 6 6 0 7 7 11 15 8 8 -4
16 -3 19 1 3 4 -4 8 -14 9 -11 1 -22 -3 -26 -8z"/>
<path d="M19270 11620 c-8 -5 -10 -10 -5 -10 6 0 17 5 25 10 8 5 11 10 5 10
-5 0 -17 -5 -25 -10z"/>
<path d="M19353 11615 c0 -8 4 -12 9 -9 5 3 6 10 3 15 -9 13 -12 11 -12 -6z"/>
<path d="M18555 11612 c-5 -4 -16 -15 -23 -24 -11 -14 -11 -16 7 -11 10 3 21
13 24 24 6 21 6 21 -8 11z"/>
<path d="M18775 11611 c3 -5 1 -12 -5 -16 -5 -3 -10 -1 -10 5 0 6 -5 8 -11 4
-16 -10 6 -28 25 -21 18 7 22 37 5 37 -5 0 -8 -4 -4 -9z"/>
<path d="M18990 11600 c-8 -5 -12 -12 -9 -15 4 -3 12 1 19 10 14 17 11 19 -10
5z"/>
<path d="M18576 11580 c-10 -10 -16 -25 -13 -32 4 -9 6 -8 6 4 1 11 7 15 24
11 18 -4 19 -3 7 6 -14 10 -7 16 13 12 5 -1 6 3 2 9 -9 14 -17 12 -39 -10z"/>
<path d="M18708 11593 c7 -3 16 -2 19 1 4 3 -2 6 -13 5 -11 0 -14 -3 -6 -6z"/>
<path d="M18798 11582 c-3 -11 0 -19 8 -19 7 0 10 5 7 10 -3 5 1 13 8 18 11 7
11 9 -2 9 -9 0 -19 -8 -21 -18z"/>
<path d="M19212 11595 c3 -3 16 -8 28 -10 12 -2 20 -1 16 2 -4 4 -16 8 -28 10
-12 2 -19 1 -16 -2z"/>
<path d="M19280 11576 c0 -16 6 -26 14 -26 9 0 12 7 9 20 -8 31 -23 34 -23 6z"/>
<path d="M18663 11569 c-1 -10 2 -19 8 -19 11 0 12 27 1 34 -4 2 -9 -4 -9 -15z"/>
<path d="M19082 11578 c-18 -18 -14 -38 8 -38 21 0 23 4 12 33 -6 14 -10 15
-20 5z"/>
<path d="M18703 11548 c1 -19 9 -34 17 -36 16 -3 45 36 35 46 -3 4 -10 1 -14
-7 -6 -9 -10 -7 -14 8 -8 33 -27 24 -24 -11z"/>
<path d="M18898 11573 c7 -3 16 -2 19 1 4 3 -2 6 -13 5 -11 0 -14 -3 -6 -6z"/>
<path d="M18352 11554 c-7 -8 -8 -14 -3 -14 10 0 25 19 20 25 -2 1 -10 -3 -17
-11z"/>
<path d="M18620 11560 c0 -5 7 -10 16 -10 8 0 12 5 9 10 -3 6 -10 10 -16 10
-5 0 -9 -4 -9 -10z"/>
<path d="M19000 11568 c-10 -37 -3 -53 25 -55 24 -2 26 -1 10 6 -11 4 -23 19
-26 32 -4 13 -8 21 -9 17z"/>
<path d="M19115 11560 c3 -5 8 -10 11 -10 2 0 4 5 4 10 0 6 -5 10 -11 10 -5 0
-7 -4 -4 -10z"/>
<path d="M18463 11546 c4 -9 2 -16 -3 -16 -5 0 -7 -7 -4 -15 8 -19 24 -20 24
-1 0 8 5 16 10 18 6 2 1 9 -11 17 -19 11 -21 11 -16 -3z"/>
<path d="M18525 11550 c-3 -5 1 -10 9 -10 9 0 16 5 16 10 0 6 -4 10 -9 10 -6
0 -13 -4 -16 -10z"/>
<path d="M18805 11540 c-3 -5 -1 -10 4 -10 6 0 11 5 11 10 0 6 -2 10 -4 10 -3
0 -8 -4 -11 -10z"/>
<path d="M18930 11540 c-8 -5 -10 -10 -5 -10 6 0 17 5 25 10 8 5 11 10 5 10
-5 0 -17 -5 -25 -10z"/>
<path d="M19030 11540 c0 -5 5 -10 11 -10 5 0 7 5 4 10 -3 6 -8 10 -11 10 -2
0 -4 -4 -4 -10z"/>
<path d="M18835 11530 c-3 -6 6 -15 21 -20 35 -14 38 -9 9 13 -15 10 -26 13
-30 7z"/>
<path d="M18600 11520 c0 -5 5 -10 11 -10 5 0 7 5 4 10 -3 6 -8 10 -11 10 -2
0 -4 -4 -4 -10z"/>
<path d="M18276 11495 c4 -8 11 -15 16 -15 6 0 5 6 -2 15 -7 8 -14 15 -16 15
-2 0 -1 -7 2 -15z"/>
<path d="M18380 11499 c0 -5 -5 -7 -11 -3 -7 4 -10 1 -7 -6 2 -7 16 -14 30
-16 25 -2 26 -2 10 17 -19 22 -22 23 -22 8z"/>
<path d="M18605 11489 c-4 -6 -5 -12 -2 -15 2 -3 7 2 10 11 7 17 1 20 -8 4z"/>
<path d="M18975 11490 c-3 -5 -2 -10 4 -10 5 0 13 5 16 10 3 6 2 10 -4 10 -5
0 -13 -4 -16 -10z"/>
<path d="M18550 11475 c0 -8 2 -15 4 -15 2 0 6 7 10 15 3 8 1 15 -4 15 -6 0
-10 -7 -10 -15z"/>
<path d="M18648 11478 c5 -5 16 -8 23 -6 8 3 3 7 -10 11 -17 4 -21 3 -13 -5z"/>
<path d="M18075 11450 c-3 -5 -2 -10 4 -10 5 0 13 5 16 10 3 6 2 10 -4 10 -5
0 -13 -4 -16 -10z"/>
<path d="M18380 11456 c0 -2 7 -7 16 -10 8 -3 12 -2 9 4 -6 10 -25 14 -25 6z"/>
<path d="M18635 11450 c3 -6 -1 -10 -9 -10 -9 0 -16 -7 -16 -15 0 -19 2 -19
29 4 18 16 19 20 6 25 -9 3 -13 2 -10 -4z"/>
<path d="M18210 11431 c0 -6 5 -13 10 -16 6 -3 10 1 10 9 0 9 -4 16 -10 16 -5
0 -10 -4 -10 -9z"/>
<path d="M18590 11390 c0 -5 5 -10 10 -10 6 0 10 5 10 10 0 6 -4 10 -10 10 -5
0 -10 -4 -10 -10z"/>
<path d="M17540 11303 c0 -7 4 -13 9 -13 5 0 13 6 19 13 8 10 6 13 -9 13 -10
0 -19 -6 -19 -13z"/>
</g>
</svg>
